<?xml version="1.0" standalone="no"?>
<!DOCTYPE svg PUBLIC "-//W3C//DTD SVG 1.1//EN" "http://www.w3.org/Graphics/SVG/1.1/DTD/svg11.dtd" >
<svg xmlns="http://www.w3.org/2000/svg">
<metadata></metadata>
<defs>
<font id="polyregular" horiz-adv-x="519" >
<font-face units-per-em="1000" ascent="800" descent="-200" />
<missing-glyph horiz-adv-x="245" />
<glyph unicode="ff" horiz-adv-x="686" d="M541 404v-332q0 -7 1 -10t5 -6t14 -5l49 -12l-4 -39h-219l-6 39q49 10 59.5 20.5t10.5 36.5v314q-182 0 -246 -6v-332q0 -10 4 -14.5t18 -6.5l65 -12l-4 -39h-237l-6 39q49 10 59.5 20.5t10.5 36.5v309h-65l-4 43l49 12q13 3 17 11t5 24q2 24 6 48t17.5 62.5t33.5 66.5 t56 49t83 21q52 0 110 -22q0 -62 -14 -111l-49 -6q-15 70 -24 75q-11 11 -41 11q-47 0 -68.5 -62.5t-21.5 -160.5h216q19 0 25 9t7 26t2.5 30.5t6.5 43.5t12.5 53t22.5 51.5t34 47.5t48.5 32t65.5 13q54 0 114 -23q0 -76 -13 -121l-53 -5q-16 81 -24 86q-16 10 -42 10 q-86 0 -86 -253h118l-8 -47z" />
<glyph unicode="fi" horiz-adv-x="660" d="M397 0l-6 39q49 10 59.5 20.5t10.5 36.5v287q0 22 -16.5 31t-52.5 9q-53 0 -187 -12v-339q0 -10 4 -14.5t18 -6.5l65 -12l-4 -39h-237l-6 39q49 10 59.5 20.5t10.5 36.5v309h-65l-4 43l49 12q13 3 17 11t5 24q1 18 3.5 35t10 46.5t18 54t29.5 51.5t43.5 46t61 31.5 t80.5 12.5q61 0 135 -22q0 -68 -17 -121l-54 -6q-10 54 -14.5 68.5t-9.5 16.5q-22 11 -66 11q-66 0 -99 -72t-33 -174h118q69 0 142.5 2.5t74.5 2.5l11 -10v-396q0 -7 1 -10t5.5 -6t13.5 -5l49 -12l-4 -39h-219z" />
<glyph unicode="fl" horiz-adv-x="653" d="M527 763l17 -26v-665q0 -7 1 -10t5 -6t14 -5l49 -12l-4 -39h-219l-6 39q49 10 59.5 20.5t10.5 36.5v581q0 21 -16 31q-20 14 -65 14q-85 0 -126.5 -67.5t-41.5 -188.5h118l-8 -47l-110 -15v-332q0 -10 4 -14.5t18 -6.5l65 -12l-4 -39h-237l-6 39q49 10 59.5 20.5 t10.5 36.5v309h-65l-4 43l49 12q13 3 17 11t5 24q5 55 20 100.5t46 87t87.5 65.5t133.5 24q65 0 123 -9z" />
<glyph unicode="ffi" horiz-adv-x="996" d="M733 0l-6 39q49 10 59.5 20.5t10.5 36.5v287q0 22 -16.5 31t-52.5 9q-53 0 -187 -12v-339q0 -7 1 -10t5 -6t14 -5l67 -12l-4 -39h-237l-6 39q49 10 59.5 20.5t10.5 36.5v321q-182 0 -246 -6v-339q0 -10 4 -14.5t18 -6.5l65 -12l-4 -39h-237l-6 39q49 10 59.5 20.5 t10.5 36.5v309h-65l-4 43l49 12q13 3 17 11t5 24q2 24 6 48t17.5 62.5t33.5 66.5t56 49t83 21q52 0 110 -22q0 -62 -14 -111l-49 -6q-15 70 -24 75q-11 11 -41 11q-47 0 -68.5 -60.5t-21.5 -155.5h216q20 0 26 9t7 27q3 29 9 56.5t23 67.5t42 68.5t69.5 49.5t101.5 21 q61 0 135 -22q0 -68 -17 -121l-54 -6q-10 54 -14.5 68.5t-9.5 16.5q-22 11 -66 11q-66 0 -99 -72t-33 -174h118q69 0 142.5 2.5t74.5 2.5l11 -10v-396q0 -7 1 -10t5 -6t14 -5l49 -12l-4 -39h-219z" />
<glyph unicode="ffl" horiz-adv-x="989" d="M863 763l17 -26v-665q0 -7 1 -10t5 -6t14 -5l49 -12l-4 -39h-219l-6 39q49 10 59.5 20.5t10.5 36.5v581q0 20 -16 31q-20 14 -65 14q-85 0 -126.5 -67.5t-41.5 -188.5h118l-8 -47l-110 -15v-332q0 -7 1 -10t5 -6t14 -5l67 -12l-4 -39h-237l-6 39q49 10 59.5 20.5 t10.5 36.5v314q-182 0 -246 -6v-332q0 -10 4 -14.5t18 -6.5l65 -12l-4 -39h-237l-6 39q49 10 59.5 20.5t10.5 36.5v309h-65l-4 43l49 12q13 3 17 11t5 24q2 24 6 48t17.5 62.5t33.5 66.5t56 49t83 21q52 0 110 -22q0 -62 -14 -111l-49 -6q-14 65 -24 75q-11 11 -41 11 q-47 0 -68.5 -62.5t-21.5 -160.5h216q18 0 24.5 8.5t7.5 25.5q33 272 287 272q65 0 123 -9z" />
<glyph unicode="fk" horiz-adv-x="919" d="M51 0l-6 39q49 10 59.5 20.5t10.5 36.5v309h-65l-4 43l49 12q13 3 17 11t5 24q5 55 20 100.5t46 87t87.5 65.5t133.5 24q65 0 123 -9l17 -26v-506l172 161q8 8 8 17q0 15 -69 25l6 39h199l4 -39q-46 -7 -55 -16l-137 -131l145 -207q14 -20 34 -29t58 -12l-6 -39h-139 l-155 226l-65 -62v-92q0 -9 3.5 -13t16.5 -8l44 -12l-4 -39h-214l-6 39q49 10 59.5 20.5t10.5 36.5v581q0 21 -16 31q-20 14 -65 14q-85 0 -126.5 -67.5t-41.5 -188.5h118l-8 -47l-110 -15v-332q0 -10 4 -14.5t18 -6.5l65 -12l-4 -39h-237z" />
<glyph unicode="fb" horiz-adv-x="894" d="M51 0l-6 39q49 10 59.5 20.5t10.5 36.5v309h-65l-4 43l49 12q13 3 17 11t5 24q5 55 20 100.5t46 87t87.5 65.5t133.5 24q53 0 102 -9l17 -26v-256q0 -55 -7 -78l8 -3l10 13q58 75 143 75q77 0 129 -64.5t52 -175.5q0 -115 -59.5 -186t-171.5 -71q-53 0 -108 14t-86 29 v643q0 21 -16 31q-14 14 -44 14q-85 0 -126.5 -67.5t-41.5 -188.5h118l-8 -47l-110 -15v-332q0 -10 4 -14.5t18 -6.5l65 -12l-4 -39h-237zM523 84q43 -36 116 -36q58 0 81 27q17 21 29 64t12 96q0 89 -32 135t-79 46t-100 -35q-17 -11 -22 -20t-5 -25v-252z" />
<glyph unicode="fh" horiz-adv-x="946" d="M51 0l-6 39q49 10 59.5 20.5t10.5 36.5v309h-65l-4 43l49 12q13 3 17 11t5 24q5 55 20 100.5t46 87t87.5 65.5t133.5 24q65 0 123 -9l17 -26v-256q0 -55 -7 -78l8 -3l12 14q62 74 155 74q67 0 104.5 -39t37.5 -107v-270q0 -9 3.5 -13t16.5 -8l49 -12l-4 -39h-214l-6 39 q45 9 55 20t10 37v216q0 48 -17.5 76t-68.5 28q-54 0 -111 -39q-13 -9 -18 -17.5t-5 -30.5v-257q0 -9 3.5 -13t16.5 -8l44 -12l-4 -39h-214l-6 39q49 10 59.5 20.5t10.5 36.5v581q0 21 -16 31q-20 14 -65 14q-85 0 -126.5 -67.5t-41.5 -188.5h118l-8 -47l-110 -15v-332 q0 -10 4 -14.5t18 -6.5l65 -12l-4 -39h-237z" />
<glyph unicode="fj" horiz-adv-x="630" d="M450 68v315q0 22 -16.5 31t-52.5 9q-50 0 -176 -12v-339q0 -10 4 -14.5t18 -6.5l65 -12l-4 -39h-237l-6 39q49 10 59.5 20.5t10.5 36.5v309h-65l-4 43l49 12q13 3 17 11t5 24q1 18 3.5 35t10 46.5t18 54t29.5 51.5t43.5 46t61 31.5t80.5 12.5q61 0 135 -22 q0 -68 -17 -121l-54 -6q-10 54 -14.5 68.5t-9.5 16.5q-22 11 -66 11q-66 0 -99 -72t-33 -174h118q65 0 135 2.5t71 2.5l11 -10v-430q0 -94 -56 -175.5t-108 -81.5q-36 0 -76 7q-3 12 -3 24q0 30 17 58q40 -10 62 -10q21 0 29 7q21 14 33 71.5t12 129.5z" />
<glyph unicode="TT" horiz-adv-x="1091" d="M1075 693q9 -74 9 -133q0 -28 -1 -43l-51 -4q-9 52 -17 79.5t-12.5 33t-10.5 8.5q-12 5 -141 7v-564q0 -23 20 -26l77 -12l-4 -39h-275l-6 39q63 10 77 20.5t14 41.5v540h-417v-564q0 -23 20 -26l77 -12l-4 -39h-275l-6 39q63 10 77 20.5t14 41.5v540q-129 -2 -141 -7 q-6 -3 -10.5 -8.5t-12.5 -33t-17 -79.5l-51 4q-1 15 -1 43q0 59 9 133h1059z" />
<glyph unicode="ft" horiz-adv-x="700" d="M423 749q0 -76 -13 -121l-53 -5q-16 81 -24 86q-16 10 -42 10q-86 0 -86 -253h200q30 0 35 23q0 7 3 21t9.5 39.5t11.5 51.5l61 6v-141h138l-8 -47l-130 -15v-237q0 -104 64 -104q36 0 76 30l21 -29q-54 -73 -132 -73q-56 0 -87.5 39t-31.5 107v275q-150 0 -230 -8v-332 q0 -10 4 -14.5t18 -6.5l75 -12l-4 -39h-247l-6 39q49 10 59.5 20.5t10.5 36.5v309h-65l-4 43l49 12q13 3 17 11t5 24q1 22 3.5 40t8.5 55t19.5 65t33.5 56.5t52.5 44.5t74.5 16q54 0 114 -23z" />
<glyph unicode="f&#xed;" horiz-adv-x="660" d="M403 749q0 -71 -13 -111l-53 -5q-11 49 -15 61t-9 15q-16 10 -37 10q-40 0 -55.5 -62.5t-15.5 -183.5h118q69 0 142.5 2.5t74.5 2.5l11 -10v-396q0 -7 1 -10t5.5 -6t13.5 -5l49 -12l-4 -39h-219l-6 39q49 10 59.5 20.5t10.5 36.5v287q0 22 -16.5 31t-52.5 9 q-53 0 -187 -12v-339q0 -10 4 -14.5t18 -6.5l65 -12l-4 -39h-237l-6 39q49 10 59.5 20.5t10.5 36.5v309h-65l-4 43l49 12q13 3 17 11t5 24q1 23 3 40t8 54.5t17.5 65t29.5 56.5t47.5 45t66.5 16q54 0 114 -23zM651 735v-23l-152 -151l-35 25l107 179z" />
<glyph unicode="ffb" horiz-adv-x="1230" d="M769 34v643q0 21 -16 31q-14 14 -44 14q-85 0 -126.5 -67.5t-41.5 -188.5h118l-8 -47l-110 -15v-332q0 -7 1 -10t5 -6t14 -5l67 -12l-4 -39h-237l-6 39q49 10 59.5 20.5t10.5 36.5v314q-182 0 -246 -6v-332q0 -10 4 -14.5t18 -6.5l65 -12l-4 -39h-237l-6 39 q49 10 59.5 20.5t10.5 36.5v309h-65l-4 43l49 12q13 3 17 11t5 24q2 24 6 48t17.5 62.5t33.5 66.5t56 49t83 21q52 0 110 -22q0 -62 -14 -111l-49 -6q-15 67 -24 75q-16 11 -41 11q-47 0 -68.5 -62.5t-21.5 -160.5h216q30 0 32 31q7 56 22.5 100t46.5 86t86 65.5t132 23.5 q53 0 102 -9l17 -26v-256q0 -55 -7 -78l8 -3l10 13q58 75 143 75q77 0 129 -64.5t52 -175.5q0 -115 -59.5 -186t-171.5 -71q-53 0 -108 14t-86 29zM859 336v-252q43 -36 116 -36q56 0 81 27q17 21 29 64t12 96q0 89 -32 135t-79 46t-100 -35q-17 -11 -22 -20t-5 -25z" />
<glyph unicode="ffk" horiz-adv-x="1255" d="M880 231l172 161q8 8 8 17q0 15 -69 25l6 39h199l4 -39q-46 -7 -55 -16l-137 -131l145 -207q14 -20 33.5 -29t58.5 -12l-6 -39h-139l-155 226l-65 -62v-92q0 -7 1 -10t5 -6t14 -5l44 -12l-4 -39h-214l-6 39q49 10 59.5 20.5t10.5 36.5v581q0 21 -16 31q-20 14 -65 14 q-85 0 -126.5 -67.5t-41.5 -188.5h118l-8 -47l-110 -15v-332q0 -7 1 -10t5 -6t14 -5l67 -12l-4 -39h-237l-6 39q49 10 59.5 20.5t10.5 36.5v314q-182 0 -246 -6v-332q0 -10 4 -14.5t18 -6.5l65 -12l-4 -39h-237l-6 39q49 10 59.5 20.5t10.5 36.5v309h-65l-4 43l49 12 q13 3 17 11t5 24q2 24 6 48t17.5 62.5t33.5 66.5t56 49t83 21q52 0 110 -22q0 -62 -14 -111l-49 -6q-15 67 -24 75q-16 11 -41 11q-47 0 -68.5 -62.5t-21.5 -160.5h216q30 0 32 31q7 56 22.5 100t46.5 86t86 65.5t132 23.5q65 0 123 -9l17 -26v-506z" />
<glyph unicode="ffh" horiz-adv-x="1282" d="M880 481q0 -55 -7 -78l8 -3l12 14q62 74 155 74q67 0 104.5 -39t37.5 -107v-270q0 -7 1 -10t5 -6t14 -5l49 -12l-4 -39h-214l-6 39q45 9 55 20t10 37v216q0 48 -17.5 76t-68.5 28q-54 0 -111 -39q-13 -9 -18 -17.5t-5 -30.5v-257q0 -7 1 -10t5 -6t14 -5l44 -12l-4 -39 h-214l-6 39q49 10 59.5 20.5t10.5 36.5v581q0 21 -16 31q-20 14 -65 14q-85 0 -126.5 -67.5t-41.5 -188.5h118l-8 -47l-110 -15v-332q0 -7 1 -10t5 -6t14 -5l67 -12l-4 -39h-237l-6 39q49 10 59.5 20.5t10.5 36.5v314q-182 0 -246 -6v-332q0 -10 4 -14.5t18 -6.5l65 -12 l-4 -39h-237l-6 39q49 10 59.5 20.5t10.5 36.5v309h-65l-4 43l49 12q13 3 17 11t5 24q2 24 6 48t17.5 62.5t33.5 66.5t56 49t83 21q52 0 110 -22q0 -62 -14 -111l-49 -6q-15 67 -24 75q-16 11 -41 11q-47 0 -68.5 -62.5t-21.5 -160.5h216q30 0 32 31q7 56 22.5 100t46.5 86 t86 65.5t132 23.5q65 0 123 -9l17 -26v-256z" />
<glyph unicode="fft" horiz-adv-x="1036" d="M541 466h200q24 0 35 23q0 7 3 21t9.5 39.5t11.5 51.5l61 6v-141h138l-8 -47l-130 -15v-237q0 -104 64 -104q36 0 76 30l21 -29q-54 -73 -132 -73q-56 0 -87.5 39t-31.5 107v275q-150 0 -230 -8v-332q0 -10 4 -14.5t18 -6.5l75 -12l-4 -39h-247l-6 39q49 10 59.5 20.5 t10.5 36.5v314q-182 0 -246 -6v-332q0 -10 4 -14.5t18 -6.5l65 -12l-4 -39h-237l-6 39q49 10 59.5 20.5t10.5 36.5v309h-65l-4 43l49 12q13 3 17 11t5 24q2 24 6 48t17.5 62.5t33.5 66.5t56 49t83 21q52 0 110 -22q0 -62 -14 -111l-49 -6q-15 67 -24 75q-16 11 -41 11 q-47 0 -68.5 -62.5t-21.5 -160.5h216q19 0 25 9t7 26t2.5 30.5t6.5 43.5t12.5 53t22.5 51.5t34 47.5t48.5 32t65.5 13q54 0 114 -23q0 -76 -13 -121l-53 -5q-16 81 -24 86q-16 10 -42 10q-86 0 -86 -253z" />
<glyph unicode="ffj" horiz-adv-x="966" d="M876 38q0 -94 -56 -175.5t-108 -81.5q-36 0 -76 7q-3 12 -3 24q0 30 17 58q39 -10 62 -10q18 0 29 7q21 14 33 71t12 130v315q0 22 -16.5 31t-52.5 9q-50 0 -176 -12v-339q0 -7 1 -10t5 -6t14 -5l67 -12l-4 -39h-237l-6 39q49 10 59.5 20.5t10.5 36.5v321q-182 0 -246 -6 v-339q0 -10 4 -14.5t18 -6.5l65 -12l-4 -39h-237l-6 39q49 10 59.5 20.5t10.5 36.5v309h-65l-4 43l49 12q13 3 17 11t5 24q2 24 6 48t17.5 62.5t33.5 66.5t56 49t83 21q52 0 110 -22q0 -62 -14 -111l-49 -6q-15 67 -24 75q-16 11 -41 11q-47 0 -68.5 -60.5t-21.5 -155.5h216 q20 0 26 9t7 27q3 29 9 56.5t23 67.5t42 68.5t69.5 49.5t101.5 21q61 0 135 -22q0 -68 -17 -121l-54 -6q-10 54 -14.5 68.5t-9.5 16.5q-22 11 -66 11q-66 0 -99 -72t-33 -174h118q65 0 135 2.5t71 2.5l11 -10v-430z" />
<glyph unicode=" "  horiz-adv-x="245" />
<glyph unicode="&#x09;" horiz-adv-x="245" />
<glyph unicode="&#xa0;" horiz-adv-x="245" />
<glyph unicode="!" horiz-adv-x="226" d="M167 703l12 -19l-52 -507l-50 2l-13 494zM98 -9q-25 0 -41.5 14t-16.5 41q0 23 15.5 38t42.5 15q57 0 57 -53q0 -23 -15.5 -39t-41.5 -16z" />
<glyph unicode="&#x22;" horiz-adv-x="331" d="M125 778l13 -19l-41 -245l-43 3l-5 236zM276 778l13 -19l-41 -245l-43 3l-5 236z" />
<glyph unicode="#" horiz-adv-x="551" d="M194 693h58l-27 -201h132l27 201h58l-27 -201h100v-59h-107l-20 -152h106v-59h-113l-29 -222h-59l29 222h-131l-29 -222h-59l29 222h-97v59h105l20 152h-104v59h111zM218 433l-20 -152h132l20 152h-132z" />
<glyph unicode="$" horiz-adv-x="480" d="M414 524q1 -9 1 -27q0 -62 -14 -112l-50 -6q-7 92 -24 104q-19 12 -59 14v-176q38 -16 60 -27.5t49.5 -31.5t40.5 -46.5t13 -59.5q0 -60 -43.5 -104.5t-119.5 -56.5v-123h-57v119q-95 2 -154 27q-2 15 -2 46q0 47 9 112l57 5q9 -77 13 -93.5t13 -21.5q21 -13 64 -19v186 q-36 15 -57 26.5t-46.5 31t-38 45t-12.5 58.5q0 59 41.5 100t112.5 53v121h57v-116q75 -1 146 -28zM137 429q0 -49 74 -83v150q-33 -3 -50 -16q-24 -18 -24 -51zM344 119q0 50 -76 89v-162q33 3 50 17q26 20 26 56z" />
<glyph unicode="%" horiz-adv-x="808" d="M611 -9q-75 0 -118.5 58.5t-43.5 142.5q0 89 46.5 152t125.5 63q75 0 118.5 -59t43.5 -143q0 -88 -46.5 -151t-125.5 -63zM609 364q-38 0 -58 -41.5t-20 -115.5q0 -86 24.5 -129.5t66.5 -43.5q79 0 79 150q0 85 -24.5 132.5t-67.5 47.5zM589 693h65l-446 -693h-66z M187 286q-75 0 -118.5 58.5t-43.5 142.5q0 89 46.5 152t125.5 63q75 0 118.5 -59t43.5 -143q0 -88 -46.5 -151t-125.5 -63zM185 659q-38 0 -58 -41.5t-20 -115.5q0 -86 24.5 -129.5t66.5 -43.5q79 0 79 150q0 85 -24.5 132.5t-67.5 47.5z" />
<glyph unicode="&#x26;" horiz-adv-x="685" d="M578 396q-5 -146 -66 -251l72 -77q25 -25 81 -29l-6 -39h-144l-64 68q-82 -77 -202 -77q-98 0 -153.5 49t-55.5 132q0 67 37 116.5t101 77.5q-82 88 -82 173q0 73 51.5 118t136.5 45q63 0 128 -25q1 -8 1 -24q0 -58 -13 -99l-46 -5q-7 78 -20 87q-18 13 -70 13 q-46 0 -69 -23q-20 -20 -20 -59q0 -32 18 -64.5t72 -90.5l208 -225q45 83 45 172q0 38 -18 53t-78 22l6 39h228l4 -39l-62 -12q-20 -4 -20 -26zM282 54q74 0 133 54l-200 217q-71 -41 -71 -130q0 -61 36 -101t102 -40z" />
<glyph unicode="'" horiz-adv-x="180" d="M125 778l13 -19l-41 -245l-43 3l-5 236z" />
<glyph unicode="(" horiz-adv-x="291" d="M245 -189q-78 78 -140.5 208t-62.5 280q0 137 63 261.5t140 200.5l34 -28q-68 -79 -111.5 -198.5t-43.5 -235.5q0 -128 43 -253.5t112 -206.5z" />
<glyph unicode=")" horiz-adv-x="291" d="M46 -189l-34 28q69 81 112 206.5t43 253.5q0 116 -43.5 235.5t-111.5 198.5l34 28q77 -76 140 -200.5t63 -261.5q0 -150 -62.5 -280t-140.5 -208z" />
<glyph unicode="*" horiz-adv-x="391" d="M222 744l9 -12l-16 -114q-4 -24 -8 -30l7 -4q6 12 20 23l85 63l47 -40l-5 -13l-106 -44q-19 -8 -30 -8v-8q18 0 29 -5l97 -42l-11 -61l-14 -2l-91 70q-19 16 -22 22l-7 -4q9 -18 10 -29l13 -105l-59 -21l-9 11l16 114q4 24 8 30l-7 4q-6 -13 -21 -23l-84 -63l-48 40l5 13 l107 43q19 8 30 8v8q-13 0 -30 6l-97 41l11 62l14 2l91 -71q19 -16 22 -22l7 4q-8 16 -9 30l-13 105z" />
<glyph unicode="+" horiz-adv-x="466" d="M45 244v53h163v167h50v-167h163v-53h-163v-171h-50v171h-163z" />
<glyph unicode="," horiz-adv-x="252" d="M91 -137l-27 26q41 49 41 90q0 23 -17.5 44t-17.5 38q0 24 16.5 38t39.5 14q27 0 45 -21.5t18 -60.5q0 -90 -98 -168z" />
<glyph unicode="-" horiz-adv-x="295" d="M46 277l218 14l-16 -62l-214 -26z" />
<glyph unicode="." horiz-adv-x="252" d="M125 -9q-26 0 -43 15.5t-17 46.5q0 24 16.5 42t43.5 18q62 0 62 -60q0 -26 -17 -44t-45 -18z" />
<glyph unicode="/" horiz-adv-x="391" d="M307 772h69l-291 -832h-70z" />
<glyph unicode="0" horiz-adv-x="534" d="M261 -9q-109 0 -169 72.5t-60 199.5q0 132 63.5 210.5t177.5 78.5q109 0 169 -73t60 -200q0 -132 -63.5 -210t-177.5 -78zM277 44q58 0 86 35q18 23 30 74t12 111q0 103 -37.5 169t-110.5 66q-58 0 -86 -35q-18 -23 -30 -74t-12 -111q0 -103 37.5 -169t110.5 -66z" />
<glyph unicode="1" horiz-adv-x="354" d="M51 0l-6 39q57 9 77 21t20 36v307q0 50 -4.5 60t-24.5 10q-19 0 -67 -5l-8 38q30 13 90 26.5t93 14.5l11 -10v-465q0 -7 1 -10t5.5 -6t13.5 -5l77 -12l-4 -39h-274z" />
<glyph unicode="2" horiz-adv-x="473" d="M30 0v53q59 48 85.5 70t66.5 57t56.5 54.5t36 46.5t26 50t6.5 48q0 52 -30 86t-88 34q-44 0 -63 -15q-12 -10 -23 -108l-54 6q-8 36 -8 82q0 32 1 42q58 46 170 46q91 0 141.5 -43t50.5 -114q0 -76 -62 -150t-197 -167l2 -7l60 2q129 4 144 7q18 4 39 78l46 -4 q1 -9 1 -30q0 -69 -16 -124h-391z" />
<glyph unicode="3" horiz-adv-x="469" d="M55 -138l-5 56q128 17 203.5 62.5t75.5 116.5q0 47 -35 75t-106 28q-27 0 -52 -4l3 48q87 14 127 55.5t40 94.5q0 45 -28.5 75t-86.5 30q-39 0 -59 -13q-7 -4 -10.5 -10t-8.5 -30.5t-8 -69.5l-53 6q-9 45 -9 82q0 32 1 42q70 46 166 46q86 0 138.5 -37t52.5 -100 q0 -51 -28 -90t-71 -59l1 -8q57 -11 94 -46t37 -95q0 -100 -105 -169t-274 -86z" />
<glyph unicode="4" horiz-adv-x="534" d="M31 45l-23 61l317 428q56 13 86 13l11 -10v-434l102 -2l-9 -57h-93v-166q-32 -6 -79 -6l-11 10v162h-300zM79 115l4 -7l249 -4v313q0 21 2 30l-6 3l-231 -313q-8 -12 -18 -22z" />
<glyph unicode="5" horiz-adv-x="482" d="M55 -138l-5 56q139 18 219.5 70t80.5 128q0 48 -36.5 81.5t-104.5 33.5q-62 0 -124 -23l-22 26l22 303h256q5 0 8 3.5t8 20t11 49.5l51 -7q-4 -94 -14 -147h-260l-12 -179q50 17 111 17q99 0 154.5 -42.5t55.5 -115.5q0 -105 -110 -181.5t-289 -92.5z" />
<glyph unicode="6" horiz-adv-x="516" d="M480 213q0 -94 -61 -158t-160 -64q-100 0 -157 69t-57 186q0 162 103 280t249 154l20 -41q-220 -92 -263 -281l8 -3q51 66 133 66q75 0 130 -58.5t55 -149.5zM385 195q0 72 -29 114.5t-73 42.5q-21 0 -54.5 -7t-55.5 -22q-23 -16 -29 -38q-4 -16 -4 -31q0 -214 139 -214 q42 0 68 28q38 41 38 127z" />
<glyph unicode="7" horiz-adv-x="450" d="M103 -121q16 99 94 272t174 305l-2 7l-177 -3q-67 -2 -90 -4q-8 -1 -13.5 -14.5t-17.5 -65.5l-46 5q-2 32 -2 50q0 69 6 106h411v-60q-213 -332 -232 -611q-11 -3 -29 -3q-51 0 -76 16z" />
<glyph unicode="8" d="M57 495q0 80 57 131t146 51q29 0 59.5 -7t64.5 -22.5t56 -48.5t22 -79q0 -90 -78 -148q-23 -16 -37 -16v-9q6 0 16 -5q60 -31 92 -69t32 -95q0 -83 -64.5 -135t-168.5 -52q-34 0 -67 6t-70.5 21t-61 49t-23.5 82q0 97 97 162q27 16 38 16v9q-6 0 -16 5q-94 57 -94 154z M144 517q0 -28 11.5 -49.5t37 -39.5t45 -28.5t56.5 -26.5q84 57 84 138q0 56 -34.5 86t-89.5 30q-56 0 -83 -34t-27 -76zM393 156q0 29 -13 52t-41 41t-48.5 28t-58.5 25q-7 3 -10 4q-6 -2 -20.5 -11.5t-35 -27t-35.5 -46.5t-15 -61q0 -55 40 -84.5t104 -29.5q69 0 101 33.5 t32 76.5z" />
<glyph unicode="9" horiz-adv-x="516" d="M36 332q0 93 61.5 156.5t158.5 63.5q99 0 157 -70.5t58 -186.5q0 -68 -21 -137t-63 -133t-117 -108.5t-172 -53.5l-7 45q116 27 180 91.5t91 180.5l-8 3q-47 -58 -129 -58q-77 0 -133 59t-56 148zM131 353q0 -77 36.5 -118t80.5 -41q53 0 94 22q24 13 29 37q6 24 6 59 q0 86 -33.5 138.5t-102.5 52.5q-44 0 -71 -28q-39 -41 -39 -122z" />
<glyph unicode=":" horiz-adv-x="252" d="M125 366q-26 0 -43 15.5t-17 46.5q0 24 16.5 42t43.5 18q62 0 62 -60q0 -26 -17 -44t-45 -18zM125 -9q-26 0 -43 15.5t-17 46.5q0 24 16.5 42t43.5 18q62 0 62 -60q0 -26 -17 -44t-45 -18z" />
<glyph unicode=";" horiz-adv-x="252" d="M125 366q-26 0 -43 15.5t-17 46.5q0 24 16.5 42t43.5 18q62 0 62 -60q0 -26 -17 -44t-45 -18zM91 -137l-27 26q41 49 41 90q0 23 -17.5 44t-17.5 38q0 24 16.5 38t39.5 14q27 0 45 -21.5t18 -60.5q0 -90 -98 -168z" />
<glyph unicode="&#x3c;" horiz-adv-x="517" d="M26 225v50l464 230v-69l-386 -186l386 -185v-69z" />
<glyph unicode="=" horiz-adv-x="466" d="M45 173v53h376v-53h-376zM45 310v53h376v-53h-376z" />
<glyph unicode="&#x3e;" horiz-adv-x="517" d="M490 275v-50l-464 -229v69l386 185l-386 186v69z" />
<glyph unicode="?" horiz-adv-x="424" d="M199 204l-47 -14q-46 64 -46 106q0 28 21.5 53t52 45t60.5 41t51.5 51t21.5 66q0 49 -35.5 73t-83.5 24q-46 0 -76 -16q-8 -4 -12 -19t-9 -70l-54 6q-8 31 -8 78q0 22 1 32q29 17 79 29.5t97 12.5q82 0 135 -40.5t53 -115.5q0 -39 -15.5 -72t-39 -54t-51 -42t-51 -36.5 t-39 -35.5t-15.5 -42q0 -20 10 -60zM180 -9q-25 0 -41.5 14.5t-16.5 39.5t15.5 39.5t43.5 14.5q56 0 56 -51q0 -25 -15.5 -41t-41.5 -16z" />
<glyph unicode="@" horiz-adv-x="795" d="M31 185q0 178 113 291.5t291 113.5q142 0 235.5 -72t93.5 -209q0 -72 -31.5 -154.5t-90.5 -141.5q-105 -11 -119 -14q-44 7 -44 66q0 19 5 52l6 42l-7 2q-63 -159 -165 -159q-108 0 -108 161q0 125 63 208.5t156 83.5q43 0 100 -19l40 10l19 -12q-1 -9 -13.5 -84 t-19.5 -133.5t-7 -101.5q0 -33 6.5 -49t25.5 -16q26 0 48 30t34 73t19 85t7 72q0 97 -72.5 163.5t-195.5 66.5q-79 0 -140 -29.5t-96.5 -79.5t-53 -110t-17.5 -128q0 -261 261 -261q36 0 120 20q0 -6 5.5 -19t5.5 -21l-9 -12q-106 -21 -154 -21q-156 0 -233.5 82.5 t-77.5 223.5zM343 63q34 0 69.5 52.5t58 126t25.5 136.5q-52 26 -91 26q-46 0 -59 -15q-21 -26 -36 -93t-15 -127q0 -106 48 -106z" />
<glyph unicode="A" horiz-adv-x="670" d="M14 0l-7 40q38 10 46.5 16t16.5 27l224 619h83l229 -635q5 -15 59 -25l-4 -42h-233l-6 40q70 14 70 33q0 8 -4 21l-44 130h-259l-51 -142q-4 -12 -4 -15q0 -6 6 -7l71 -19l-4 -41h-189zM204 277h223l-98 281q-7 21 -7 29h-10z" />
<glyph unicode="B" horiz-adv-x="619" d="M50 0l-6 39q53 9 64.5 20t11.5 42v491q0 31 -11.5 42t-64.5 20l6 39h264q109 0 167 -43.5t58 -121.5q0 -62 -33.5 -104.5t-71.5 -54.5v-7q64 -12 107 -60t43 -109q0 -76 -59.5 -134.5t-182.5 -58.5h-292zM217 383h56q82 0 120.5 35.5t38.5 97.5q0 124 -148 124h-67v-257z M217 97q0 -29 15 -35q15 -10 61 -10q96 0 138 34t42 98q0 34 -10.5 60.5t-26.5 42t-38 26t-42.5 14t-41.5 3.5h-97v-233z" />
<glyph unicode="C" horiz-adv-x="620" d="M35 331q0 54 10.5 104t36.5 99.5t65 86t100 59t138 22.5q55 0 116 -10t80 -18q6 -37 6 -94q0 -24 -2 -74l-57 -8q-22 116 -39 128q-9 7 -46.5 15t-74.5 8q-110 0 -166 -81t-56 -213q0 -156 71 -232t176 -76q38 0 71.5 9t42.5 16q12 9 34 128l55 -2q0 -76 -11 -162 q-31 -17 -93.5 -31t-127.5 -14q-163 0 -246 96t-83 244z" />
<glyph unicode="D" horiz-adv-x="713" d="M50 0l-6 39q53 9 64.5 20t11.5 42v491q0 31 -11.5 42t-64.5 20l6 39h313q86 0 149 -27.5t98 -75t51.5 -103t16.5 -119.5q0 -69 -18.5 -132t-57 -117t-106 -86.5t-155.5 -32.5h-291zM217 93q0 -22 21 -26q70 -14 106 -14q111 0 167 79t56 211q0 83 -21.5 144t-57 92.5 t-72.5 46t-76 14.5h-123v-547z" />
<glyph unicode="E" horiz-adv-x="592" d="M50 0l-6 39q53 9 64.5 20t11.5 42v491q0 31 -11.5 42t-64.5 20l6 39h466q6 -37 6 -79q0 -31 -2 -77l-57 -7q-14 69 -20 86.5t-14 18.5q-24 3 -61 4l-151 3v-269h150q13 0 32 71l31 -3q0 -28 0.5 -49.5t1 -34t2 -30t2 -23.5t4 -29t4.5 -32l-36 -6q-16 57 -21.5 70 t-12.5 13h-157v-269l89 1q31 0 55.5 1.5t38 2.5t24 3t14 3t6.5 2.5t4 1.5q17 5 44 118l55 -5q1 -17 1 -51q0 -53 -11 -128h-487z" />
<glyph unicode="F" horiz-adv-x="546" d="M50 0l-6 39q53 9 64.5 20t11.5 42v491q0 31 -11.5 42t-64.5 20l6 39h466q6 -37 6 -79q0 -31 -2 -77l-57 -7q-14 69 -20 86.5t-14 18.5q-24 3 -61 4l-151 3v-278h154q25 0 44 71l31 -3q0 -28 0.5 -49.5t1 -34t2 -30t2 -23.5t4 -29t4.5 -32l-36 -6q-24 83 -46 83h-161v-234 q0 -24 20 -26l101 -12l-4 -39h-284z" />
<glyph unicode="G" horiz-adv-x="681" d="M587 37q-33 -17 -95.5 -31.5t-127.5 -14.5q-163 0 -246 96t-83 244q0 54 10.5 104t36.5 99.5t65 86t100 59t138 22.5q55 0 116 -10t80 -18q6 -37 6 -94q0 -24 -2 -74l-57 -8q-22 116 -39 128q-9 7 -46.5 15t-74.5 8q-110 0 -166 -81t-56 -213q0 -156 71 -232t176 -76 q55 0 97 16v139q0 31 -11.5 42t-64.5 20l6 39h234l4 -39l-51 -12q-20 -4 -20 -26v-189z" />
<glyph unicode="H" horiz-adv-x="767" d="M50 0l-6 39q53 9 64.5 20t11.5 42v491q0 31 -11.5 42t-64.5 20l6 39h245l4 -39l-62 -12q-20 -4 -20 -26v-229h333v205q0 31 -11.5 42t-64.5 20l6 39h245l4 -39l-62 -12q-20 -4 -20 -26v-539q0 -22 20 -26l62 -12l-4 -39h-245l-6 39q53 9 64.5 20t11.5 42v226h-333v-250 q0 -22 20 -26l62 -12l-4 -39h-245z" />
<glyph unicode="I" horiz-adv-x="337" d="M50 0l-6 39q53 9 64.5 20t11.5 42v491q0 31 -11.5 42t-64.5 20l6 39h245l4 -39l-62 -12q-20 -4 -20 -26v-539q0 -22 20 -26l62 -12l-4 -39h-245z" />
<glyph unicode="J" horiz-adv-x="336" d="M219 622v-494q0 -91 -51.5 -169t-105.5 -78q-43 0 -83 8q-3 12 -3 26q0 32 19 62q47 -11 67 -11q18 0 31 8q29 20 29 184v434q0 30 -15.5 41t-70.5 21l6 39h265l4 -39l-72 -12q-20 -4 -20 -20z" />
<glyph unicode="K" horiz-adv-x="652" d="M50 0l-6 39q53 9 64.5 20t11.5 42v491q0 31 -11.5 42t-64.5 20l6 39h245l4 -39l-62 -12q-20 -4 -20 -26v-264l241 256q15 15 15 24q0 18 -76 21l6 40h212l4 -42q-11 0 -20.5 -3t-16 -5.5t-14 -8t-10.5 -8.5t-9.5 -10t-7.5 -8l-222 -236l241 -292q16 -20 35.5 -29 t56.5 -12l-6 -39h-152l-243 299l-34 -36v-186q0 -22 20 -26l55 -12l-4 -39h-238z" />
<glyph unicode="L" horiz-adv-x="558" d="M50 0l-6 39q53 9 64.5 20t11.5 42v491q0 31 -11.5 42t-64.5 20l6 39h245l4 -39l-62 -12q-20 -4 -20 -26v-565l89 1q111 2 130 7q16 5 56 154l55 -5q1 -17 1 -51q0 -71 -11 -157h-487z" />
<glyph unicode="M" horiz-adv-x="913" d="M43 0l-6 39q54 10 68.5 21t14.5 41v491q0 31 -11.5 42t-64.5 20l6 39h210l192 -526q5 -16 7 -25h10q1 11 5 20l195 531h181l4 -39l-42 -12q-19 -6 -19 -23v-542q0 -22 20 -26l62 -12l-4 -39h-247l-6 39q49 9 63.5 19.5t14.5 34.5v457q0 23 3 38h-8l-211 -568h-72 l-213 570h-8v-490q0 -24 9.5 -36t34.5 -16l49 -9l-4 -39h-233z" />
<glyph unicode="N" horiz-adv-x="775" d="M598 0l-16 189h8v383q0 45 -16.5 60t-79.5 22l6 39h235l4 -39l-62 -12q-20 -4 -20 -26v-616h-59zM595 0l-468 693h114l406 -598l-2 -94zM50 0l-6 39q53 9 64.5 20t11.5 42v491q0 31 -11.5 42t-64.5 20l6 39h136l10 -101h-9v-492q0 -25 9.5 -37t34.5 -15l70 -9l-4 -39 h-247z" />
<glyph unicode="O" horiz-adv-x="711" d="M35 338q0 165 87 264.5t241 99.5q149 0 231 -91.5t82 -246.5q0 -170 -87 -271.5t-241 -101.5q-149 0 -231 93.5t-82 253.5zM364 44q54 0 94.5 25t63 69t33 96t10.5 113q0 134 -56.5 218t-161.5 84q-54 0 -94.5 -24.5t-63 -67.5t-33 -93.5t-10.5 -108.5q0 -138 56 -224.5 t162 -86.5z" />
<glyph unicode="P" horiz-adv-x="559" d="M50 0l-6 39q53 9 64.5 20t11.5 42v491q0 31 -11.5 42t-64.5 20l6 39h279q106 0 159 -51.5t53 -137.5q0 -102 -69.5 -169t-202.5 -67h-52v-191q0 -24 20 -26l101 -12l-4 -39h-284zM217 321h44q33 0 60.5 7t54.5 24t42.5 51.5t15.5 84.5q0 46 -13 78t-35 47t-43 21t-44 6 h-62q-20 0 -20 -24v-295z" />
<glyph unicode="Q" horiz-adv-x="711" d="M312 -7q-133 11 -205 103t-72 242q0 165 87 264.5t241 99.5q149 0 231 -91.5t82 -246.5q0 -133 -54.5 -226t-154.5 -128v-4q19 -7 69 -43.5t77 -36.5q19 0 58 15l23 -36q-22 -18 -35.5 -27.5t-36.5 -19.5t-44 -10q-33 0 -68.5 21.5t-62 47.5t-63.5 49.5t-72 26.5zM364 44 q54 0 94.5 25t63 69t33 96t10.5 113q0 134 -56.5 218t-161.5 84q-54 0 -94.5 -24.5t-63 -67.5t-33 -93.5t-10.5 -108.5q0 -138 56 -224.5t162 -86.5z" />
<glyph unicode="R" horiz-adv-x="632" d="M50 0l-6 39q53 9 64.5 20t11.5 42v491q0 31 -11.5 42t-64.5 20l6 39h278q107 0 159 -44t52 -124q0 -70 -41 -125.5t-115 -80.5v-5q10 -3 22 -22l141 -212q15 -22 29.5 -30t52.5 -11l-6 -39h-142l-198 304h-65v-227q0 -22 20 -26l55 -12l-4 -39h-238zM217 355h55 q79 0 119.5 34.5t40.5 126.5q0 124 -135 124h-60q-20 0 -20 -24v-261z" />
<glyph unicode="S" horiz-adv-x="523" d="M445 675q3 -24 3 -51q0 -52 -11 -118l-58 -7q-11 113 -27 126q-24 21 -94 21q-57 0 -90 -24q-37 -27 -37 -76q0 -28 11 -50t40 -41t45.5 -27.5t60.5 -26.5q11 -5 16 -7q39 -17 64 -31t53.5 -37.5t42.5 -56.5t14 -76q0 -92 -63.5 -147t-173.5 -55q-59 0 -117.5 14.5 t-85.5 28.5q-3 12 -3 44q0 58 12 122l57 3q8 -72 13.5 -93t14.5 -28q17 -12 55.5 -23.5t76.5 -11.5q53 0 84 24q38 29 38 83q0 76 -86 124q-22 11 -82 37q-32 13 -51 22.5t-44.5 27t-39.5 35t-24.5 45t-10.5 60.5q0 91 67.5 144t175.5 53q82 0 154 -27z" />
<glyph unicode="T" horiz-adv-x="577" d="M149 39q63 10 77 20.5t14 41.5v540q-129 -2 -141 -7q-6 -3 -10.5 -8.5t-12.5 -33t-17 -79.5l-51 4q-1 15 -1 43q0 59 9 133h545q9 -74 9 -133q0 -28 -1 -43l-51 -4q-9 52 -17 79.5t-12.5 33t-10.5 8.5q-12 5 -141 7v-564q0 -23 20 -26l77 -12l-4 -39h-275z" />
<glyph unicode="U" horiz-adv-x="736" d="M574 573q0 44 -16.5 59t-79.5 22l6 39h235l4 -39l-62 -12q-9 -2 -14 -6.5t-5.5 -8t-0.5 -11.5v-359q0 -123 -67 -194.5t-201 -71.5q-258 0 -258 258v343q0 31 -11.5 42t-64.5 20l6 39h245l4 -39l-62 -12q-20 -4 -20 -26v-352q0 -102 42 -154t135 -52q96 0 140.5 56 t44.5 135v324z" />
<glyph unicode="V" horiz-adv-x="655" d="M293 -9l-223 619q-8 21 -19 27.5t-48 15.5l7 40h238l4 -41l-71 -19q-7 -1 -7 -7q0 -3 4 -15l154 -453q9 -25 9 -34h10l156 445q14 39 14 51q0 19 -73 33l6 40h197l4 -42q-41 -8 -52 -18t-21 -38l-220 -604h-69z" />
<glyph unicode="W" horiz-adv-x="930" d="M591 -9l-108 364q-5 15 -5 26h-8q0 -11 -6 -26l-121 -364h-71l-209 619q-7 21 -18 27.5t-49 15.5l7 40h223l4 -41l-56 -19q-7 -1 -7 -7q0 -3 4 -15l139 -449q9 -32 9 -34h10l115 364l-35 118q-3 12 -6.5 18t-13 11t-14 6.5t-26.5 7.5l7 40h211l4 -41l-71 -19q-7 -1 -7 -7 q0 -3 4 -15l132 -449q9 -31 9 -34h10l140 441q11 37 11 49q0 22 -77 35l6 40h205l4 -42q-41 -9 -53 -19t-21 -37l-200 -604h-72z" />
<glyph unicode="X" horiz-adv-x="639" d="M21 0l-7 40q41 11 54.5 17t25.5 24l177 260l-179 269q-14 21 -24.5 28t-43.5 15l7 40h238l4 -41l-67 -18q-7 -1 -7 -8q0 -6 7 -15l114 -170q10 -15 10 -27h10l111 162q25 35 25 46t-13 17t-48 14l6 40h195l4 -42q-12 -3 -21 -5t-16.5 -5.5t-11.5 -5t-9 -7.5t-6.5 -7.5 t-7 -10t-7.5 -11.5l-165 -241l195 -290q11 -15 68 -26l-4 -42h-241l-6 40q16 3 21.5 4.5t17 5t16 8.5t4.5 12q0 9 -7 20l-112 166q-10 15 -10 30h-10l-138 -202q-8 -11 -8 -18q0 -8 10 -11l47 -14l-4 -41h-194z" />
<glyph unicode="Y" horiz-adv-x="598" d="M319 361l111 215q21 40 21 48q0 10 -12.5 15.5t-47.5 13.5l6 40h198l4 -42q-44 -9 -61 -19.5t-29 -34.5l-158 -310v-210q0 -23 20 -26l77 -12l-4 -39h-275l-6 39q63 10 77 20.5t14 41.5v178l-180 331q-13 22 -23.5 28.5t-45.5 14.5l7 40h235l4 -41l-67 -18q-7 -1 -7 -7 q0 -4 7 -16l115 -221q10 -17 10 -29h10z" />
<glyph unicode="Z" horiz-adv-x="607" d="M120 510l-63 7q-2 42 -2 72q0 55 9 104h509v-26l-382 -586q-13 -19 -22 -23l2 -6h150q106 0 130 7q16 5 56 154l55 -5q1 -17 1 -51q0 -71 -11 -157h-517v26l381 586q13 19 22 23l-2 7h-96q-137 0 -179 -6q-15 -1 -41 -126z" />
<glyph unicode="[" horiz-adv-x="284" d="M70 -164v930h161v-53h-91v-824h91v-53h-161z" />
<glyph unicode="\" horiz-adv-x="391" d="M15 772h69l292 -832h-70z" />
<glyph unicode="]" horiz-adv-x="284" d="M214 766v-930h-161v53h91v824h-91v53h161z" />
<glyph unicode="^" horiz-adv-x="501" d="M205 693h77l195 -369h-68l-166 313l-151 -313h-68z" />
<glyph unicode="_" horiz-adv-x="430" d="M-6 -73h442v-48h-442v48z" />
<glyph unicode="`" horiz-adv-x="202" d="M0 712v23l80 30l107 -179l-35 -25z" />
<glyph unicode="a" horiz-adv-x="512" d="M42 123q0 75 64 112t208 38v32q0 130 -94 130q-45 0 -57 -13q-11 -13 -24 -85l-54 6q-8 31 -8 76q0 22 1 32q59 37 167 37q84 0 121.5 -37t37.5 -122v-230q0 -26 12.5 -36.5t63.5 -20.5l-6 -32l-120 -13q-10 0 -21 19t-11 41q0 11 1 19l-8 3l-12 -18q-47 -70 -129 -70 q-56 0 -94 35t-38 97zM139 132q0 -36 19 -54.5t50 -18.5q39 0 83 34q23 18 23 38v98q-90 -2 -132.5 -24t-42.5 -73z" />
<glyph unicode="b" horiz-adv-x="544" d="M83 34v643q0 21 -16 30.5t-60 18.5l6 32q107 14 149 14l11 -10v-281q0 -55 -7 -78l8 -3l10 13q58 75 143 75q77 0 129 -64.5t52 -175.5q0 -115 -59.5 -186t-171.5 -71q-53 0 -108 14t-86 29zM173 84q43 -36 116 -36q58 0 81 27q18 20 29.5 63.5t11.5 96.5q0 89 -32 135 t-79 46t-100 -35q-17 -11 -22 -20t-5 -25v-252z" />
<glyph unicode="c" horiz-adv-x="468" d="M34 236q0 47 11.5 88.5t36.5 80t73.5 61t115.5 22.5q76 0 146 -28q1 -8 1 -28q0 -67 -12 -109l-56 -6q-16 101 -30 107q-21 9 -75 9t-79 -37q-35 -53 -35 -151q0 -97 42.5 -141.5t109.5 -44.5q70 0 134 44l28 -33q-81 -79 -195 -79q-105 0 -160.5 68.5t-55.5 176.5z" />
<glyph unicode="d" horiz-adv-x="569" d="M217 -9q-77 0 -129 64.5t-52 173.5q0 115 59 187t165 72q73 0 108 -26l7 3q-4 16 -4 44v168q0 21 -20.5 31.5t-73.5 17.5l6 32q107 14 167 14l11 -10v-664q0 -26 12.5 -36.5t63.5 -20.5l-6 -32l-120 -13q-10 0 -22 20t-12 41q0 11 1 19l-8 3l-10 -13q-58 -75 -143 -75z M242 63q50 0 102 34q27 18 27 46v239q-41 49 -128 49q-43 0 -68 -28q-42 -47 -42 -156q0 -90 31.5 -137t77.5 -47z" />
<glyph unicode="e" horiz-adv-x="478" d="M34 230q0 110 64 184t169 74q170 0 178 -209l-26 -19l-290 -16q0 -185 158 -185q69 0 135 34l21 -33q-33 -27 -86 -48t-111 -21q-101 0 -156.5 69t-55.5 170zM132 290l207 18q10 1 10 19q0 44 -23.5 76t-78.5 32q-57 0 -82.5 -37.5t-32.5 -107.5z" />
<glyph unicode="f" horiz-adv-x="350" d="M51 0l-6 39q49 10 59.5 20.5t10.5 36.5v309h-65l-4 43l49 12q13 3 17 11t5 24q1 22 3.5 40t8.5 55t19.5 65t33.5 56.5t52.5 44.5t74.5 16q54 0 114 -23q0 -76 -13 -121l-53 -5q-16 81 -24 86q-16 10 -42 10q-86 0 -86 -253h118l-8 -47l-110 -15v-332q0 -10 4 -14.5 t18 -6.5l75 -12l-4 -39h-247z" />
<glyph unicode="g" horiz-adv-x="554" d="M392 422l-13 31q69 35 134 37q10 -17 10 -50q0 -14 -3 -23q-34 8 -72 8q-36 0 -56 -3zM256 162q-81 0 -131.5 40t-50.5 119q0 82 55 124.5t139 42.5q81 0 131.5 -40.5t50.5 -118.5q0 -82 -55 -124.5t-139 -42.5zM265 211q93 0 93 110q0 118 -99 118q-93 0 -93 -110 q0 -118 99 -118zM74 61q0 40 29.5 76.5t67.5 60.5l15 -14q-39 -41 -39 -79q0 -15 8 -24t26 -12t31 -4t38 -1q36 0 56.5 -0.5t52.5 -3.5t50.5 -10t38 -18t28.5 -30t9 -44q0 -72 -72 -124.5t-194 -52.5q-164 0 -164 94q0 34 19.5 58.5t56.5 51.5q-57 18 -57 76zM160 -24 q-28 -31 -28 -71q0 -32 30 -53t95 -21q80 0 120 30t40 63q0 27 -33 33.5t-104.5 7.5t-119.5 11z" />
<glyph unicode="h" horiz-adv-x="596" d="M40 0l-6 39q49 10 59.5 20.5t10.5 36.5v581q0 21 -16 30.5t-60 18.5l6 32q107 14 149 14l11 -10v-281q0 -55 -7 -78l8 -3l12 14q62 74 155 74q67 0 104.5 -39t37.5 -107v-270q0 -7 1 -10t5.5 -6t13.5 -5l49 -12l-4 -39h-214l-6 39q45 9 55 20t10 37v216q0 48 -17.5 76 t-68.5 28q-54 0 -111 -39q-13 -9 -18 -17.5t-5 -30.5v-257q0 -7 1 -10t5.5 -6t13.5 -5l44 -12l-4 -39h-214z" />
<glyph unicode="i" horiz-adv-x="310" d="M47 0l-6 39q49 10 59.5 20.5t10.5 36.5v287q0 21 -16 30.5t-60 18.5l6 32q107 14 149 14l11 -10v-396q0 -7 1 -10t5.5 -6t13.5 -5l49 -12l-4 -39h-219zM145 597q-25 0 -41.5 15t-16.5 44q0 24 15.5 40t42.5 16q57 0 57 -56q0 -25 -15.5 -42t-41.5 -17z" />
<glyph unicode="j" horiz-adv-x="280" d="M100 68v315q0 21 -16 30.5t-60 18.5l6 32q107 14 149 14l11 -10v-430q0 -94 -56 -175.5t-108 -81.5q-36 0 -76 7q-3 12 -3 24q0 30 17 58q40 -10 62 -10q19 0 29 7q21 14 33 71.5t12 129.5zM134 597q-25 0 -41.5 15t-16.5 44q0 24 15.5 40t42.5 16q57 0 57 -56 q0 -25 -15.5 -42t-41.5 -17z" />
<glyph unicode="k" horiz-adv-x="569" d="M40 0l-6 39q49 10 59.5 20.5t10.5 36.5v581q0 21 -16 30.5t-60 18.5l6 32q107 14 149 14l11 -10v-531l172 161q8 9 8 17q0 15 -69 25l6 39h199l4 -39q-46 -7 -55 -16l-137 -131l145 -207q16 -20 35.5 -29t56.5 -12l-6 -39h-139l-155 226l-65 -62v-92q0 -7 1 -10t5.5 -6 t13.5 -5l44 -12l-4 -39h-214z" />
<glyph unicode="l" horiz-adv-x="303" d="M40 0l-6 39q49 10 59.5 20.5t10.5 36.5v581q0 21 -16 30.5t-60 18.5l6 32q107 14 149 14l11 -10v-690q0 -7 1 -10t5.5 -6t13.5 -5l49 -12l-4 -39h-219z" />
<glyph unicode="m" horiz-adv-x="859" d="M47 0l-6 39q49 10 59.5 20.5t10.5 36.5v288q0 26 -12.5 36.5t-63.5 20.5l6 32l129 13q7 0 14.5 -27.5t7.5 -49.5v-6l7 -3l10 13q25 32 63.5 53.5t81.5 21.5q96 0 122 -86l7 -1l11 14q57 73 143 73q61 0 95.5 -39t34.5 -107v-270q0 -7 1 -10t5.5 -6t13.5 -5l49 -12l-4 -39 h-214l-6 39q45 9 55 20t10 37v227q0 93 -75 93q-39 0 -98 -39q-12 -7 -16 -15.5t-4 -30.5v-259q0 -7 1 -10t5.5 -6t13.5 -5l44 -12l-4 -39h-209l-6 39q45 9 55 20t10 37v227q0 93 -75 93q-39 0 -98 -39q-12 -7 -16 -15.5t-4 -30.5v-259q0 -7 1 -10t5.5 -6t13.5 -5l44 -12 l-4 -39h-214z" />
<glyph unicode="n" horiz-adv-x="596" d="M47 0l-6 39q49 10 59.5 20.5t10.5 36.5v288q0 26 -12.5 36.5t-63.5 20.5l6 32l129 13q7 0 14.5 -28t7.5 -49v-6l8 -3l12 14q63 74 154 74q64 0 101 -38.5t37 -107.5v-270q0 -7 1 -10t5.5 -6t13.5 -5l49 -12l-4 -39h-214l-6 39q45 9 55 20t10 37v216q0 47 -17 75.5 t-65 28.5q-51 0 -109 -39q-9 -6 -12.5 -9.5t-6.5 -12.5t-3 -24v-258q0 -11 3.5 -15t16.5 -7l44 -12l-4 -39h-214z" />
<glyph unicode="o" horiz-adv-x="520" d="M32 232q0 117 61.5 186.5t172.5 69.5q106 0 164 -64.5t58 -177.5q0 -117 -61.5 -186t-172.5 -69q-106 0 -164 64t-58 177zM269 44q56 0 82 30q18 20 29 63.5t11 94.5q0 89 -36 146t-104 57q-56 0 -82 -30q-18 -20 -29 -63.5t-11 -94.5q0 -89 36 -146t104 -57z" />
<glyph unicode="p" horiz-adv-x="557" d="M96 -114v498q0 26 -12.5 36.5t-63.5 20.5l6 32q124 13 129 13q7 0 15.5 -26.5t8.5 -46.5v-10l8 -3l10 13q58 75 143 75q77 0 129 -64.5t52 -173.5q0 -115 -59 -187t-165 -72q-75 0 -108 26l-7 -3q4 -22 4 -44v-108q0 -7 1 -10.5t5.5 -6.5t13.5 -4l91 -12l-4 -39h-261 l-6 39q49 10 59.5 20.5t10.5 36.5zM186 97q41 -49 128 -49q43 0 68 28q42 47 42 156q0 90 -31.5 137t-77.5 47q-50 0 -102 -34q-27 -18 -27 -46v-239z" />
<glyph unicode="q" horiz-adv-x="543" d="M217 -9q-77 0 -129 64.5t-52 175.5q0 115 59.5 186t171.5 71q53 0 108 -14t86 -29v-583q0 -7 1 -10t5.5 -6t13.5 -5l49 -12l-4 -39h-260l-6 39q72 9 91.5 22t19.5 40v107q0 55 7 78l-8 3l-10 -13q-58 -75 -143 -75zM244 63q47 0 100 35q17 11 22 20t5 25v252 q-43 36 -116 36q-58 0 -81 -27q-18 -20 -29.5 -63.5t-11.5 -96.5q0 -89 32 -135t79 -46z" />
<glyph unicode="r" horiz-adv-x="432" d="M40 0l-6 39q53 9 65 20t12 37v288q0 26 -13.5 37.5t-69.5 19.5l6 32l136 13q7 0 15 -20t8 -44q0 -19 -4 -47l8 -3l13 29q18 40 54.5 63.5t77.5 23.5q34 0 66 -16q0 -82 -15 -164l-49 -5q-8 84 -18 98q-6 9 -20 9q-23 0 -48 -16.5t-40 -34.5q-17 -19 -17 -61v-226 q0 -7 1 -10.5t5.5 -6.5t13.5 -4l91 -12l-4 -39h-268z" />
<glyph unicode="s" horiz-adv-x="437" d="M57 15q-2 13 -2 41q0 52 9 99l52 4q7 -64 10.5 -78.5t10.5 -18.5q32 -18 84 -18q40 0 59 16q22 18 22 49q0 10 -3.5 19.5t-7.5 16.5t-13 14.5t-15.5 12t-20 11.5t-20.5 10.5t-24 10.5t-23 10q-56 25 -87 54.5t-31 79.5q0 62 51 101t133 39q62 0 122 -25q1 -8 1 -24 q0 -58 -13 -99l-46 -5q-7 78 -20 87q-18 13 -61 13q-49 0 -68 -16q-20 -16 -20 -44q0 -11 3 -20.5t12 -18t14.5 -14t21.5 -13.5t22.5 -11.5t27 -12t26.5 -11.5q60 -26 92.5 -55.5t32.5 -80.5q0 -63 -50.5 -105t-138.5 -42q-39 0 -81 8t-61 16z" />
<glyph unicode="t" horiz-adv-x="350" d="M85 137v275h-65l-4 43l49 12q19 5 25.5 22.5t23.5 111.5l61 6v-134h139l-8 -47l-131 -15v-244q0 -104 64 -104q36 0 76 30l21 -29q-54 -73 -132 -73q-56 0 -87.5 39t-31.5 107z" />
<glyph unicode="u" horiz-adv-x="577" d="M92 124v264q0 21 -16 30.5t-60 18.5l6 32q107 14 149 14l11 -10v-306q0 -104 79 -104q51 0 106 39q13 9 17 17.5t4 28.5v240q0 21 -16 30.5t-60 18.5l6 32q107 14 149 14l11 -10v-374q0 -26 12.5 -36.5t63.5 -20.5l-6 -32l-129 -14q-7 -1 -14.5 26.5t-7.5 47.5v6l-8 3 l-12 -14q-63 -74 -154 -74q-61 0 -96 32.5t-35 100.5z" />
<glyph unicode="v" horiz-adv-x="496" d="M211 -9l-158 407q-7 19 -14 24t-39 12l6 39h206l4 -39l-61 -15q-7 -1 -7 -8q0 -1 4 -13l90 -252q12 -35 12 -55h8l111 284q6 16 6 24q0 13 -14.5 20t-51.5 15l6 39h178l4 -39q-32 -8 -39 -10.5t-8 -6.5l-178 -426h-65z" />
<glyph unicode="w" horiz-adv-x="754" d="M207 -9l-145 407q-7 19 -14 24t-40 12l6 39h185l4 -39l-44 -14q-7 -1 -7 -7q0 -1 4 -13l92 -288q4 -10 4 -24v-4h8q0 11 8 30l91 227l-19 57q-6 18 -12.5 23.5t-31.5 12.5l6 39h164l4 -39l-44 -14q-7 -1 -7 -7q0 -1 4 -13l91 -288q4 -12 4 -24v-4h8q0 6 8 30l91 261 q6 16 6 24q0 3 -0.5 5.5t-2.5 5t-3.5 4t-5 3.5t-6 3.5t-7.5 3.5t-8.5 3t-9.5 3.5t-10 3.5l6 39h164l4 -39q-32 -8 -39 -10.5t-8 -6.5l-166 -426h-65l-82 252q-5 15 -5 27h-8q0 -11 -6 -26l-101 -253h-65z" />
<glyph unicode="x" horiz-adv-x="554" d="M16 0l-4 39q51 8 57 14l157 184l-143 171q-8 10 -20 14l-36 12l4 39h198l6 -39l-31 -7q-13 -4 -13 -12q0 -7 15 -25l79 -95l78 97q7 8 7 16q0 17 -45 26l6 39h186l4 -39q-46 -7 -55 -16l-143 -169l154 -184q8 -10 20 -14l36 -12l-4 -39h-198l-6 39l31 7q13 4 13 12 q0 7 -15 25l-92 110l-92 -112q-7 -8 -7 -16q0 -17 45 -26l-6 -39h-186z" />
<glyph unicode="y" horiz-adv-x="500" d="M29 -117q24 -3 64 -3q45 0 67 9q28 12 63 111l-166 398q-8 19 -14.5 24t-38.5 12l6 39h206l4 -39l-61 -15q-7 -1 -7 -8q0 -1 4 -13l102 -267q5 -14 5 -31h8l106 275q6 16 6 24q0 13 -14.5 20t-51.5 15l6 39h178l4 -39q-44 -10 -47 -17l-158 -392q-20 -50 -32 -76.5 t-33 -59.5t-44 -50.5t-57.5 -33.5t-80.5 -24q-26 26 -26 82q0 6 2 20z" />
<glyph unicode="z" horiz-adv-x="443" d="M28 0v26l253 366q16 20 22 23l-2 7h-114q-39 0 -66 -3q-7 -1 -12 -14.5t-19 -69.5l-46 5q-2 32 -2 54q0 42 6 79h366v-28l-250 -364q-13 -19 -22 -23l2 -7l49 1q107 2 127 7q18 4 40 99l52 -4q-2 -80 -11 -154h-373z" />
<glyph unicode="{" horiz-adv-x="323" d="M30 282v38q22 9 33 14.5t22.5 15.5t16.5 24q7 21 7 43q0 39 -5 117t-5 118q0 52 30 83t77 31q14 0 64 -4v-43q-47 -5 -69 -19.5t-22 -56.5v-253q0 -26 -7 -44q-11 -29 -52 -41l-11 -3v-2l11 -3q41 -10 52 -41q7 -15 7 -44v-253q0 -42 22 -56.5t69 -19.5v-43 q-50 -4 -64 -4q-47 0 -77 31t-30 83q0 39 5 117t5 118q0 22 -7 43q-7 20 -23.5 30.5t-48.5 23.5z" />
<glyph unicode="|" horiz-adv-x="255" d="M95 772h65v-982h-65v982z" />
<glyph unicode="}" horiz-adv-x="323" d="M293 320v-38q-22 -9 -33 -14.5t-22.5 -15.5t-16.5 -24q-7 -21 -7 -43q0 -40 5 -118t5 -117q0 -52 -30 -83t-77 -31q-14 0 -64 4v43q47 5 69 19.5t22 56.5v253q0 29 7 44q11 31 52 41l11 3v2l-11 3q-41 12 -52 41q-7 17 -7 44v253q0 42 -22 56.5t-69 19.5v43q50 4 64 4 q47 0 77 -31t30 -83q0 -40 -5 -118t-5 -117q0 -22 7 -43q7 -20 23.5 -30.5t48.5 -23.5z" />
<glyph unicode="~" horiz-adv-x="485" d="M422 324l35 -24q-15 -23 -23.5 -35.5t-23 -30.5t-30 -26t-31.5 -8q-18 0 -44 8q-10 3 -61 22t-61 22q-24 8 -42 8q-32 0 -76 -49l-35 24q33 56 56.5 78t51.5 22q20 0 48 -9q5 -1 112 -41q28 -10 48 -10q15 0 29 7.5t22 15.5t25 26z" />
<glyph unicode="&#xa1;" horiz-adv-x="226" d="M128 492q25 0 41.5 -14t16.5 -41q0 -23 -15.5 -38t-42.5 -15q-57 0 -57 53q0 23 15.5 39t41.5 16zM59 -220l-12 19l52 507l50 -2l13 -494z" />
<glyph unicode="&#xa2;" horiz-adv-x="424" d="M195 668h57v-122q68 0 123 -23q1 -6 1 -23q0 -56 -10 -89l-43 -5q-10 54 -14 68.5t-10 16.5q-14 4 -47 6v-300h6q62 0 117 37l26 -30q-65 -58 -149 -65v-139h-57v141q-79 12 -120 66t-41 133q0 72 37.5 128.5t123.5 72.5v127zM124 347q0 -101 71 -135v281q-20 -4 -34 -21 q-37 -45 -37 -125z" />
<glyph unicode="&#xa3;" horiz-adv-x="521" d="M16 314v53h74q-5 32 -5 62q0 133 70.5 203t185.5 70q54 0 122 -25q1 -8 1 -24q0 -58 -13 -99l-46 -5q-6 75 -17 84q-16 16 -65 16q-72 0 -99.5 -48t-27.5 -162q0 -36 3 -72h193v-53h-190q1 -12 1 -34q0 -112 -55 -179l3 -5q29 20 71 20q36 0 99 -18t80 -18q6 0 12 1t12 4 t9.5 4.5t10.5 7t9 7t10.5 9t9.5 8.5l35 -23q-14 -26 -21.5 -38.5t-24 -32t-37.5 -28t-48 -8.5q-33 0 -99.5 21.5t-112.5 21.5q-24 0 -45.5 -7t-32.5 -13.5t-34 -23.5l-25 33q36 40 55 75t22.5 55t3.5 48q0 43 -11 113h-83z" />
<glyph unicode="&#xa4;" horiz-adv-x="603" d="M296 138q-68 0 -118 25l-97 -97l-46 46l91 91q-42 49 -42 132q0 77 39 130l-87 88l46 45l88 -89q56 36 138 36q78 0 128 -32l85 85l47 -46l-84 -83q36 -48 36 -122q0 -87 -47 -140l95 -96l-46 -45l-101 100q-53 -28 -125 -28zM293 492q-54 0 -81 -27q-31 -35 -31 -117 q0 -69 33.5 -113t96.5 -44q54 0 81 27q31 35 31 117q0 69 -33.5 113t-96.5 44z" />
<glyph unicode="&#xa5;" horiz-adv-x="594" d="M370 349h-145l-142 261q-13 22 -23.5 28.5t-45.5 14.5l7 40h235l4 -41l-67 -18q-7 -1 -7 -7q0 -4 7 -16l104 -201q10 -17 10 -29h10l101 195q21 40 21 48q0 10 -12.5 15.5t-47.5 13.5l6 40h198l4 -42q-44 -9 -61 -19.5t-29 -34.5zM252 215l97 2v-140q0 -23 20 -26l77 -12 l-4 -39h-275l-6 39q63 10 77 20.5t14 41.5v114zM112 314v53h376v-53h-376zM112 192v53h376v-53h-376z" />
<glyph unicode="&#xa6;" horiz-adv-x="255" d="M95 772h65v-417h-65v417zM95 208h65v-418h-65v418z" />
<glyph unicode="&#xa7;" horiz-adv-x="437" d="M25 280q0 82 104 147q-69 52 -69 136q0 57 48.5 98t130.5 41q72 0 128 -24q2 -13 2 -41q0 -52 -9 -99l-52 -4q-5 93 -20 102q-21 13 -62 13t-62 -12q-25 -14 -25 -52q0 -41 21.5 -68t62.5 -49l61 -33q8 -5 32 -17t34.5 -18t28.5 -19.5t26.5 -25t15.5 -29.5t7 -38 q0 -80 -102 -146q62 -44 62 -115q0 -62 -53.5 -104t-145.5 -42q-39 0 -81 8t-61 16q-2 13 -2 41q0 73 9 99l52 4q7 -66 10 -79.5t11 -17.5q32 -18 84 -18q47 0 69 16q22 18 22 49q0 39 -25.5 64t-75.5 52l-32 18q-8 5 -32 17t-34.5 18t-28.5 19.5t-26.5 25t-15.5 29.5t-7 38 zM215 207l67 -37q67 51 67 91q0 14 -5 25t-19.5 22t-22.5 16.5t-32.5 18.5t-31.5 17l-67 38q-67 -52 -67 -91q0 -11 5 -21.5t11 -18t19.5 -17t21.5 -14t27 -15t27 -14.5z" />
<glyph unicode="&#xa8;" horiz-adv-x="308" d="M250 600q-52 0 -52 56q0 22 14.5 38t37.5 16q53 0 53 -54q0 -23 -15 -39.5t-38 -16.5zM57 600q-52 0 -52 56q0 22 14.5 38t37.5 16q53 0 53 -54q0 -23 -15 -39.5t-38 -16.5z" />
<glyph unicode="&#xa9;" horiz-adv-x="841" d="M418 -9q-178 0 -275.5 93.5t-97.5 253.5q0 165 103 264.5t285 99.5q178 0 275.5 -91.5t97.5 -246.5q0 -170 -103 -271.5t-285 -101.5zM434 44q74 0 129 25t86 69t45.5 96t14.5 113q0 133 -75.5 217.5t-216.5 84.5q-74 0 -129 -24.5t-86 -67.5t-45.5 -93.5t-14.5 -108.5 q0 -138 75.5 -224.5t216.5 -86.5zM450 578q68 0 147 -51v-22q0 -57 -9 -95l-68 -6q-11 94 -15 99l-2 2q-15 20 -60 20q-65 0 -97.5 -48t-32.5 -129q0 -89 44.5 -135t101.5 -46q18 0 35 4.5t19 10.5q10 10 18 83l59 -4q10 -32 10 -78q0 -22 -1 -30q-16 -14 -62 -26.5 t-75 -12.5q-132 0 -189 64.5t-57 169.5q0 41 13 80t39.5 73.5t73.5 55.5t108 21z" />
<glyph unicode="&#xaa;" horiz-adv-x="378" d="M117 586l-50 4q-7 24 -7 56q0 18 1 29q43 27 122 27q62 0 89.5 -26t27.5 -88v-166q0 -18 9 -25.5t46 -14.5l-4 -30l-88 -9q-7 0 -15 14.5t-8 30.5v14l-5 2l-9 -13q-35 -53 -95 -53q-41 0 -68.5 25.5t-27.5 72.5q0 55 44 83t144 29v21q0 88 -57 88q-28 0 -35 -9 q-7 -12 -14 -62zM223 443v67q-55 -2 -80.5 -17t-25.5 -49q0 -49 41 -49q24 0 51 22q14 13 14 26zM29 227v53h330v-53h-330z" />
<glyph unicode="&#xab;" horiz-adv-x="460" d="M244 414l-105 -162l105 -174l-21 -16l-163 182v16l163 170zM420 414l-105 -162l105 -174l-21 -16l-163 182v16l163 170z" />
<glyph unicode="&#xac;" horiz-adv-x="516" d="M471 164h-57v171h-369v53h426v-224z" />
<glyph unicode="&#xad;" horiz-adv-x="295" d="M46 277l218 14l-16 -62l-214 -26z" />
<glyph unicode="&#xae;" horiz-adv-x="841" d="M418 -9q-178 0 -275.5 93.5t-97.5 253.5q0 165 103 264.5t285 99.5q178 0 275.5 -91.5t97.5 -246.5q0 -170 -103 -271.5t-285 -101.5zM434 44q74 0 129 25t86 69t45.5 96t14.5 113q0 133 -75.5 217.5t-216.5 84.5q-74 0 -129 -24.5t-86 -67.5t-45.5 -93.5t-14.5 -108.5 q0 -138 75.5 -224.5t216.5 -86.5zM253 124l-4 37q23 6 31 13t8 24v301q0 18 -6.5 24.5t-34.5 12.5l4 36h193q146 0 146 -105q0 -37 -27.5 -75t-75.5 -57v-4q6 -1 16 -14l80 -130q13 -21 43 -26l-4 -37h-99l-110 190h-38v-130q0 -13 13 -16l35 -7l-2 -37h-168zM412 526h-25 q-12 0 -12 -13v-151h22q49 0 74 20t25 72q0 72 -84 72z" />
<glyph unicode="&#xaf;" horiz-adv-x="378" d="M22 642v60h249v-60h-249z" />
<glyph unicode="&#xb0;" horiz-adv-x="365" d="M178 435q-63 0 -98 34.5t-35 95.5q0 63 37 100t103 37q64 0 99 -34.5t35 -95.5q0 -62 -37.5 -99.5t-103.5 -37.5zM178 486q40 0 62 23.5t22 62.5q0 37 -20 58t-57 21q-39 0 -61 -23.5t-22 -62.5q0 -37 20 -58t56 -21z" />
<glyph unicode="&#xb1;" horiz-adv-x="466" d="M45 306v53h163v167h50v-167h163v-53h-163v-171h-50v171h-163zM45 -1v53h376v-53h-376z" />
<glyph unicode="&#xb2;" horiz-adv-x="330" d="M8 435v42q103 82 153.5 145t50.5 115q0 33 -21 55.5t-64 22.5q-36 0 -50 -16q-11 -11 -15 -68l-44 4q-6 29 -6 55q0 24 1 31q21 16 59 25.5t70 9.5q78 0 119.5 -33.5t41.5 -86.5q0 -59 -50 -115t-167 -139l1 -5l61 2q82 2 86 4q12 2 26 61l40 -2v-19q0 -54 -10 -88h-282z " />
<glyph unicode="&#xb3;" horiz-adv-x="313" d="M12 531l44 3q3 -56 13 -59q18 -6 51 -6q35 0 58.5 21.5t23.5 56.5q0 86 -86 86q-10 0 -34 -2l2 36q54 8 79 33.5t25 56.5q0 27 -18.5 43.5t-46.5 16.5q-32 0 -44 -8q-12 -9 -17 -69l-43 4q-6 32 -6 51q0 25 1 33q50 28 119 28q61 0 99 -23.5t38 -64.5q0 -32 -23 -59.5 t-54 -39.5l1 -5q40 -6 69 -34t29 -72q0 -50 -50.5 -89.5t-130.5 -39.5q-68 0 -110 13q7 64 11 89z" />
<glyph unicode="&#xb4;" horiz-adv-x="198" d="M199 735v-23l-152 -151l-35 25l107 179z" />
<glyph unicode="&#xb5;" horiz-adv-x="577" d="M223 -9q-42 0 -62 12l-7 -6l34 -180l-81 -40l-15 17v594q0 21 -16 30.5t-60 18.5l6 32q107 14 149 14l11 -10v-306q0 -104 79 -104q51 0 106 39q13 9 17 17.5t4 28.5v240q0 21 -16 30.5t-60 18.5l6 32q107 14 149 14l11 -10v-378q0 -26 12.5 -36.5t63.5 -20.5l-6 -32 l-129 -13q-7 -1 -14.5 27.5t-7.5 49.5v6l-8 3l-12 -14q-63 -74 -154 -74z" />
<glyph unicode="&#xb6;" horiz-adv-x="597" d="M348 34q-32 -6 -71 -6l-11 10v240q-96 3 -148.5 67t-52.5 158q0 86 51.5 138t150.5 52h288l4 -39l-62 -12q-20 -4 -20 -26v-488q0 -91 -47.5 -169t-96.5 -78q-43 0 -83 8q-3 12 -3 26q0 32 19 62q47 -11 67 -11q18 0 31 8q20 13 25.5 58.5t5.5 125.5v482h-47v-606z" />
<glyph unicode="&#xb7;" horiz-adv-x="240" d="M119 193q-28 0 -46 16.5t-18 49.5q0 26 18 45t46 19q29 0 47.5 -15.5t18.5 -48.5q0 -27 -18.5 -46.5t-47.5 -19.5z" />
<glyph unicode="&#xb8;" horiz-adv-x="485" d="M205 -89l38 129l49 -13l-32 -113zM210 -217l-4 31q95 13 95 58q0 16 -12 27t-34 11q-23 0 -41 -10l-9 11l48 37q22 7 45 7q40 0 62.5 -17t22.5 -47q0 -42 -46.5 -73t-126.5 -35z" />
<glyph unicode="&#xb9;" horiz-adv-x="267" d="M41 435l-4 31q38 6 51 13.5t13 21.5v258q0 31 -3 37t-16 6q-26 0 -44 -3l-5 31q75 26 133 26l8 -7v-362v-4.5t0.5 -3t2 -2.5t4 -1.5t6.5 -1.5l50 -8l-3 -31h-193z" />
<glyph unicode="&#xba;" horiz-adv-x="384" d="M188 338q-78 0 -120.5 47t-42.5 130q0 86 45 136.5t126 50.5q77 0 120 -47.5t43 -129.5q0 -85 -45 -136t-126 -51zM186 656q-37 0 -53 -21q-27 -32 -27 -109q0 -63 23.5 -103t68.5 -40q36 0 54 22q25 32 25 110q0 62 -23.5 101.5t-67.5 39.5zM27 227v53h330v-53h-330z " />
<glyph unicode="&#xbb;" horiz-adv-x="460" d="M145 252l-105 162l21 16l163 -170v-16l-163 -182l-21 16zM321 252l-105 162l21 16l163 -170v-16l-163 -182l-21 16z" />
<glyph unicode="&#xbc;" horiz-adv-x="845" d="M81 278l-4 31q38 6 51 13.5t13 21.5v258q0 31 -3 37t-16 6q-26 0 -44 -3l-5 31q75 26 133 26l8 -7v-362v-4.5t0.5 -3t2 -2.5t4 -1.5t6.5 -1.5l50 -8l-3 -31h-193zM611 693h65l-446 -693h-66zM592 0l-4 31q38 6 50.5 13t12.5 22v43h-191l-15 46l202 258q46 8 70 8l7 -6 v-255l67 -1l-6 -50h-61v-57q0 -11 13 -13l37 -8l-2 -31h-180zM504 167l2 -4l145 -3v170q0 13 2 19l-4 2l-134 -170q-2 -3 -6 -8t-5 -6z" />
<glyph unicode="&#xbd;" horiz-adv-x="900" d="M81 278l-4 31q38 6 51 13.5t13 21.5v258q0 31 -3 37t-16 6q-26 0 -44 -3l-5 31q75 26 133 26l8 -7v-362v-4.5t0.5 -3t2 -2.5t4 -1.5t6.5 -1.5l50 -8l-3 -31h-193zM611 693h65l-446 -693h-66zM538 0v42q103 82 153.5 145t50.5 115q0 33 -21 55.5t-64 22.5q-36 0 -50 -16 q-11 -11 -15 -68l-44 4q-6 28 -6 55q0 24 1 31q21 16 59 25.5t70 9.5q78 0 119.5 -33.5t41.5 -86.5q0 -59 -50 -115t-167 -139l1 -5l61 2q82 2 86 4q12 2 26 61l40 -2v-19q0 -54 -10 -88h-282z" />
<glyph unicode="&#xbe;" horiz-adv-x="845" d="M52 374l44 3q3 -56 13 -59q18 -6 51 -6q35 0 58.5 21.5t23.5 56.5q0 86 -86 86q-10 0 -34 -2l2 36q54 8 79 33.5t25 56.5q0 27 -18.5 43.5t-46.5 16.5q-32 0 -44 -8q-12 -9 -17 -69l-43 4q-6 32 -6 51q0 25 1 33q50 28 119 28q61 0 99 -23.5t38 -64.5q0 -32 -23 -59.5 t-54 -39.5l1 -5q40 -6 69 -34t29 -72q0 -50 -50.5 -89.5t-130.5 -39.5q-68 0 -110 13q7 64 11 89zM611 693h65l-446 -693h-66zM592 0l-4 31q38 6 50.5 13t12.5 22v43h-191l-15 46l202 258q46 8 70 8l7 -6v-255l67 -1l-6 -50h-61v-57q0 -11 13 -13l37 -8l-2 -31h-180z M504 167l2 -4l145 -3v170q0 13 2 19l-4 2l-134 -170q-2 -3 -6 -8t-5 -6z" />
<glyph unicode="&#xbf;" horiz-adv-x="424" d="M244 492q25 0 41.5 -14.5t16.5 -39.5t-15.5 -39.5t-43.5 -14.5q-56 0 -56 51q0 25 15.5 41t41.5 16zM225 279l47 14q46 -64 46 -106q0 -28 -21.5 -53t-52 -45t-60.5 -41t-51.5 -51t-21.5 -66q0 -49 35.5 -73t83.5 -24q46 0 76 16q8 4 12 19t9 70l54 -6q8 -31 8 -78 q0 -22 -1 -32q-29 -17 -79 -29.5t-97 -12.5q-82 0 -135 40.5t-53 115.5q0 39 15.5 72t39 54t51 42t51 36.5t39 35.5t15.5 42q0 20 -10 60z" />
<glyph unicode="&#xc0;" horiz-adv-x="670" d="M14 0l-7 40q38 10 46.5 16t16.5 27l224 619h83l229 -635q5 -15 59 -25l-4 -42h-233l-6 40q70 14 70 33q0 8 -4 21l-44 130h-259l-51 -142q-4 -12 -4 -15q0 -6 6 -7l71 -19l-4 -41h-189zM204 277h223l-98 281q-7 21 -7 29h-10zM178 842l-8 21l60 51l174 -129l-25 -36z" />
<glyph unicode="&#xc1;" horiz-adv-x="670" d="M14 0l-7 40q38 10 46.5 16t16.5 27l224 619h83l229 -635q5 -15 59 -25l-4 -42h-233l-6 40q70 14 70 33q0 8 -4 21l-44 130h-259l-51 -142q-4 -12 -4 -15q0 -6 6 -7l71 -19l-4 -41h-189zM204 277h223l-98 281q-7 21 -7 29h-10zM504 863l-8 -21l-201 -93l-25 36l174 129z " />
<glyph unicode="&#xc2;" horiz-adv-x="670" d="M14 0l-7 40q38 10 46.5 16t16.5 27l224 619h83l229 -635q5 -15 59 -25l-4 -42h-233l-6 40q70 14 70 33q0 8 -4 21l-44 130h-259l-51 -142q-4 -12 -4 -15q0 -6 6 -7l71 -19l-4 -41h-189zM204 277h223l-98 281q-7 21 -7 29h-10zM476 749l-139 91l-139 -91l-25 26l136 139 h56l136 -139z" />
<glyph unicode="&#xc3;" horiz-adv-x="670" d="M14 0l-7 40q38 10 46.5 16t16.5 27l224 619h83l229 -635q5 -15 59 -25l-4 -42h-233l-6 40q70 14 70 33q0 8 -4 21l-44 130h-259l-51 -142q-4 -12 -4 -15q0 -6 6 -7l71 -19l-4 -41h-189zM204 277h223l-98 281q-7 21 -7 29h-10zM493 891l25 -12q-21 -46 -42.5 -73.5 t-49.5 -27.5q-17 0 -83.5 13.5t-90.5 13.5q-38 0 -72 -34l-23 16q32 53 55 74.5t48 21.5q21 0 85.5 -13.5t84.5 -13.5q30 0 63 35z" />
<glyph unicode="&#xc4;" horiz-adv-x="670" d="M14 0l-7 40q38 10 46.5 16t16.5 27l224 619h83l229 -635q5 -15 59 -25l-4 -42h-233l-6 40q70 14 70 33q0 8 -4 21l-44 130h-259l-51 -142q-4 -12 -4 -15q0 -6 6 -7l71 -19l-4 -41h-189zM204 277h223l-98 281q-7 21 -7 29h-10zM433 775q-52 0 -52 56q0 22 14.5 38t37.5 16 q53 0 53 -54q0 -23 -15 -39.5t-38 -16.5zM240 775q-52 0 -52 56q0 22 14.5 38t37.5 16q53 0 53 -54q0 -23 -15 -39.5t-38 -16.5z" />
<glyph unicode="&#xc5;" horiz-adv-x="670" d="M14 0l-7 40q38 10 46.5 16t16.5 27l224 619h83l229 -635q5 -15 59 -25l-4 -42h-233l-6 40q70 14 70 33q0 8 -4 21l-44 130h-259l-51 -142q-4 -12 -4 -15q0 -6 6 -7l71 -19l-4 -41h-189zM204 277h223l-98 281q-7 21 -7 29h-10zM339 739q-41 0 -68.5 23.5t-27.5 64.5 t29.5 66.5t71.5 25.5q40 0 68 -24t28 -63q0 -41 -29.5 -67t-71.5 -26zM339 782q22 0 36.5 14t14.5 36q0 20 -13 32t-33 12q-52 0 -52 -49q0 -21 13 -33t34 -12z" />
<glyph unicode="&#xc6;" horiz-adv-x="880" d="M328 693h497q6 -37 6 -79q0 -31 -2 -77l-57 -7q-14 69 -20 86.5t-14 18.5q-24 3 -61 4l-152 3v-269h151q13 0 32 71l31 -3q0 -28 0.5 -49.5t1 -34t2 -30t2 -23.5t4 -29t4.5 -32l-36 -6q-16 57 -21.5 70t-12.5 13h-158v-269l85 1q130 2 147 14q10 7 42 117l55 -4 q1 -13 1 -39q0 -66 -11 -140h-486l-6 39q53 9 64.5 20t11.5 42v219h-153l-134 -233q-9 -16 -9 -19q0 -6 11 -9l68 -18l-4 -41h-186l-7 40q34 9 42 14.5t21 28.5l300 523q6 10 6 17q0 20 -61 31zM422 587l-117 -214h123v214h-6z" />
<glyph unicode="&#xc7;" horiz-adv-x="620" d="M35 331q0 54 10.5 104t36.5 99.5t65 86t100 59t138 22.5q55 0 116 -10t80 -18q6 -37 6 -94q0 -24 -2 -74l-57 -8q-22 116 -39 128q-9 7 -46.5 15t-74.5 8q-110 0 -166 -81t-56 -213q0 -156 71 -232t176 -76q38 0 71.5 9t42.5 16q12 9 34 128l55 -2q0 -76 -11 -162 q-31 -17 -93.5 -31t-127.5 -14q-163 0 -246 96t-83 244zM291 -89l38 129l49 -13l-32 -113zM296 -217l-4 31q44 5 69.5 20.5t25.5 37.5q0 16 -12 27t-34 11q-23 0 -41 -10l-9 11l48 37q22 7 45 7q40 0 62.5 -17t22.5 -47q0 -42 -46.5 -73t-126.5 -35z" />
<glyph unicode="&#xc8;" horiz-adv-x="592" d="M50 0l-6 39q53 9 64.5 20t11.5 42v491q0 31 -11.5 42t-64.5 20l6 39h466q6 -37 6 -79q0 -31 -2 -77l-57 -7q-14 69 -20 86.5t-14 18.5q-24 3 -61 4l-151 3v-269h150q13 0 32 71l31 -3q0 -28 0.5 -49.5t1 -34t2 -30t2 -23.5t4 -29t4.5 -32l-36 -6q-16 57 -21.5 70 t-12.5 13h-157v-269l89 1q31 0 55.5 1.5t38 2.5t24 3t14 3t6.5 2.5t4 1.5q17 5 44 118l55 -5q1 -17 1 -51q0 -53 -11 -128h-487zM132 842l-8 21l60 51l174 -129l-25 -36z" />
<glyph unicode="&#xc9;" horiz-adv-x="592" d="M50 0l-6 39q53 9 64.5 20t11.5 42v491q0 31 -11.5 42t-64.5 20l6 39h466q6 -37 6 -79q0 -31 -2 -77l-57 -7q-14 69 -20 86.5t-14 18.5q-24 3 -61 4l-151 3v-269h150q13 0 32 71l31 -3q0 -28 0.5 -49.5t1 -34t2 -30t2 -23.5t4 -29t4.5 -32l-36 -6q-16 57 -21.5 70 t-12.5 13h-157v-269l89 1q31 0 55.5 1.5t38 2.5t24 3t14 3t6.5 2.5t4 1.5q17 5 44 118l55 -5q1 -17 1 -51q0 -53 -11 -128h-487zM438 863l-8 -21l-201 -93l-25 36l174 129z" />
<glyph unicode="&#xca;" horiz-adv-x="592" d="M50 0l-6 39q53 9 64.5 20t11.5 42v491q0 31 -11.5 42t-64.5 20l6 39h466q6 -37 6 -79q0 -31 -2 -77l-57 -7q-14 69 -20 86.5t-14 18.5q-24 3 -61 4l-151 3v-269h150q13 0 32 71l31 -3q0 -28 0.5 -49.5t1 -34t2 -30t2 -23.5t4 -29t4.5 -32l-36 -6q-16 57 -21.5 70 t-12.5 13h-157v-269l89 1q31 0 55.5 1.5t38 2.5t24 3t14 3t6.5 2.5t4 1.5q17 5 44 118l55 -5q1 -17 1 -51q0 -53 -11 -128h-487zM430 749l-139 91l-139 -91l-25 26l136 139h56l136 -139z" />
<glyph unicode="&#xcb;" horiz-adv-x="592" d="M50 0l-6 39q53 9 64.5 20t11.5 42v491q0 31 -11.5 42t-64.5 20l6 39h466q6 -37 6 -79q0 -31 -2 -77l-57 -7q-14 69 -20 86.5t-14 18.5q-24 3 -61 4l-151 3v-269h150q13 0 32 71l31 -3q0 -28 0.5 -49.5t1 -34t2 -30t2 -23.5t4 -29t4.5 -32l-36 -6q-16 57 -21.5 70 t-12.5 13h-157v-269l89 1q31 0 55.5 1.5t38 2.5t24 3t14 3t6.5 2.5t4 1.5q17 5 44 118l55 -5q1 -17 1 -51q0 -53 -11 -128h-487zM388 775q-52 0 -52 56q0 22 14.5 38t37.5 16q53 0 53 -54q0 -23 -15 -39.5t-38 -16.5zM195 775q-52 0 -52 56q0 22 14.5 38t37.5 16 q53 0 53 -54q0 -23 -15 -39.5t-38 -16.5z" />
<glyph unicode="&#xcc;" horiz-adv-x="337" d="M50 0l-6 39q53 9 64.5 20t11.5 42v491q0 31 -11.5 42t-64.5 20l6 39h245l4 -39l-62 -12q-20 -4 -20 -26v-539q0 -22 20 -26l62 -12l-4 -39h-245zM15 842l-8 21l60 51l174 -129l-25 -36z" />
<glyph unicode="&#xcd;" horiz-adv-x="337" d="M50 0l-6 39q53 9 64.5 20t11.5 42v491q0 31 -11.5 42t-64.5 20l6 39h245l4 -39l-62 -12q-20 -4 -20 -26v-539q0 -22 20 -26l62 -12l-4 -39h-245zM312 863l-8 -21l-201 -93l-25 36l174 129z" />
<glyph unicode="&#xce;" horiz-adv-x="337" d="M50 0l-6 39q53 9 64.5 20t11.5 42v491q0 31 -11.5 42t-64.5 20l6 39h245l4 -39l-62 -12q-20 -4 -20 -26v-539q0 -22 20 -26l62 -12l-4 -39h-245zM307 749l-139 91l-139 -91l-25 26l136 139h56l136 -139z" />
<glyph unicode="&#xcf;" horiz-adv-x="337" d="M50 0l-6 39q53 9 64.5 20t11.5 42v491q0 31 -11.5 42t-64.5 20l6 39h245l4 -39l-62 -12q-20 -4 -20 -26v-539q0 -22 20 -26l62 -12l-4 -39h-245zM264 775q-52 0 -52 56q0 22 14.5 38t37.5 16q53 0 53 -54q0 -23 -15 -39.5t-38 -16.5zM71 775q-52 0 -52 56q0 22 14.5 38 t37.5 16q53 0 53 -54q0 -23 -15 -39.5t-38 -16.5z" />
<glyph unicode="&#xd0;" horiz-adv-x="713" d="M27 338v60h93v194q0 31 -11.5 42t-64.5 20l6 39h313q86 0 149 -27.5t98 -75t51.5 -103t16.5 -119.5q0 -69 -18.5 -132t-57 -117t-106 -86.5t-155.5 -32.5h-291l-6 39q53 9 64.5 20t11.5 42v237h-93zM238 67q70 -14 106 -14q111 0 167 79t56 211q0 83 -21.5 144t-57 92.5 t-72.5 46t-76 14.5h-123v-242h167v-60h-167v-245q0 -22 21 -26z" />
<glyph unicode="&#xd1;" horiz-adv-x="775" d="M598 0l-16 189h8v383q0 45 -16.5 60t-79.5 22l6 39h235l4 -39l-62 -12q-20 -4 -20 -26v-616h-59zM595 0l-468 693h114l406 -598l-2 -94zM50 0l-6 39q53 9 64.5 20t11.5 42v491q0 31 -11.5 42t-64.5 20l6 39h136l10 -101h-9v-492q0 -25 9.5 -37t34.5 -15l70 -9l-4 -39 h-247zM550 891l25 -12q-21 -46 -42.5 -73.5t-49.5 -27.5q-17 0 -83.5 13.5t-90.5 13.5q-38 0 -72 -34l-23 16q32 53 55 74.5t48 21.5q21 0 85.5 -13.5t84.5 -13.5q30 0 63 35z" />
<glyph unicode="&#xd2;" horiz-adv-x="711" d="M35 338q0 165 87 264.5t241 99.5q149 0 231 -91.5t82 -246.5q0 -170 -87 -271.5t-241 -101.5q-149 0 -231 93.5t-82 253.5zM364 44q54 0 94.5 25t63 69t33 96t10.5 113q0 134 -56.5 218t-161.5 84q-54 0 -94.5 -24.5t-63 -67.5t-33 -93.5t-10.5 -108.5q0 -138 56 -224.5 t162 -86.5zM226 842l-8 21l60 51l174 -129l-25 -36z" />
<glyph unicode="&#xd3;" horiz-adv-x="711" d="M35 338q0 165 87 264.5t241 99.5q149 0 231 -91.5t82 -246.5q0 -170 -87 -271.5t-241 -101.5q-149 0 -231 93.5t-82 253.5zM364 44q54 0 94.5 25t63 69t33 96t10.5 113q0 134 -56.5 218t-161.5 84q-54 0 -94.5 -24.5t-63 -67.5t-33 -93.5t-10.5 -108.5q0 -138 56 -224.5 t162 -86.5zM497 863l-8 -21l-201 -93l-25 36l174 129z" />
<glyph unicode="&#xd4;" horiz-adv-x="711" d="M35 338q0 165 87 264.5t241 99.5q149 0 231 -91.5t82 -246.5q0 -170 -87 -271.5t-241 -101.5q-149 0 -231 93.5t-82 253.5zM364 44q54 0 94.5 25t63 69t33 96t10.5 113q0 134 -56.5 218t-161.5 84q-54 0 -94.5 -24.5t-63 -67.5t-33 -93.5t-10.5 -108.5q0 -138 56 -224.5 t162 -86.5zM494 749l-139 91l-139 -91l-25 26l136 139h56l136 -139z" />
<glyph unicode="&#xd5;" horiz-adv-x="711" d="M35 338q0 165 87 264.5t241 99.5q149 0 231 -91.5t82 -246.5q0 -170 -87 -271.5t-241 -101.5q-149 0 -231 93.5t-82 253.5zM364 44q54 0 94.5 25t63 69t33 96t10.5 113q0 134 -56.5 218t-161.5 84q-54 0 -94.5 -24.5t-63 -67.5t-33 -93.5t-10.5 -108.5q0 -138 56 -224.5 t162 -86.5zM515 891l25 -12q-21 -46 -42.5 -73.5t-49.5 -27.5q-17 0 -83.5 13.5t-90.5 13.5q-38 0 -72 -34l-23 16q32 53 55 74.5t48 21.5q21 0 85.5 -13.5t84.5 -13.5q30 0 63 35z" />
<glyph unicode="&#xd6;" horiz-adv-x="711" d="M35 338q0 165 87 264.5t241 99.5q149 0 231 -91.5t82 -246.5q0 -170 -87 -271.5t-241 -101.5q-149 0 -231 93.5t-82 253.5zM364 44q54 0 94.5 25t63 69t33 96t10.5 113q0 134 -56.5 218t-161.5 84q-54 0 -94.5 -24.5t-63 -67.5t-33 -93.5t-10.5 -108.5q0 -138 56 -224.5 t162 -86.5zM447 775q-52 0 -52 56q0 22 14.5 38t37.5 16q53 0 53 -54q0 -23 -15 -39.5t-38 -16.5zM254 775q-52 0 -52 56q0 22 14.5 38t37.5 16q53 0 53 -54q0 -23 -15 -39.5t-38 -16.5z" />
<glyph unicode="&#xd7;" d="M121 75l-36 36l139 139l-138 138l36 35l137 -137l138 137l37 -36l-139 -137l139 -140l-36 -35l-138 139z" />
<glyph unicode="&#xd8;" horiz-adv-x="709" d="M348 -9q-66 0 -126 21l-48 -92l-54 20l50 98q-135 89 -135 300q0 165 87 264.5t241 99.5q75 0 135 -26l50 96l55 -20l-54 -104q127 -90 127 -294q0 -165 -87 -264t-241 -99zM146 355q0 -152 65 -237l253 492q-48 39 -117 39q-54 0 -94.5 -24.5t-63 -67t-33 -93 t-10.5 -109.5zM364 44q54 0 94.5 24.5t63 67t33 92.5t10.5 109q0 142 -59 228l-251 -489q48 -32 109 -32z" />
<glyph unicode="&#xd9;" horiz-adv-x="736" d="M574 573q0 44 -16.5 59t-79.5 22l6 39h235l4 -39l-62 -12q-9 -2 -14 -6.5t-5.5 -8t-0.5 -11.5v-359q0 -123 -67 -194.5t-201 -71.5q-258 0 -258 258v343q0 31 -11.5 42t-64.5 20l6 39h245l4 -39l-62 -12q-20 -4 -20 -26v-352q0 -102 42 -154t135 -52q96 0 140.5 56 t44.5 135v324zM218 842l-8 21l60 51l174 -129l-25 -36z" />
<glyph unicode="&#xda;" horiz-adv-x="736" d="M574 573q0 44 -16.5 59t-79.5 22l6 39h235l4 -39l-62 -12q-9 -2 -14 -6.5t-5.5 -8t-0.5 -11.5v-359q0 -123 -67 -194.5t-201 -71.5q-258 0 -258 258v343q0 31 -11.5 42t-64.5 20l6 39h245l4 -39l-62 -12q-20 -4 -20 -26v-352q0 -102 42 -154t135 -52q96 0 140.5 56 t44.5 135v324zM555 863l-8 -21l-201 -93l-25 36l174 129z" />
<glyph unicode="&#xdb;" horiz-adv-x="736" d="M574 573q0 44 -16.5 59t-79.5 22l6 39h235l4 -39l-62 -12q-9 -2 -14 -6.5t-5.5 -8t-0.5 -11.5v-359q0 -123 -67 -194.5t-201 -71.5q-258 0 -258 258v343q0 31 -11.5 42t-64.5 20l6 39h245l4 -39l-62 -12q-20 -4 -20 -26v-352q0 -102 42 -154t135 -52q96 0 140.5 56 t44.5 135v324zM516 749l-139 91l-139 -91l-25 26l136 139h56l136 -139z" />
<glyph unicode="&#xdc;" horiz-adv-x="736" d="M574 573q0 44 -16.5 59t-79.5 22l6 39h235l4 -39l-62 -12q-9 -2 -14 -6.5t-5.5 -8t-0.5 -11.5v-359q0 -123 -67 -194.5t-201 -71.5q-258 0 -258 258v343q0 31 -11.5 42t-64.5 20l6 39h245l4 -39l-62 -12q-20 -4 -20 -26v-352q0 -102 42 -154t135 -52q96 0 140.5 56 t44.5 135v324zM477 775q-52 0 -52 56q0 22 14.5 38t37.5 16q53 0 53 -54q0 -23 -15 -39.5t-38 -16.5zM284 775q-52 0 -52 56q0 22 14.5 38t37.5 16q53 0 53 -54q0 -23 -15 -39.5t-38 -16.5z" />
<glyph unicode="&#xdd;" horiz-adv-x="598" d="M319 361l111 215q21 40 21 48q0 10 -12.5 15.5t-47.5 13.5l6 40h198l4 -42q-44 -9 -61 -19.5t-29 -34.5l-158 -310v-210q0 -23 20 -26l77 -12l-4 -39h-275l-6 39q63 10 77 20.5t14 41.5v178l-180 331q-13 22 -23.5 28.5t-45.5 14.5l7 40h235l4 -41l-67 -18q-7 -1 -7 -7 q0 -4 7 -16l115 -221q10 -17 10 -29h10zM486 863l-8 -21l-201 -93l-25 36l174 129z" />
<glyph unicode="&#xde;" horiz-adv-x="567" d="M120 101v491q0 31 -11.5 42t-64.5 20l6 39h245l4 -39l-62 -12q-20 -4 -20 -26v-59h107q112 0 168.5 -49t56.5 -131q0 -92 -75 -153.5t-215 -61.5h-42v-85q0 -24 20 -26l87 -12l-4 -39h-270l-6 39q53 9 64.5 20t11.5 42zM294 504h-57q-20 0 -20 -22v-267h24q34 0 65 6 t62.5 21t50.5 46.5t19 75.5q0 41 -14 70.5t-37 43.5t-45.5 20t-47.5 6z" />
<glyph unicode="&#xdf;" horiz-adv-x="677" d="M362 772q72 0 125 -44t53 -120q0 -40 -23.5 -74t-51.5 -54t-51.5 -48.5t-23.5 -58.5q0 -9 3 -18t6.5 -15t12.5 -13.5t14 -12t18.5 -11.5t19 -9.5l22 -10t21.5 -10.5q28 -13 45.5 -23t37 -26.5t29 -38t9.5 -48.5q0 -62 -50.5 -104t-134.5 -42q-81 0 -132 24q-2 10 -2 32 q0 58 9 79l48 3q7 -47 10.5 -58t9.5 -13q34 -14 74 -14q42 0 60 16q22 18 22 50q0 16 -6.5 29.5t-22.5 25t-27.5 18t-37.5 18t-35 16.5q-49 24 -76 54t-27 80q0 30 14.5 56.5t35 47t41 40.5t35 46.5t14.5 55.5q0 55 -31 88.5t-78 33.5q-68 0 -102 -67.5t-34 -185.5v-466 h-154l-6 39q49 10 59.5 20.5t10.5 36.5v309h-65l-4 43l49 12q13 3 17 11t5 24q1 18 3 32t8.5 45t16 54.5t28.5 52.5t43.5 48t62 32t83.5 13z" />
<glyph unicode="&#xe0;" horiz-adv-x="512" d="M42 123q0 75 64 112t208 38v32q0 130 -94 130q-45 0 -57 -13q-11 -13 -24 -85l-54 6q-8 31 -8 76q0 22 1 32q59 37 167 37q84 0 121.5 -37t37.5 -122v-230q0 -26 12.5 -36.5t63.5 -20.5l-6 -32l-120 -13q-10 0 -21 19t-11 41q0 11 1 19l-8 3l-12 -18q-47 -70 -129 -70 q-56 0 -94 35t-38 97zM139 132q0 -36 19 -54.5t50 -18.5q39 0 83 34q23 18 23 38v98q-90 -2 -132.5 -24t-42.5 -73zM125 712v23l80 30l107 -179l-35 -25z" />
<glyph unicode="&#xe1;" horiz-adv-x="512" d="M42 123q0 75 64 112t208 38v32q0 130 -94 130q-45 0 -57 -13q-11 -13 -24 -85l-54 6q-8 31 -8 76q0 22 1 32q59 37 167 37q84 0 121.5 -37t37.5 -122v-230q0 -26 12.5 -36.5t63.5 -20.5l-6 -32l-120 -13q-10 0 -21 19t-11 41q0 11 1 19l-8 3l-12 -18q-47 -70 -129 -70 q-56 0 -94 35t-38 97zM139 132q0 -36 19 -54.5t50 -18.5q39 0 83 34q23 18 23 38v98q-90 -2 -132.5 -24t-42.5 -73zM376 735v-23l-152 -151l-35 25l107 179z" />
<glyph unicode="&#xe2;" horiz-adv-x="512" d="M42 123q0 75 64 112t208 38v32q0 130 -94 130q-45 0 -57 -13q-11 -13 -24 -85l-54 6q-8 31 -8 76q0 22 1 32q59 37 167 37q84 0 121.5 -37t37.5 -122v-230q0 -26 12.5 -36.5t63.5 -20.5l-6 -32l-120 -13q-10 0 -21 19t-11 41q0 11 1 19l-8 3l-12 -18q-47 -70 -129 -70 q-56 0 -94 35t-38 97zM139 132q0 -36 19 -54.5t50 -18.5q39 0 83 34q23 18 23 38v98q-90 -2 -132.5 -24t-42.5 -73zM273 755l118 -169l-35 -25l-115 118l-114 -118l-35 25l118 169h63z" />
<glyph unicode="&#xe3;" horiz-adv-x="512" d="M42 123q0 75 64 112t208 38v32q0 130 -94 130q-45 0 -57 -13q-11 -13 -24 -85l-54 6q-8 31 -8 76q0 22 1 32q59 37 167 37q84 0 121.5 -37t37.5 -122v-230q0 -26 12.5 -36.5t63.5 -20.5l-6 -32l-120 -13q-10 0 -21 19t-11 41q0 11 1 19l-8 3l-12 -18q-47 -70 -129 -70 q-56 0 -94 35t-38 97zM139 132q0 -36 19 -54.5t50 -18.5q39 0 83 34q23 18 23 38v98q-90 -2 -132.5 -24t-42.5 -73zM404 715l25 -13q-21 -49 -42.5 -78t-49.5 -29q-17 0 -83.5 21t-90.5 21q-38 0 -72 -42l-23 17q32 56 55 79t48 23q21 0 85.5 -21t84.5 -21q29 0 63 43z" />
<glyph unicode="&#xe4;" horiz-adv-x="512" d="M42 123q0 75 64 112t208 38v32q0 130 -94 130q-45 0 -57 -13q-11 -13 -24 -85l-54 6q-8 31 -8 76q0 22 1 32q59 37 167 37q84 0 121.5 -37t37.5 -122v-230q0 -26 12.5 -36.5t63.5 -20.5l-6 -32l-120 -13q-10 0 -21 19t-11 41q0 11 1 19l-8 3l-12 -18q-47 -70 -129 -70 q-56 0 -94 35t-38 97zM139 132q0 -36 19 -54.5t50 -18.5q39 0 83 34q23 18 23 38v98q-90 -2 -132.5 -24t-42.5 -73zM336 600q-52 0 -52 56q0 22 14.5 38t37.5 16q53 0 53 -54q0 -23 -15 -39.5t-38 -16.5zM143 600q-52 0 -52 56q0 22 14.5 38t37.5 16q53 0 53 -54 q0 -23 -15 -39.5t-38 -16.5z" />
<glyph unicode="&#xe5;" horiz-adv-x="512" d="M42 123q0 75 64 112t208 38v32q0 130 -94 130q-45 0 -57 -13q-11 -13 -24 -85l-54 6q-8 31 -8 76q0 22 1 32q59 37 167 37q84 0 121.5 -37t37.5 -122v-230q0 -26 12.5 -36.5t63.5 -20.5l-6 -32l-120 -13q-10 0 -21 19t-11 41q0 11 1 19l-8 3l-12 -18q-47 -70 -129 -70 q-56 0 -94 35t-38 97zM139 132q0 -36 19 -54.5t50 -18.5q39 0 83 34q23 18 23 38v98q-90 -2 -132.5 -24t-42.5 -73zM241 564q-46 0 -71 24.5t-25 68.5q0 46 26.5 72t74.5 26q46 0 71 -24.5t25 -67.5q0 -45 -26.5 -72t-74.5 -27zM241 607q24 0 37.5 15.5t13.5 40.5 q0 49 -46 49q-24 0 -38 -15t-14 -40q0 -50 47 -50z" />
<glyph unicode="&#xe6;" horiz-adv-x="763" d="M139 337l-54 6q-8 31 -8 76q0 22 1 32q59 37 167 37q112 0 143 -68q65 68 164 68q170 0 178 -209l-26 -19l-290 -16q0 -185 158 -185q69 0 135 34l21 -33q-33 -27 -86 -48t-111 -21q-127 0 -182 107h-6q-25 -46 -68.5 -76.5t-100.5 -30.5q-56 0 -94 35t-38 97 q0 74 63.5 112t208.5 47v23q0 130 -94 130q-45 0 -57 -13q-11 -13 -24 -85zM417 290l207 18q10 1 10 19q0 44 -23.5 76t-78.5 32q-57 0 -82.5 -37.5t-32.5 -107.5zM314 131v107q-92 -9 -133.5 -32.5t-41.5 -73.5q0 -35 19 -53.5t50 -18.5q41 0 83 33q23 18 23 38z" />
<glyph unicode="&#xe7;" horiz-adv-x="468" d="M34 236q0 47 11.5 88.5t36.5 80t73.5 61t115.5 22.5q76 0 146 -28q1 -8 1 -28q0 -67 -12 -109l-56 -6q-16 101 -30 107q-21 9 -75 9t-79 -37q-35 -53 -35 -151q0 -97 42.5 -141.5t109.5 -44.5q70 0 134 44l28 -33q-81 -79 -195 -79q-105 0 -160.5 68.5t-55.5 176.5z M196 -89l38 129l49 -13l-32 -113zM201 -217l-4 31q95 13 95 58q0 16 -12 27t-34 11q-23 0 -41 -10l-9 11l48 37q22 7 45 7q40 0 62.5 -17t22.5 -47q0 -42 -46.5 -73t-126.5 -35z" />
<glyph unicode="&#xe8;" horiz-adv-x="478" d="M34 230q0 110 64 184t169 74q170 0 178 -209l-26 -19l-290 -16q0 -185 158 -185q69 0 135 34l21 -33q-33 -27 -86 -48t-111 -21q-101 0 -156.5 69t-55.5 170zM132 290l207 18q10 1 10 19q0 44 -23.5 76t-78.5 32q-57 0 -82.5 -37.5t-32.5 -107.5zM104 712v23l80 30 l107 -179l-35 -25z" />
<glyph unicode="&#xe9;" horiz-adv-x="478" d="M34 230q0 110 64 184t169 74q170 0 178 -209l-26 -19l-290 -16q0 -185 158 -185q69 0 135 34l21 -33q-33 -27 -86 -48t-111 -21q-101 0 -156.5 69t-55.5 170zM132 290l207 18q10 1 10 19q0 44 -23.5 76t-78.5 32q-57 0 -82.5 -37.5t-32.5 -107.5zM395 735v-23l-152 -151 l-35 25l107 179z" />
<glyph unicode="&#xea;" horiz-adv-x="478" d="M34 230q0 110 64 184t169 74q170 0 178 -209l-26 -19l-290 -16q0 -185 158 -185q69 0 135 34l21 -33q-33 -27 -86 -48t-111 -21q-101 0 -156.5 69t-55.5 170zM132 290l207 18q10 1 10 19q0 44 -23.5 76t-78.5 32q-57 0 -82.5 -37.5t-32.5 -107.5zM277 755l118 -169 l-35 -25l-115 118l-114 -118l-35 25l118 169h63z" />
<glyph unicode="&#xeb;" horiz-adv-x="478" d="M34 230q0 110 64 184t169 74q170 0 178 -209l-26 -19l-290 -16q0 -185 158 -185q69 0 135 34l21 -33q-33 -27 -86 -48t-111 -21q-101 0 -156.5 69t-55.5 170zM132 290l207 18q10 1 10 19q0 44 -23.5 76t-78.5 32q-57 0 -82.5 -37.5t-32.5 -107.5zM348 600q-52 0 -52 56 q0 22 14.5 38t37.5 16q53 0 53 -54q0 -23 -15 -39.5t-38 -16.5zM155 600q-52 0 -52 56q0 22 14.5 38t37.5 16q53 0 53 -54q0 -23 -15 -39.5t-38 -16.5z" />
<glyph unicode="&#xec;" horiz-adv-x="310" d="M16 712v23l80 30l107 -179l-35 -25zM47 0l-6 39q49 10 59.5 20.5t10.5 36.5v287q0 21 -16 30.5t-60 18.5l6 32q107 14 149 14l11 -10v-396q0 -7 1 -10t5.5 -6t13.5 -5l49 -12l-4 -39h-219z" />
<glyph unicode="&#xed;" horiz-adv-x="310" d="M288 735v-23l-152 -151l-35 25l107 179zM47 0l-6 39q49 10 59.5 20.5t10.5 36.5v287q0 21 -16 30.5t-60 18.5l6 32q107 14 149 14l11 -10v-396q0 -7 1 -10t5.5 -6t13.5 -5l49 -12l-4 -39h-219z" />
<glyph unicode="&#xee;" horiz-adv-x="310" d="M176 755l118 -169l-35 -25l-115 118l-114 -118l-35 25l118 169h63zM47 0l-6 39q49 10 59.5 20.5t10.5 36.5v287q0 21 -16 30.5t-60 18.5l6 32q107 14 149 14l11 -10v-396q0 -7 1 -10t5.5 -6t13.5 -5l49 -12l-4 -39h-219z" />
<glyph unicode="&#xef;" horiz-adv-x="310" d="M242 600q-52 0 -52 56q0 22 14.5 38t37.5 16q53 0 53 -54q0 -23 -15 -39.5t-38 -16.5zM49 600q-52 0 -52 56q0 22 14.5 38t37.5 16q53 0 53 -54q0 -23 -15 -39.5t-38 -16.5zM47 0l-6 39q49 10 59.5 20.5t10.5 36.5v287q0 21 -16 30.5t-60 18.5l6 32q107 14 149 14l11 -10 v-396q0 -7 1 -10t5.5 -6t13.5 -5l49 -12l-4 -39h-219z" />
<glyph unicode="&#xf0;" horiz-adv-x="533" d="M416 774l40 -36l-132 -54q164 -188 164 -438q0 -117 -61.5 -186t-172.5 -69q-106 0 -164 64t-58 177q0 117 61.5 186.5t172.5 69.5q49 0 92 -16q-32 107 -96 186l-113 -46l-39 35l119 49q-27 29 -59 53l52 28q33 -24 67 -56zM251 435q-56 0 -82 -30q-18 -20 -29 -63.5 t-11 -94.5q0 -89 36 -146t104 -57q56 0 82 30q18 20 29 63.5t11 94.5q0 91 -36.5 147t-103.5 56z" />
<glyph unicode="&#xf1;" horiz-adv-x="596" d="M47 0l-6 39q49 10 59.5 20.5t10.5 36.5v288q0 26 -12.5 36.5t-63.5 20.5l6 32l129 13q7 0 14.5 -28t7.5 -49v-6l8 -3l12 14q63 74 154 74q64 0 101 -38.5t37 -107.5v-270q0 -7 1 -10t5.5 -6t13.5 -5l49 -12l-4 -39h-214l-6 39q45 9 55 20t10 37v216q0 47 -17 75.5 t-65 28.5q-51 0 -109 -39q-9 -6 -12.5 -9.5t-6.5 -12.5t-3 -24v-258q0 -11 3.5 -15t16.5 -7l44 -12l-4 -39h-214zM463 715l25 -13q-21 -49 -42.5 -78t-49.5 -29q-17 0 -83.5 21t-90.5 21q-38 0 -72 -42l-23 17q32 56 55 79t48 23q21 0 85.5 -21t84.5 -21q29 0 63 43z" />
<glyph unicode="&#xf2;" horiz-adv-x="520" d="M32 232q0 117 61.5 186.5t172.5 69.5q106 0 164 -64.5t58 -177.5q0 -117 -61.5 -186t-172.5 -69q-106 0 -164 64t-58 177zM269 44q56 0 82 30q18 20 29 63.5t11 94.5q0 89 -36 146t-104 57q-56 0 -82 -30q-18 -20 -29 -63.5t-11 -94.5q0 -89 36 -146t104 -57zM128 712v23 l80 30l107 -179l-35 -25z" />
<glyph unicode="&#xf3;" horiz-adv-x="520" d="M32 232q0 117 61.5 186.5t172.5 69.5q106 0 164 -64.5t58 -177.5q0 -117 -61.5 -186t-172.5 -69q-106 0 -164 64t-58 177zM269 44q56 0 82 30q18 20 29 63.5t11 94.5q0 89 -36 146t-104 57q-56 0 -82 -30q-18 -20 -29 -63.5t-11 -94.5q0 -89 36 -146t104 -57zM390 735 v-23l-152 -151l-35 25l107 179z" />
<glyph unicode="&#xf4;" horiz-adv-x="520" d="M32 232q0 117 61.5 186.5t172.5 69.5q106 0 164 -64.5t58 -177.5q0 -117 -61.5 -186t-172.5 -69q-106 0 -164 64t-58 177zM269 44q56 0 82 30q18 20 29 63.5t11 94.5q0 89 -36 146t-104 57q-56 0 -82 -30q-18 -20 -29 -63.5t-11 -94.5q0 -89 36 -146t104 -57zM286 755 l118 -169l-35 -25l-115 118l-114 -118l-35 25l118 169h63z" />
<glyph unicode="&#xf5;" horiz-adv-x="520" d="M32 232q0 117 61.5 186.5t172.5 69.5q106 0 164 -64.5t58 -177.5q0 -117 -61.5 -186t-172.5 -69q-106 0 -164 64t-58 177zM269 44q56 0 82 30q18 20 29 63.5t11 94.5q0 89 -36 146t-104 57q-56 0 -82 -30q-18 -20 -29 -63.5t-11 -94.5q0 -89 36 -146t104 -57zM415 715 l25 -13q-21 -49 -42.5 -78t-49.5 -29q-17 0 -83.5 21t-90.5 21q-38 0 -72 -42l-23 17q32 56 55 79t48 23q21 0 85.5 -21t84.5 -21q29 0 63 43z" />
<glyph unicode="&#xf6;" horiz-adv-x="520" d="M32 232q0 117 61.5 186.5t172.5 69.5q106 0 164 -64.5t58 -177.5q0 -117 -61.5 -186t-172.5 -69q-106 0 -164 64t-58 177zM269 44q56 0 82 30q18 20 29 63.5t11 94.5q0 89 -36 146t-104 57q-56 0 -82 -30q-18 -20 -29 -63.5t-11 -94.5q0 -89 36 -146t104 -57zM347 600 q-52 0 -52 56q0 22 14.5 38t37.5 16q53 0 53 -54q0 -23 -15 -39.5t-38 -16.5zM154 600q-52 0 -52 56q0 22 14.5 38t37.5 16q53 0 53 -54q0 -23 -15 -39.5t-38 -16.5z" />
<glyph unicode="&#xf7;" horiz-adv-x="466" d="M226 376q-25 0 -41 15t-16 44q0 23 16 40t41 17q59 0 59 -57q0 -24 -16.5 -41.5t-42.5 -17.5zM226 64q-25 0 -41 15t-16 44q0 23 16 40t41 17q59 0 59 -57q0 -24 -16.5 -41.5t-42.5 -17.5zM45 244v53h376v-53h-376z" />
<glyph unicode="&#xf8;" horiz-adv-x="520" d="M254 -9q-52 0 -91 15l-37 -72l-54 20l41 80q-81 63 -81 198q0 117 61.5 186.5t172.5 69.5q37 0 74 -10l49 94l55 -20l-51 -98q95 -61 95 -208q0 -117 -61.5 -186t-172.5 -69zM251 435q-56 0 -82 -30q-18 -20 -29 -63.5t-11 -94.5q0 -79 26 -130l156 303q-28 15 -60 15z M391 232q0 90 -36 146l-160 -310q30 -24 74 -24q56 0 82 30q18 20 29 63.5t11 94.5z" />
<glyph unicode="&#xf9;" horiz-adv-x="577" d="M92 124v264q0 21 -16 30.5t-60 18.5l6 32q107 14 149 14l11 -10v-306q0 -104 79 -104q51 0 106 39q13 9 17 17.5t4 28.5v240q0 21 -16 30.5t-60 18.5l6 32q107 14 149 14l11 -10v-374q0 -26 12.5 -36.5t63.5 -20.5l-6 -32l-129 -14q-7 -1 -14.5 26.5t-7.5 47.5v6l-8 3 l-12 -14q-63 -74 -154 -74q-61 0 -96 32.5t-35 100.5zM138 712v23l80 30l107 -179l-35 -25z" />
<glyph unicode="&#xfa;" horiz-adv-x="577" d="M92 124v264q0 21 -16 30.5t-60 18.5l6 32q107 14 149 14l11 -10v-306q0 -104 79 -104q51 0 106 39q13 9 17 17.5t4 28.5v240q0 21 -16 30.5t-60 18.5l6 32q107 14 149 14l11 -10v-374q0 -26 12.5 -36.5t63.5 -20.5l-6 -32l-129 -14q-7 -1 -14.5 26.5t-7.5 47.5v6l-8 3 l-12 -14q-63 -74 -154 -74q-61 0 -96 32.5t-35 100.5zM422 735v-23l-152 -151l-35 25l107 179z" />
<glyph unicode="&#xfb;" horiz-adv-x="577" d="M92 124v264q0 21 -16 30.5t-60 18.5l6 32q107 14 149 14l11 -10v-306q0 -104 79 -104q51 0 106 39q13 9 17 17.5t4 28.5v240q0 21 -16 30.5t-60 18.5l6 32q107 14 149 14l11 -10v-374q0 -26 12.5 -36.5t63.5 -20.5l-6 -32l-129 -14q-7 -1 -14.5 26.5t-7.5 47.5v6l-8 3 l-12 -14q-63 -74 -154 -74q-61 0 -96 32.5t-35 100.5zM306 755l118 -169l-35 -25l-115 118l-114 -118l-35 25l118 169h63z" />
<glyph unicode="&#xfc;" horiz-adv-x="577" d="M92 124v264q0 21 -16 30.5t-60 18.5l6 32q107 14 149 14l11 -10v-306q0 -104 79 -104q51 0 106 39q13 9 17 17.5t4 28.5v240q0 21 -16 30.5t-60 18.5l6 32q107 14 149 14l11 -10v-374q0 -26 12.5 -36.5t63.5 -20.5l-6 -32l-129 -14q-7 -1 -14.5 26.5t-7.5 47.5v6l-8 3 l-12 -14q-63 -74 -154 -74q-61 0 -96 32.5t-35 100.5zM369 600q-52 0 -52 56q0 22 14.5 38t37.5 16q53 0 53 -54q0 -23 -15 -39.5t-38 -16.5zM176 600q-52 0 -52 56q0 22 14.5 38t37.5 16q53 0 53 -54q0 -23 -15 -39.5t-38 -16.5z" />
<glyph unicode="&#xfd;" horiz-adv-x="500" d="M29 -117q24 -3 64 -3q45 0 67 9q28 12 63 111l-166 398q-8 19 -14.5 24t-38.5 12l6 39h206l4 -39l-61 -15q-7 -1 -7 -8q0 -1 4 -13l102 -267q5 -14 5 -31h8l106 275q6 16 6 24q0 13 -14.5 20t-51.5 15l6 39h178l4 -39q-44 -10 -47 -17l-158 -392q-20 -50 -32 -76.5 t-33 -59.5t-44 -50.5t-57.5 -33.5t-80.5 -24q-26 26 -26 82q0 6 2 20zM418 735v-23l-152 -151l-35 25l107 179z" />
<glyph unicode="&#xfe;" horiz-adv-x="566" d="M32 -210l-6 39q49 10 59.5 20.5t10.5 36.5v791q0 21 -16 30.5t-60 18.5l6 32q107 14 149 14l11 -10v-281q0 -55 -7 -78l8 -3l10 13q58 75 143 75q77 0 129 -64.5t52 -173.5q0 -115 -59 -187t-165 -72q-75 0 -108 26l-7 -3q4 -22 4 -44v-108q0 -7 1 -10.5t5.5 -6.5 t13.5 -4l91 -12l-4 -39h-261zM186 336v-239q41 -49 128 -49q43 0 68 28q42 47 42 156q0 90 -31.5 137t-77.5 47q-50 0 -102 -34q-27 -18 -27 -46z" />
<glyph unicode="&#xff;" horiz-adv-x="500" d="M29 -117q24 -3 64 -3q45 0 67 9q28 12 63 111l-166 398q-8 19 -14.5 24t-38.5 12l6 39h206l4 -39l-61 -15q-7 -1 -7 -8q0 -1 4 -13l102 -267q5 -14 5 -31h8l106 275q6 16 6 24q0 13 -14.5 20t-51.5 15l6 39h178l4 -39q-44 -10 -47 -17l-158 -392q-20 -50 -32 -76.5 t-33 -59.5t-44 -50.5t-57.5 -33.5t-80.5 -24q-26 26 -26 82q0 6 2 20zM361 600q-52 0 -52 56q0 22 14.5 38t37.5 16q53 0 53 -54q0 -23 -15 -39.5t-38 -16.5zM168 600q-52 0 -52 56q0 22 14.5 38t37.5 16q53 0 53 -54q0 -23 -15 -39.5t-38 -16.5z" />
<glyph unicode="&#x100;" horiz-adv-x="670" d="M14 0l-7 40q38 10 46.5 16t16.5 27l224 619h83l229 -635q5 -15 59 -25l-4 -42h-233l-6 40q70 14 70 33q0 8 -4 21l-44 130h-259l-51 -142q-4 -12 -4 -15q0 -6 6 -7l71 -19l-4 -41h-189zM204 277h223l-98 281q-7 21 -7 29h-10zM213 776v60h249v-60h-249z" />
<glyph unicode="&#x101;" horiz-adv-x="512" d="M42 123q0 75 64 112t208 38v32q0 130 -94 130q-45 0 -57 -13q-11 -13 -24 -85l-54 6q-8 31 -8 76q0 22 1 32q59 37 167 37q84 0 121.5 -37t37.5 -122v-230q0 -26 12.5 -36.5t63.5 -20.5l-6 -32l-120 -13q-10 0 -21 19t-11 41q0 11 1 19l-8 3l-12 -18q-47 -70 -129 -70 q-56 0 -94 35t-38 97zM139 132q0 -36 19 -54.5t50 -18.5q39 0 83 34q23 18 23 38v98q-90 -2 -132.5 -24t-42.5 -73zM120 642v60h249v-60h-249z" />
<glyph unicode="&#x102;" horiz-adv-x="670" d="M14 0l-7 40q38 10 46.5 16t16.5 27l224 619h83l229 -635q5 -15 59 -25l-4 -42h-233l-6 40q70 14 70 33q0 8 -4 21l-44 130h-259l-51 -142q-4 -12 -4 -15q0 -6 6 -7l71 -19l-4 -41h-189zM204 277h223l-98 281q-7 21 -7 29h-10zM451 900h37q-4 -62 -41 -101t-108 -39 t-108 39t-41 101h37q17 -72 112 -72t112 72z" />
<glyph unicode="&#x103;" horiz-adv-x="512" d="M42 123q0 75 64 112t208 38v32q0 130 -94 130q-45 0 -57 -13q-11 -13 -24 -85l-54 6q-8 31 -8 76q0 22 1 32q59 37 167 37q84 0 121.5 -37t37.5 -122v-230q0 -26 12.5 -36.5t63.5 -20.5l-6 -32l-120 -13q-10 0 -21 19t-11 41q0 11 1 19l-8 3l-12 -18q-47 -70 -129 -70 q-56 0 -94 35t-38 97zM139 132q0 -36 19 -54.5t50 -18.5q39 0 83 34q23 18 23 38v98q-90 -2 -132.5 -24t-42.5 -73zM364 720h37q-4 -67 -41 -110t-108 -43t-108 43t-41 110h37q17 -85 112 -85t112 85z" />
<glyph unicode="&#x104;" horiz-adv-x="670" d="M14 0l-7 40q38 10 46.5 16t16.5 27l224 619h83l229 -635q5 -15 59 -25l-4 -42h-233l-6 40q70 14 70 33q0 8 -4 21l-44 130h-259l-51 -142q-4 -12 -4 -15q0 -6 6 -7l71 -19l-4 -41h-189zM204 277h223l-98 281q-7 21 -7 29h-10zM628 -169q-51 -46 -110 -46 q-39 0 -68.5 25.5t-29.5 64.5q0 58 61 104.5t162 46.5v-26q-60 -2 -101 -31.5t-41 -73.5q0 -26 15.5 -40t39.5 -14q31 0 60 10z" />
<glyph unicode="&#x105;" horiz-adv-x="512" d="M482 -169q-51 -46 -110 -46q-39 0 -68.5 25.5t-29.5 64.5q0 61 54.5 111t144.5 50v-26q-49 -2 -83.5 -34.5t-34.5 -80.5q0 -26 15.5 -40t39.5 -14q31 0 60 10zM42 123q0 75 64 112t208 38v32q0 130 -94 130q-45 0 -57 -13q-11 -13 -24 -85l-54 6q-8 31 -8 76q0 22 1 32 q59 37 167 37q84 0 121.5 -37t37.5 -122v-230q0 -26 12.5 -36.5t63.5 -20.5l-6 -32l-120 -13q-10 0 -21 19t-11 41q0 11 1 19l-8 3l-12 -18q-47 -70 -129 -70q-56 0 -94 35t-38 97zM139 132q0 -36 19 -54.5t50 -18.5q39 0 83 34q23 18 23 38v98q-90 -2 -132.5 -24t-42.5 -73 z" />
<glyph unicode="&#x106;" horiz-adv-x="620" d="M35 331q0 54 10.5 104t36.5 99.5t65 86t100 59t138 22.5q55 0 116 -10t80 -18q6 -37 6 -94q0 -24 -2 -74l-57 -8q-22 116 -39 128q-9 7 -46.5 15t-74.5 8q-110 0 -166 -81t-56 -213q0 -156 71 -232t176 -76q38 0 71.5 9t42.5 16q12 9 34 128l55 -2q0 -76 -11 -162 q-31 -17 -93.5 -31t-127.5 -14q-163 0 -246 96t-83 244zM521 863l-8 -21l-201 -93l-25 36l174 129z" />
<glyph unicode="&#x107;" horiz-adv-x="468" d="M34 236q0 47 11.5 88.5t36.5 80t73.5 61t115.5 22.5q76 0 146 -28q1 -8 1 -28q0 -67 -12 -109l-56 -6q-16 101 -30 107q-21 9 -75 9t-79 -37q-35 -53 -35 -151q0 -97 42.5 -141.5t109.5 -44.5q70 0 134 44l28 -33q-81 -79 -195 -79q-105 0 -160.5 68.5t-55.5 176.5z M417 735v-23l-152 -151l-35 25l107 179z" />
<glyph unicode="&#x108;" horiz-adv-x="620" d="M35 331q0 54 10.5 104t36.5 99.5t65 86t100 59t138 22.5q55 0 116 -10t80 -18q6 -37 6 -94q0 -24 -2 -74l-57 -8q-22 116 -39 128q-9 7 -46.5 15t-74.5 8q-110 0 -166 -81t-56 -213q0 -156 71 -232t176 -76q38 0 71.5 9t42.5 16q12 9 34 128l55 -2q0 -76 -11 -162 q-31 -17 -93.5 -31t-127.5 -14q-163 0 -246 96t-83 244zM490 749l-139 91l-139 -91l-25 26l136 139h56l136 -139z" />
<glyph unicode="&#x109;" horiz-adv-x="468" d="M34 236q0 47 11.5 88.5t36.5 80t73.5 61t115.5 22.5q76 0 146 -28q1 -8 1 -28q0 -67 -12 -109l-56 -6q-16 101 -30 107q-21 9 -75 9t-79 -37q-35 -53 -35 -151q0 -97 42.5 -141.5t109.5 -44.5q70 0 134 44l28 -33q-81 -79 -195 -79q-105 0 -160.5 68.5t-55.5 176.5z M287 755l118 -169l-35 -25l-115 118l-114 -118l-35 25l118 169h63z" />
<glyph unicode="&#x10c;" horiz-adv-x="620" d="M35 331q0 54 10.5 104t36.5 99.5t65 86t100 59t138 22.5q55 0 116 -10t80 -18q6 -37 6 -94q0 -24 -2 -74l-57 -8q-22 116 -39 128q-9 7 -46.5 15t-74.5 8q-110 0 -166 -81t-56 -213q0 -156 71 -232t176 -76q38 0 71.5 9t42.5 16q12 9 34 128l55 -2q0 -76 -11 -162 q-31 -17 -93.5 -31t-127.5 -14q-163 0 -246 96t-83 244zM233 917l139 -91l139 91l25 -26l-136 -139h-56l-136 139z" />
<glyph unicode="&#x10d;" horiz-adv-x="468" d="M34 236q0 47 11.5 88.5t36.5 80t73.5 61t115.5 22.5q76 0 146 -28q1 -8 1 -28q0 -67 -12 -109l-56 -6q-16 101 -30 107q-21 9 -75 9t-79 -37q-35 -53 -35 -151q0 -97 42.5 -141.5t109.5 -44.5q70 0 134 44l28 -33q-81 -79 -195 -79q-105 0 -160.5 68.5t-55.5 176.5z M227 566l-118 169l35 25l115 -118l114 118l35 -25l-118 -169h-63z" />
<glyph unicode="&#x10e;" horiz-adv-x="713" d="M50 0l-6 39q53 9 64.5 20t11.5 42v491q0 31 -11.5 42t-64.5 20l6 39h313q86 0 149 -27.5t98 -75t51.5 -103t16.5 -119.5q0 -69 -18.5 -132t-57 -117t-106 -86.5t-155.5 -32.5h-291zM217 93q0 -22 21 -26q70 -14 106 -14q111 0 167 79t56 211q0 83 -21.5 144t-57 92.5 t-72.5 46t-76 14.5h-123v-547zM172 917l139 -91l139 91l25 -26l-136 -139h-56l-136 139z" />
<glyph unicode="&#x10f;" horiz-adv-x="569" d="M217 -9q-77 0 -129 64.5t-52 173.5q0 115 59 187t165 72q73 0 108 -26l7 3q-4 16 -4 44v168q0 21 -20.5 31.5t-73.5 17.5l6 32q107 14 167 14l11 -10v-664q0 -26 12.5 -36.5t63.5 -20.5l-6 -32l-120 -13q-10 0 -22 20t-12 41q0 11 1 19l-8 3l-10 -13q-58 -75 -143 -75z M242 63q50 0 102 34q27 18 27 46v239q-41 49 -128 49q-43 0 -68 -28q-42 -47 -42 -156q0 -90 31.5 -137t77.5 -47zM609 774l12 -19q-9 -96 -65 -178l-42 14q14 53 14 103q0 31 -4 58z" />
<glyph unicode="&#x110;" horiz-adv-x="713" d="M27 338v60h93v194q0 31 -11.5 42t-64.5 20l6 39h313q86 0 149 -27.5t98 -75t51.5 -103t16.5 -119.5q0 -69 -18.5 -132t-57 -117t-106 -86.5t-155.5 -32.5h-291l-6 39q53 9 64.5 20t11.5 42v237h-93zM238 67q70 -14 106 -14q111 0 167 79t56 211q0 83 -21.5 144t-57 92.5 t-72.5 46t-76 14.5h-123v-242h167v-60h-167v-245q0 -22 21 -26z" />
<glyph unicode="&#x111;" horiz-adv-x="569" d="M217 -9q-77 0 -129 64.5t-52 173.5q0 115 59 187t165 72q73 0 108 -26l7 3q-4 16 -4 44v168q0 21 -20.5 31.5t-73.5 17.5l6 32q107 14 167 14l11 -10v-664q0 -26 12.5 -36.5t63.5 -20.5l-6 -32l-120 -13q-10 0 -22 20t-12 41q0 11 1 19l-8 3l-10 -13q-58 -75 -143 -75z M242 63q50 0 102 34q27 18 27 46v239q-41 49 -128 49q-43 0 -68 -28q-42 -47 -42 -156q0 -90 31.5 -137t77.5 -47zM241 585v53h301v-53h-301z" />
<glyph unicode="&#x112;" horiz-adv-x="592" d="M50 0l-6 39q53 9 64.5 20t11.5 42v491q0 31 -11.5 42t-64.5 20l6 39h466q6 -37 6 -79q0 -31 -2 -77l-57 -7q-14 69 -20 86.5t-14 18.5q-24 3 -61 4l-151 3v-269h150q13 0 32 71l31 -3q0 -28 0.5 -49.5t1 -34t2 -30t2 -23.5t4 -29t4.5 -32l-36 -6q-16 57 -21.5 70 t-12.5 13h-157v-269l89 1q31 0 55.5 1.5t38 2.5t24 3t14 3t6.5 2.5t4 1.5q17 5 44 118l55 -5q1 -17 1 -51q0 -53 -11 -128h-487zM182 776v60h249v-60h-249z" />
<glyph unicode="&#x113;" horiz-adv-x="478" d="M34 230q0 110 64 184t169 74q170 0 178 -209l-26 -19l-290 -16q0 -185 158 -185q69 0 135 34l21 -33q-33 -27 -86 -48t-111 -21q-101 0 -156.5 69t-55.5 170zM132 290l207 18q10 1 10 19q0 44 -23.5 76t-78.5 32q-57 0 -82.5 -37.5t-32.5 -107.5zM138 642v60h249v-60 h-249z" />
<glyph unicode="&#x114;" horiz-adv-x="592" d="M50 0l-6 39q53 9 64.5 20t11.5 42v491q0 31 -11.5 42t-64.5 20l6 39h466q6 -37 6 -79q0 -31 -2 -77l-57 -7q-14 69 -20 86.5t-14 18.5q-24 3 -61 4l-151 3v-269h150q13 0 32 71l31 -3q0 -28 0.5 -49.5t1 -34t2 -30t2 -23.5t4 -29t4.5 -32l-36 -6q-16 57 -21.5 70 t-12.5 13h-157v-269l89 1q31 0 55.5 1.5t38 2.5t24 3t14 3t6.5 2.5t4 1.5q17 5 44 118l55 -5q1 -17 1 -51q0 -53 -11 -128h-487zM413 900h37q-4 -62 -41 -101t-108 -39t-108 39t-41 101h37q17 -72 112 -72t112 72z" />
<glyph unicode="&#x115;" horiz-adv-x="478" d="M34 230q0 110 64 184t169 74q170 0 178 -209l-26 -19l-290 -16q0 -185 158 -185q69 0 135 34l21 -33q-33 -27 -86 -48t-111 -21q-101 0 -156.5 69t-55.5 170zM132 290l207 18q10 1 10 19q0 44 -23.5 76t-78.5 32q-57 0 -82.5 -37.5t-32.5 -107.5zM368 720h37 q-4 -67 -41 -110t-108 -43t-108 43t-41 110h37q17 -85 112 -85t112 85z" />
<glyph unicode="&#x118;" horiz-adv-x="592" d="M50 0l-6 39q53 9 64.5 20t11.5 42v491q0 31 -11.5 42t-64.5 20l6 39h466q6 -37 6 -79q0 -31 -2 -77l-57 -7q-14 69 -20 86.5t-14 18.5q-24 3 -61 4l-151 3v-269h150q13 0 32 71l31 -3q0 -28 0.5 -49.5t1 -34t2 -30t2 -23.5t4 -29t4.5 -32l-36 -6q-16 57 -21.5 70 t-12.5 13h-157v-269l89 1q31 0 55.5 1.5t38 2.5t24 3t14 3t6.5 2.5t4 1.5q17 5 44 118l55 -5q1 -17 1 -51q0 -53 -11 -128h-487zM521 -169q-51 -46 -110 -46q-39 0 -68.5 25.5t-29.5 64.5q0 58 61 104.5t162 46.5v-26q-60 -2 -101 -31.5t-41 -73.5q0 -26 15.5 -40t39.5 -14 q31 0 60 10z" />
<glyph unicode="&#x119;" horiz-adv-x="478" d="M34 230q0 110 64 184t169 74q170 0 178 -209l-26 -19l-290 -16q0 -185 158 -185q69 0 135 34l21 -33q-33 -27 -86 -48t-111 -21q-101 0 -156.5 69t-55.5 170zM132 290l207 18q10 1 10 19q0 44 -23.5 76t-78.5 32q-57 0 -82.5 -37.5t-32.5 -107.5zM449 -169 q-51 -46 -110 -46q-40 0 -69 27.5t-29 73.5q0 52 44.5 98.5t142.5 95.5l12 -22q-60 -43 -89 -79t-29 -82q0 -26 15.5 -41t39.5 -15q32 0 60 10z" />
<glyph unicode="&#x11a;" horiz-adv-x="592" d="M50 0l-6 39q53 9 64.5 20t11.5 42v491q0 31 -11.5 42t-64.5 20l6 39h466q6 -37 6 -79q0 -31 -2 -77l-57 -7q-14 69 -20 86.5t-14 18.5q-24 3 -61 4l-151 3v-269h150q13 0 32 71l31 -3q0 -28 0.5 -49.5t1 -34t2 -30t2 -23.5t4 -29t4.5 -32l-36 -6q-16 57 -21.5 70 t-12.5 13h-157v-269l89 1q31 0 55.5 1.5t38 2.5t24 3t14 3t6.5 2.5t4 1.5q17 5 44 118l55 -5q1 -17 1 -51q0 -53 -11 -128h-487zM150 917l139 -91l139 91l25 -26l-136 -139h-56l-136 139z" />
<glyph unicode="&#x11b;" horiz-adv-x="478" d="M34 230q0 110 64 184t169 74q170 0 178 -209l-26 -19l-290 -16q0 -185 158 -185q69 0 135 34l21 -33q-33 -27 -86 -48t-111 -21q-101 0 -156.5 69t-55.5 170zM132 290l207 18q10 1 10 19q0 44 -23.5 76t-78.5 32q-57 0 -82.5 -37.5t-32.5 -107.5zM218 566l-118 169l35 25 l115 -118l114 118l35 -25l-118 -169h-63z" />
<glyph unicode="&#x11c;" horiz-adv-x="681" d="M587 37q-33 -17 -95.5 -31.5t-127.5 -14.5q-163 0 -246 96t-83 244q0 54 10.5 104t36.5 99.5t65 86t100 59t138 22.5q55 0 116 -10t80 -18q6 -37 6 -94q0 -24 -2 -74l-57 -8q-22 116 -39 128q-9 7 -46.5 15t-74.5 8q-110 0 -166 -81t-56 -213q0 -156 71 -232t176 -76 q55 0 97 16v139q0 31 -11.5 42t-64.5 20l6 39h234l4 -39l-51 -12q-20 -4 -20 -26v-189zM488 749l-139 91l-139 -91l-25 26l136 139h56l136 -139z" />
<glyph unicode="&#x11d;" horiz-adv-x="554" d="M392 422l-13 31q69 35 134 37q10 -17 10 -50q0 -14 -3 -23q-34 8 -72 8q-36 0 -56 -3zM256 162q-81 0 -131.5 40t-50.5 119q0 82 55 124.5t139 42.5q81 0 131.5 -40.5t50.5 -118.5q0 -82 -55 -124.5t-139 -42.5zM265 211q93 0 93 110q0 118 -99 118q-93 0 -93 -110 q0 -118 99 -118zM74 61q0 40 29.5 76.5t67.5 60.5l15 -14q-39 -41 -39 -79q0 -15 8 -24t26 -12t31 -4t38 -1q36 0 56.5 -0.5t52.5 -3.5t50.5 -10t38 -18t28.5 -30t9 -44q0 -72 -72 -124.5t-194 -52.5q-164 0 -164 94q0 34 19.5 58.5t56.5 51.5q-57 18 -57 76zM160 -24 q-28 -31 -28 -71q0 -32 30 -53t95 -21q80 0 120 30t40 63q0 27 -33 33.5t-104.5 7.5t-119.5 11zM291 755l118 -169l-35 -25l-115 118l-114 -118l-35 25l118 169h63z" />
<glyph unicode="&#x11e;" horiz-adv-x="681" d="M587 37q-33 -17 -95.5 -31.5t-127.5 -14.5q-163 0 -246 96t-83 244q0 54 10.5 104t36.5 99.5t65 86t100 59t138 22.5q55 0 116 -10t80 -18q6 -37 6 -94q0 -24 -2 -74l-57 -8q-22 116 -39 128q-9 7 -46.5 15t-74.5 8q-110 0 -166 -81t-56 -213q0 -156 71 -232t176 -76 q55 0 97 16v139q0 31 -11.5 42t-64.5 20l6 39h234l4 -39l-51 -12q-20 -4 -20 -26v-189zM490 900h37q-4 -62 -41 -101t-108 -39t-108 39t-41 101h37q17 -72 112 -72t112 72z" />
<glyph unicode="&#x11f;" horiz-adv-x="554" d="M392 422l-13 31q69 35 134 37q10 -17 10 -50q0 -14 -3 -23q-34 8 -72 8q-36 0 -56 -3zM256 162q-81 0 -131.5 40t-50.5 119q0 82 55 124.5t139 42.5q81 0 131.5 -40.5t50.5 -118.5q0 -82 -55 -124.5t-139 -42.5zM265 211q93 0 93 110q0 118 -99 118q-93 0 -93 -110 q0 -118 99 -118zM74 61q0 40 29.5 76.5t67.5 60.5l15 -14q-39 -41 -39 -79q0 -15 8 -24t26 -12t31 -4t38 -1q36 0 56.5 -0.5t52.5 -3.5t50.5 -10t38 -18t28.5 -30t9 -44q0 -72 -72 -124.5t-194 -52.5q-164 0 -164 94q0 34 19.5 58.5t56.5 51.5q-57 18 -57 76zM160 -24 q-28 -31 -28 -71q0 -32 30 -53t95 -21q80 0 120 30t40 63q0 27 -33 33.5t-104.5 7.5t-119.5 11zM378 720h37q-4 -67 -41 -110t-108 -43t-108 43t-41 110h37q17 -85 112 -85t112 85z" />
<glyph unicode="&#x124;" horiz-adv-x="767" d="M50 0l-6 39q53 9 64.5 20t11.5 42v491q0 31 -11.5 42t-64.5 20l6 39h245l4 -39l-62 -12q-20 -4 -20 -26v-229h333v205q0 31 -11.5 42t-64.5 20l6 39h245l4 -39l-62 -12q-20 -4 -20 -26v-539q0 -22 20 -26l62 -12l-4 -39h-245l-6 39q53 9 64.5 20t11.5 42v226h-333v-250 q0 -22 20 -26l62 -12l-4 -39h-245zM528 749l-139 91l-139 -91l-25 26l136 139h56l136 -139z" />
<glyph unicode="&#x125;" horiz-adv-x="596" d="M40 0l-6 39q49 10 59.5 20.5t10.5 36.5v560q0 21 -16 30.5t-60 18.5l6 32q107 14 149 14l11 -10v-260q0 -55 -7 -78l8 -3l12 14q62 74 155 74q67 0 104.5 -39t37.5 -107v-270q0 -7 1 -10t5.5 -6t13.5 -5l49 -12l-4 -39h-214l-6 39q45 9 55 20t10 37v216q0 48 -17.5 76 t-68.5 28q-54 0 -111 -39q-13 -9 -18 -17.5t-5 -30.5v-257q0 -7 1 -10t5.5 -6t13.5 -5l44 -12l-4 -39h-214zM263 749l-139 91l-139 -91l-25 26l136 139h56l136 -139z" />
<glyph unicode="&#x126;" horiz-adv-x="767" d="M50 0l-6 39q53 9 64.5 20t11.5 42v491q0 31 -11.5 42t-64.5 20l6 39h245l4 -39l-62 -12q-20 -4 -20 -26v-229h333v205q0 31 -11.5 42t-64.5 20l6 39h245l4 -39l-62 -12q-20 -4 -20 -26v-539q0 -22 20 -26l62 -12l-4 -39h-245l-6 39q53 9 64.5 20t11.5 42v226h-333v-250 q0 -22 20 -26l62 -12l-4 -39h-245zM50 492v53h673v-53h-673z" />
<glyph unicode="&#x127;" horiz-adv-x="596" d="M40 0l-6 39q49 10 59.5 20.5t10.5 36.5v581q0 21 -16 30.5t-60 18.5l6 32q107 14 149 14l11 -10v-281q0 -55 -7 -78l8 -3l12 14q62 74 155 74q67 0 104.5 -39t37.5 -107v-270q0 -7 1 -10t5.5 -6t13.5 -5l49 -12l-4 -39h-214l-6 39q45 9 55 20t10 37v216q0 48 -17.5 76 t-68.5 28q-54 0 -111 -39q-13 -9 -18 -17.5t-5 -30.5v-257q0 -7 1 -10t5.5 -6t13.5 -5l44 -12l-4 -39h-214zM23 585v53h301v-53h-301z" />
<glyph unicode="&#x128;" horiz-adv-x="337" d="M50 0l-6 39q53 9 64.5 20t11.5 42v491q0 31 -11.5 42t-64.5 20l6 39h245l4 -39l-62 -12q-20 -4 -20 -26v-539q0 -22 20 -26l62 -12l-4 -39h-245zM331 891l25 -12q-21 -46 -42.5 -73.5t-49.5 -27.5q-17 0 -83.5 13.5t-90.5 13.5q-38 0 -72 -34l-23 16q32 53 55 74.5 t48 21.5q21 0 85.5 -13.5t84.5 -13.5q30 0 63 35z" />
<glyph unicode="&#x129;" horiz-adv-x="310" d="M296 715l25 -13q-21 -49 -42.5 -78t-49.5 -29q-17 0 -83.5 21t-90.5 21q-38 0 -72 -42l-23 17q32 56 55 79t48 23q21 0 85.5 -21t84.5 -21q29 0 63 43zM47 0l-6 39q49 10 59.5 20.5t10.5 36.5v287q0 21 -16 30.5t-60 18.5l6 32q107 14 149 14l11 -10v-396q0 -7 1 -10 t5.5 -6t13.5 -5l49 -12l-4 -39h-219z" />
<glyph unicode="&#x12a;" horiz-adv-x="337" d="M50 0l-6 39q53 9 64.5 20t11.5 42v491q0 31 -11.5 42t-64.5 20l6 39h245l4 -39l-62 -12q-20 -4 -20 -26v-539q0 -22 20 -26l62 -12l-4 -39h-245zM46 776v60h249v-60h-249z" />
<glyph unicode="&#x12b;" horiz-adv-x="310" d="M47 0l-6 39q49 10 59.5 20.5t10.5 36.5v287q0 21 -16 30.5t-60 18.5l6 32q107 14 149 14l11 -10v-396q0 -7 1 -10t5.5 -6t13.5 -5l49 -12l-4 -39h-219zM11 642v60h249v-60h-249z" />
<glyph unicode="&#x12c;" horiz-adv-x="337" d="M50 0l-6 39q53 9 64.5 20t11.5 42v491q0 31 -11.5 42t-64.5 20l6 39h245l4 -39l-62 -12q-20 -4 -20 -26v-539q0 -22 20 -26l62 -12l-4 -39h-245zM281 900h37q-4 -62 -41 -101t-108 -39t-108 39t-41 101h37q17 -72 112 -72t112 72z" />
<glyph unicode="&#x12d;" horiz-adv-x="310" d="M47 0l-6 39q49 10 59.5 20.5t10.5 36.5v287q0 21 -16 30.5t-60 18.5l6 32q107 14 149 14l11 -10v-396q0 -7 1 -10t5.5 -6t13.5 -5l49 -12l-4 -39h-219zM255 720h37q-4 -67 -41 -110t-108 -43t-108 43t-41 110h37q17 -85 112 -85t112 85z" />
<glyph unicode="&#x12e;" horiz-adv-x="337" d="M50 0l-6 39q53 9 64.5 20t11.5 42v491q0 31 -11.5 42t-64.5 20l6 39h245l4 -39l-62 -12q-20 -4 -20 -26v-539q0 -22 20 -26l62 -12l-4 -39h-245zM262 -169q-51 -46 -110 -46q-39 0 -68.5 25.5t-29.5 64.5q0 58 61 104.5t162 46.5v-26q-60 -2 -101 -31.5t-41 -73.5 q0 -26 15.5 -40t39.5 -14q31 0 60 10z" />
<glyph unicode="&#x12f;" horiz-adv-x="310" d="M47 0l-6 39q49 10 59.5 20.5t10.5 36.5v287q0 21 -16 30.5t-60 18.5l6 32q107 14 149 14l11 -10v-396q0 -7 1 -10t5.5 -6t13.5 -5l49 -12l-4 -39h-219zM145 597q-25 0 -41.5 15t-16.5 44q0 24 15.5 40t42.5 16q57 0 57 -56q0 -25 -15.5 -42t-41.5 -17zM242 -169 q-51 -46 -110 -46q-39 0 -68.5 25.5t-29.5 64.5q0 58 61 104.5t162 46.5v-26q-60 -2 -101 -31.5t-41 -73.5q0 -26 15.5 -40t39.5 -14q31 0 60 10z" />
<glyph unicode="&#x131;" horiz-adv-x="310" d="M47 0l-6 39q49 10 59.5 20.5t10.5 36.5v287q0 21 -16 30.5t-60 18.5l6 32q107 14 149 14l11 -10v-396q0 -7 1 -10t5.5 -6t13.5 -5l49 -12l-4 -39h-219z" />
<glyph unicode="&#x132;" horiz-adv-x="673" d="M50 0l-6 39q53 9 64.5 20t11.5 42v491q0 31 -11.5 42t-64.5 20l6 39h245l4 -39l-62 -12q-20 -4 -20 -26v-539q0 -22 20 -26l62 -12l-4 -39h-245zM556 622v-494q0 -91 -51.5 -169t-105.5 -78q-43 0 -83 8q-3 12 -3 26q0 32 19 62q47 -11 67 -11q18 0 31 8q29 20 29 184 v434q0 30 -15.5 41t-70.5 21l6 39h265l4 -39l-72 -12q-20 -4 -20 -20z" />
<glyph unicode="&#x133;" horiz-adv-x="590" d="M47 0l-6 39q49 10 59.5 20.5t10.5 36.5v287q0 21 -16 30.5t-60 18.5l6 32q107 14 149 14l11 -10v-396q0 -7 1 -10t5.5 -6t13.5 -5l49 -12l-4 -39h-219zM145 597q-25 0 -41.5 15t-16.5 44q0 24 15.5 40t42.5 16q57 0 57 -56q0 -25 -15.5 -42t-41.5 -17zM410 68v315 q0 21 -16 30.5t-60 18.5l6 32q107 14 149 14l11 -10v-430q0 -94 -56 -175.5t-108 -81.5q-36 0 -76 7q-3 12 -3 24q0 30 17 58q40 -10 62 -10q19 0 29 7q21 14 33 71.5t12 129.5zM444 597q-25 0 -41.5 15t-16.5 44q0 24 15.5 40t42.5 16q57 0 57 -56q0 -25 -15.5 -42 t-41.5 -17z" />
<glyph unicode="&#x134;" horiz-adv-x="336" d="M219 622v-494q0 -91 -51.5 -169t-105.5 -78q-43 0 -83 8q-3 12 -3 26q0 32 19 62q47 -11 67 -11q18 0 31 8q29 20 29 184v434q0 30 -15.5 41t-70.5 21l6 39h265l4 -39l-72 -12q-20 -4 -20 -20zM311 749l-139 91l-139 -91l-25 26l136 139h56l136 -139z" />
<glyph unicode="&#x135;" horiz-adv-x="280" d="M165 755l118 -169l-35 -25l-115 118l-114 -118l-35 25l118 169h63zM100 68v315q0 21 -16 30.5t-60 18.5l6 32q107 14 149 14l11 -10v-430q0 -94 -56 -175.5t-108 -81.5q-36 0 -76 7q-3 12 -3 24q0 30 17 58q40 -10 62 -10q19 0 29 7q21 14 33 71.5t12 129.5z" />
<glyph unicode="&#x137;" horiz-adv-x="569" d="M40 0l-6 39q49 10 59.5 20.5t10.5 36.5v581q0 21 -16 30.5t-60 18.5l6 32q107 14 149 14l11 -10v-531l172 161q8 9 8 17q0 15 -69 25l6 39h199l4 -39q-46 -7 -55 -16l-137 -131l145 -207q16 -20 35.5 -29t56.5 -12l-6 -39h-139l-155 226l-65 -62v-92q0 -7 1 -10t5.5 -6 t13.5 -5l44 -12l-4 -39h-214zM278 -210l-26 25q45 32 45 59q0 16 -11.5 32.5t-11.5 30.5q0 19 13.5 30.5t32.5 11.5q22 0 36.5 -16.5t14.5 -47.5q0 -30 -23.5 -65t-69.5 -60z" />
<glyph unicode="&#x138;" horiz-adv-x="569" d="M40 0l-6 39q49 10 59.5 20.5t10.5 36.5v294q0 21 -16 30.5t-60 18.5l6 32q107 14 149 14l11 -10v-244l172 161q8 9 8 17q0 15 -69 25l6 39h199l4 -39q-46 -7 -55 -16l-137 -131l145 -207q16 -20 35.5 -29t56.5 -12l-6 -39h-139l-155 226l-65 -62v-92q0 -7 1 -10t5.5 -6 t13.5 -5l44 -12l-4 -39h-214z" />
<glyph unicode="&#x139;" horiz-adv-x="558" d="M50 0l-6 39q53 9 64.5 20t11.5 42v491q0 31 -11.5 42t-64.5 20l6 39h245l4 -39l-62 -12q-20 -4 -20 -26v-565l89 1q111 2 130 7q16 5 56 154l55 -5q1 -17 1 -51q0 -71 -11 -157h-487zM340 863l-8 -21l-201 -93l-25 36l174 129z" />
<glyph unicode="&#x13a;" horiz-adv-x="302" d="M40 0l-6 39q49 10 59.5 20.5t10.5 36.5v528q0 21 -16 30.5t-60 18.5l6 32q107 14 149 14l11 -10v-637q0 -7 1 -10t5.5 -6t13.5 -5l49 -12l-4 -39h-219zM261 863l-8 -21l-201 -93l-25 36l174 129z" />
<glyph unicode="&#x13d;" horiz-adv-x="558" d="M50 0l-6 39q53 9 64.5 20t11.5 42v491q0 31 -11.5 42t-64.5 20l6 39h245l4 -39l-62 -12q-20 -4 -20 -26v-565l89 1q111 2 130 7q16 5 56 154l55 -5q1 -17 1 -51q0 -71 -11 -157h-487zM450 774l12 -19q-9 -96 -65 -178l-42 14q14 53 14 103q0 31 -4 58z" />
<glyph unicode="&#x13e;" horiz-adv-x="303" d="M40 0l-6 39q49 10 59.5 20.5t10.5 36.5v581q0 21 -16 30.5t-60 18.5l6 32q107 14 149 14l11 -10v-690q0 -7 1 -10t5.5 -6t13.5 -5l49 -12l-4 -39h-219zM348 774l12 -19q-9 -96 -65 -178l-42 14q14 53 14 103q0 31 -4 58z" />
<glyph unicode="&#x13f;" horiz-adv-x="558" d="M50 0l-6 39q53 9 64.5 20t11.5 42v491q0 31 -11.5 42t-64.5 20l6 39h245l4 -39l-62 -12q-20 -4 -20 -26v-565l89 1q111 2 130 7q16 5 56 154l55 -5q1 -17 1 -51q0 -71 -11 -157h-487zM455 334q-24 0 -40.5 15t-16.5 44q0 23 16 39.5t41 16.5q58 0 58 -56q0 -24 -16 -41.5 t-42 -17.5z" />
<glyph unicode="&#x140;" horiz-adv-x="339" d="M40 0l-6 39q49 10 59.5 20.5t10.5 36.5v581q0 21 -16 30.5t-60 18.5l6 32q107 14 149 14l11 -10v-690q0 -7 1 -10t5.5 -6t13.5 -5l49 -12l-4 -39h-219zM312 334q-24 0 -40.5 15t-16.5 44q0 23 16 39.5t41 16.5q58 0 58 -56q0 -24 -16 -41.5t-42 -17.5z" />
<glyph unicode="&#x141;" horiz-adv-x="558" d="M62 215l-28 43l348 229l28 -43zM50 0l-6 39q53 9 64.5 20t11.5 42v491q0 31 -11.5 42t-64.5 20l6 39h245l4 -39l-62 -12q-20 -4 -20 -26v-565l89 1q111 2 130 7q16 5 56 154l55 -5q1 -17 1 -51q0 -71 -11 -157h-487z" />
<glyph unicode="&#x142;" horiz-adv-x="303" d="M43 286l-28 43l260 170l28 -43zM40 0l-6 39q49 10 59.5 20.5t10.5 36.5v581q0 21 -16 30.5t-60 18.5l6 32q107 14 149 14l11 -10v-690q0 -7 1 -10t5.5 -6t13.5 -5l49 -12l-4 -39h-219z" />
<glyph unicode="&#x143;" horiz-adv-x="775" d="M598 0l-16 189h8v383q0 45 -16.5 60t-79.5 22l6 39h235l4 -39l-62 -12q-20 -4 -20 -26v-616h-59zM595 0l-468 693h114l406 -598l-2 -94zM50 0l-6 39q53 9 64.5 20t11.5 42v491q0 31 -11.5 42t-64.5 20l6 39h136l10 -101h-9v-492q0 -25 9.5 -37t34.5 -15l70 -9l-4 -39 h-247zM540 863l-8 -21l-201 -93l-25 36l174 129z" />
<glyph unicode="&#x144;" horiz-adv-x="596" d="M47 0l-6 39q49 10 59.5 20.5t10.5 36.5v288q0 26 -12.5 36.5t-63.5 20.5l6 32l129 13q7 0 14.5 -28t7.5 -49v-6l8 -3l12 14q63 74 154 74q64 0 101 -38.5t37 -107.5v-270q0 -7 1 -10t5.5 -6t13.5 -5l49 -12l-4 -39h-214l-6 39q45 9 55 20t10 37v216q0 47 -17 75.5 t-65 28.5q-51 0 -109 -39q-9 -6 -12.5 -9.5t-6.5 -12.5t-3 -24v-258q0 -11 3.5 -15t16.5 -7l44 -12l-4 -39h-214zM455 735v-23l-152 -151l-35 25l107 179z" />
<glyph unicode="&#x147;" horiz-adv-x="775" d="M598 0l-16 189h8v383q0 45 -16.5 60t-79.5 22l6 39h235l4 -39l-62 -12q-20 -4 -20 -26v-616h-59zM595 0l-468 693h114l406 -598l-2 -94zM50 0l-6 39q53 9 64.5 20t11.5 42v491q0 31 -11.5 42t-64.5 20l6 39h136l10 -101h-9v-492q0 -25 9.5 -37t34.5 -15l70 -9l-4 -39 h-247zM235 917l139 -91l139 91l25 -26l-136 -139h-56l-136 139z" />
<glyph unicode="&#x148;" horiz-adv-x="596" d="M47 0l-6 39q49 10 59.5 20.5t10.5 36.5v288q0 26 -12.5 36.5t-63.5 20.5l6 32l129 13q7 0 14.5 -28t7.5 -49v-6l8 -3l12 14q63 74 154 74q64 0 101 -38.5t37 -107.5v-270q0 -7 1 -10t5.5 -6t13.5 -5l49 -12l-4 -39h-214l-6 39q45 9 55 20t10 37v216q0 47 -17 75.5 t-65 28.5q-51 0 -109 -39q-9 -6 -12.5 -9.5t-6.5 -12.5t-3 -24v-258q0 -11 3.5 -15t16.5 -7l44 -12l-4 -39h-214zM257 566l-118 169l35 25l115 -118l114 118l35 -25l-118 -169h-63z" />
<glyph unicode="&#x149;" horiz-adv-x="596" d="M47 0l-6 39q49 10 59.5 20.5t10.5 36.5v288q0 26 -12.5 36.5t-63.5 20.5l6 32l129 13q7 0 14.5 -28t7.5 -49v-6l8 -3l12 14q63 74 154 74q64 0 101 -38.5t37 -107.5v-270q0 -7 1 -10t5.5 -6t13.5 -5l49 -12l-4 -39h-214l-6 39q45 9 55 20t10 37v216q0 47 -17 75.5 t-65 28.5q-51 0 -109 -39q-9 -6 -12.5 -9.5t-6.5 -12.5t-3 -24v-258q0 -11 3.5 -15t16.5 -7l44 -12l-4 -39h-214zM86 557l-24 23q33 39 33 84q0 14 -13.5 31t-13.5 30q0 19 12.5 30t29.5 11q51 0 51 -71q0 -80 -75 -138z" />
<glyph unicode="&#x14a;" horiz-adv-x="775" d="M639 91l-57 98h8v383q0 45 -16.5 60t-79.5 22l6 39h235l4 -39l-62 -12q-20 -4 -20 -26v-447zM595 0l-468 693h114l406 -598l-2 -94zM186 693l10 -101h-9v-492q0 -25 9.5 -37t34.5 -15l70 -9l-4 -39h-247l-6 39q53 9 64.5 20t11.5 42v491q0 31 -11.5 42t-64.5 20l6 39h136 zM590 68v555l67 45v-565q0 -322 -165 -322q-26 0 -52 7q-3 12 -3 24q0 30 17 58q40 -10 62 -10q19 0 29 7q21 14 33 71.5t12 129.5z" />
<glyph unicode="&#x14b;" horiz-adv-x="594" d="M414 68v244q0 47 -17 75.5t-65 28.5q-51 0 -109 -39q-9 -6 -12.5 -9.5t-6.5 -12.5t-3 -24v-258q0 -11 3.5 -15t16.5 -7l44 -12l-4 -39h-214l-6 39q49 10 59.5 20.5t10.5 36.5v288q0 26 -12.5 36.5t-63.5 20.5l6 32l129 13q7 0 14.5 -28t7.5 -49v-6l8 -3l12 14 q63 74 154 74q64 0 101 -38.5t37 -107.5v-304q0 -94 -56 -175.5t-108 -81.5q-36 0 -76 7q-3 12 -3 24q0 30 17 58q40 -10 62 -10q19 0 29 7q21 14 33 71.5t12 129.5z" />
<glyph unicode="&#x14c;" horiz-adv-x="711" d="M35 338q0 165 87 264.5t241 99.5q149 0 231 -91.5t82 -246.5q0 -170 -87 -271.5t-241 -101.5q-149 0 -231 93.5t-82 253.5zM364 44q54 0 94.5 25t63 69t33 96t10.5 113q0 134 -56.5 218t-161.5 84q-54 0 -94.5 -24.5t-63 -67.5t-33 -93.5t-10.5 -108.5q0 -138 56 -224.5 t162 -86.5zM239 776v60h249v-60h-249z" />
<glyph unicode="&#x14d;" horiz-adv-x="520" d="M32 232q0 117 61.5 186.5t172.5 69.5q106 0 164 -64.5t58 -177.5q0 -117 -61.5 -186t-172.5 -69q-106 0 -164 64t-58 177zM269 44q56 0 82 30q18 20 29 63.5t11 94.5q0 89 -36 146t-104 57q-56 0 -82 -30q-18 -20 -29 -63.5t-11 -94.5q0 -89 36 -146t104 -57zM141 642v60 h249v-60h-249z" />
<glyph unicode="&#x14e;" horiz-adv-x="711" d="M35 338q0 165 87 264.5t241 99.5q149 0 231 -91.5t82 -246.5q0 -170 -87 -271.5t-241 -101.5q-149 0 -231 93.5t-82 253.5zM364 44q54 0 94.5 25t63 69t33 96t10.5 113q0 134 -56.5 218t-161.5 84q-54 0 -94.5 -24.5t-63 -67.5t-33 -93.5t-10.5 -108.5q0 -138 56 -224.5 t162 -86.5zM478 900h37q-4 -62 -41 -101t-108 -39t-108 39t-41 101h37q17 -72 112 -72t112 72z" />
<glyph unicode="&#x14f;" horiz-adv-x="520" d="M32 232q0 117 61.5 186.5t172.5 69.5q106 0 164 -64.5t58 -177.5q0 -117 -61.5 -186t-172.5 -69q-106 0 -164 64t-58 177zM269 44q56 0 82 30q18 20 29 63.5t11 94.5q0 89 -36 146t-104 57q-56 0 -82 -30q-18 -20 -29 -63.5t-11 -94.5q0 -89 36 -146t104 -57zM379 720h37 q-4 -67 -41 -110t-108 -43t-108 43t-41 110h37q17 -85 112 -85t112 85z" />
<glyph unicode="&#x150;" horiz-adv-x="711" d="M35 338q0 165 87 264.5t241 99.5q149 0 231 -91.5t82 -246.5q0 -170 -87 -271.5t-241 -101.5q-149 0 -231 93.5t-82 253.5zM364 44q54 0 94.5 25t63 69t33 96t10.5 113q0 134 -56.5 218t-161.5 84q-54 0 -94.5 -24.5t-63 -67.5t-33 -93.5t-10.5 -108.5q0 -138 56 -224.5 t162 -86.5zM620 885v-23l-177 -111l-35 25l117 139zM422 885v-23l-177 -111l-35 25l117 139z" />
<glyph unicode="&#x151;" horiz-adv-x="520" d="M32 232q0 117 61.5 186.5t172.5 69.5q106 0 164 -64.5t58 -177.5q0 -117 -61.5 -186t-172.5 -69q-106 0 -164 64t-58 177zM269 44q56 0 82 30q18 20 29 63.5t11 94.5q0 89 -36 146t-104 57q-56 0 -82 -30q-18 -20 -29 -63.5t-11 -94.5q0 -89 36 -146t104 -57zM490 735 v-23l-167 -151l-35 25l107 179zM292 735v-23l-167 -151l-35 25l107 179z" />
<glyph unicode="&#x152;" horiz-adv-x="993" d="M348 -9q-149 0 -231 93.5t-82 253.5q0 165 87 264.5t241 99.5q19 0 66 -2t168 -4.5t320 -2.5q6 -37 6 -79q0 -31 -2 -77l-57 -7q-14 69 -20 86.5t-14 18.5q-24 3 -61 4l-151 3v-269h150q13 0 32 71l31 -3q0 -28 0.5 -49.5t1 -34t2 -30t2 -23.5t4 -29t4.5 -32l-36 -6 q-16 57 -21.5 70t-12.5 13h-157v-269l86 1q130 2 147 14q10 7 42 117l55 -4q1 -13 1 -39q0 -66 -11 -140q-197 0 -329.5 -2t-189.5 -4.5t-71 -2.5zM364 44q35 0 53.5 1t42 6.5t34.5 16.5t19 31.5t8 50.5v399q0 63 -32 81.5t-117 18.5q-226 0 -226 -294q0 -138 56 -224.5 t162 -86.5z" />
<glyph unicode="&#x153;" horiz-adv-x="835" d="M802 279l-26 -19l-290 -16q0 -102 39 -143.5t113 -41.5q69 0 135 34l21 -33q-33 -27 -86 -48t-111 -21q-112 0 -165 91q-57 -91 -178 -91q-106 0 -164 64t-58 177q0 117 61.5 186.5t172.5 69.5q120 0 175 -97q62 97 183 97q170 0 178 -209zM489 290l207 18q10 1 10 19 q0 44 -23.5 76t-78.5 32q-57 0 -82.5 -37.5t-32.5 -107.5zM251 435q-56 0 -82 -30q-18 -20 -29 -63.5t-11 -94.5q0 -89 36 -146t104 -57q56 0 82 30q38 45 38 158q0 90 -35 146.5t-103 56.5z" />
<glyph unicode="&#x154;" horiz-adv-x="632" d="M50 0l-6 39q53 9 64.5 20t11.5 42v491q0 31 -11.5 42t-64.5 20l6 39h278q107 0 159 -44t52 -124q0 -70 -41 -125.5t-115 -80.5v-5q10 -3 22 -22l141 -212q15 -22 29.5 -30t52.5 -11l-6 -39h-142l-198 304h-65v-227q0 -22 20 -26l55 -12l-4 -39h-238zM217 355h55 q79 0 119.5 34.5t40.5 126.5q0 124 -135 124h-60q-20 0 -20 -24v-261zM440 863l-8 -21l-201 -93l-25 36l174 129z" />
<glyph unicode="&#x155;" horiz-adv-x="432" d="M40 0l-6 39q53 9 65 20t12 37v288q0 26 -13.5 37.5t-69.5 19.5l6 32l136 13q7 0 15 -20t8 -44q0 -19 -4 -47l8 -3l13 29q18 40 54.5 63.5t77.5 23.5q34 0 66 -16q0 -82 -15 -164l-49 -5q-8 84 -18 98q-6 9 -20 9q-23 0 -48 -16.5t-40 -34.5q-17 -19 -17 -61v-226 q0 -7 1 -10.5t5.5 -6.5t13.5 -4l91 -12l-4 -39h-268zM365 735v-23l-152 -151l-35 25l107 179z" />
<glyph unicode="&#x156;" horiz-adv-x="632" d="M50 0l-6 39q53 9 64.5 20t11.5 42v491q0 31 -11.5 42t-64.5 20l6 39h278q107 0 159 -44t52 -124q0 -70 -41 -125.5t-115 -80.5v-5q10 -3 22 -22l141 -212q15 -22 29.5 -30t52.5 -11l-6 -39h-142l-198 304h-65v-227q0 -22 20 -26l55 -12l-4 -39h-238zM217 355h55 q79 0 119.5 34.5t40.5 126.5q0 124 -135 124h-60q-20 0 -20 -24v-261zM301 -210l-26 25q45 32 45 59q0 16 -11.5 32.5t-11.5 30.5q0 19 13.5 30.5t32.5 11.5q22 0 36.5 -16.5t14.5 -47.5q0 -30 -23.5 -65t-69.5 -60z" />
<glyph unicode="&#x157;" horiz-adv-x="432" d="M40 0l-6 39q53 9 65 20t12 37v288q0 26 -13.5 37.5t-69.5 19.5l6 32l136 13q7 0 15 -20t8 -44q0 -19 -4 -47l8 -3l13 29q18 40 54.5 63.5t77.5 23.5q34 0 66 -16q0 -82 -15 -164l-49 -5q-8 84 -18 98q-6 9 -20 9q-23 0 -48 -16.5t-40 -34.5q-17 -19 -17 -61v-226 q0 -7 1 -10.5t5.5 -6.5t13.5 -4l91 -12l-4 -39h-268zM118 -210l-26 25q45 31 45 59q0 16 -11.5 32.5t-11.5 30.5q0 19 13.5 30.5t32.5 11.5q22 0 36.5 -16.5t14.5 -47.5q0 -30 -23.5 -65t-69.5 -60z" />
<glyph unicode="&#x158;" horiz-adv-x="632" d="M50 0l-6 39q53 9 64.5 20t11.5 42v491q0 31 -11.5 42t-64.5 20l6 39h278q107 0 159 -44t52 -124q0 -70 -41 -125.5t-115 -80.5v-5q10 -3 22 -22l141 -212q15 -22 29.5 -30t52.5 -11l-6 -39h-142l-198 304h-65v-227q0 -22 20 -26l55 -12l-4 -39h-238zM217 355h55 q79 0 119.5 34.5t40.5 126.5q0 124 -135 124h-60q-20 0 -20 -24v-261zM152 917l139 -91l139 91l25 -26l-136 -139h-56l-136 139z" />
<glyph unicode="&#x159;" horiz-adv-x="432" d="M40 0l-6 39q53 9 65 20t12 37v288q0 26 -13.5 37.5t-69.5 19.5l6 32l136 13q7 0 15 -20t8 -44q0 -19 -4 -47l8 -3l13 29q18 40 54.5 63.5t77.5 23.5q34 0 66 -16q0 -82 -15 -164l-49 -5q-8 84 -18 98q-6 9 -20 9q-23 0 -48 -16.5t-40 -34.5q-17 -19 -17 -61v-226 q0 -7 1 -10.5t5.5 -6.5t13.5 -4l91 -12l-4 -39h-268zM164 566l-118 169l35 25l115 -118l114 118l35 -25l-118 -169h-63z" />
<glyph unicode="&#x15a;" horiz-adv-x="523" d="M445 675q3 -24 3 -51q0 -52 -11 -118l-58 -7q-11 113 -27 126q-24 21 -94 21q-57 0 -90 -24q-37 -27 -37 -76q0 -28 11 -50t40 -41t45.5 -27.5t60.5 -26.5q11 -5 16 -7q39 -17 64 -31t53.5 -37.5t42.5 -56.5t14 -76q0 -92 -63.5 -147t-173.5 -55q-59 0 -117.5 14.5 t-85.5 28.5q-3 12 -3 44q0 58 12 122l57 3q8 -72 13.5 -93t14.5 -28q17 -12 55.5 -23.5t76.5 -11.5q53 0 84 24q38 29 38 83q0 76 -86 124q-22 11 -82 37q-32 13 -51 22.5t-44.5 27t-39.5 35t-24.5 45t-10.5 60.5q0 91 67.5 144t175.5 53q82 0 154 -27zM428 863l-8 -21 l-201 -93l-25 36l174 129z" />
<glyph unicode="&#x15b;" horiz-adv-x="437" d="M57 15q-2 13 -2 41q0 52 9 99l52 4q7 -64 10.5 -78.5t10.5 -18.5q32 -18 84 -18q40 0 59 16q22 18 22 49q0 10 -3.5 19.5t-7.5 16.5t-13 14.5t-15.5 12t-20 11.5t-20.5 10.5t-24 10.5t-23 10q-56 25 -87 54.5t-31 79.5q0 62 51 101t133 39q62 0 122 -25q1 -8 1 -24 q0 -58 -13 -99l-46 -5q-7 78 -20 87q-18 13 -61 13q-49 0 -68 -16q-20 -16 -20 -44q0 -11 3 -20.5t12 -18t14.5 -14t21.5 -13.5t22.5 -11.5t27 -12t26.5 -11.5q60 -26 92.5 -55.5t32.5 -80.5q0 -63 -50.5 -105t-138.5 -42q-39 0 -81 8t-61 16zM380 735v-23l-152 -151l-35 25 l107 179z" />
<glyph unicode="&#x15c;" horiz-adv-x="523" d="M445 675q3 -24 3 -51q0 -52 -11 -118l-58 -7q-11 113 -27 126q-24 21 -94 21q-57 0 -90 -24q-37 -27 -37 -76q0 -28 11 -50t40 -41t45.5 -27.5t60.5 -26.5q11 -5 16 -7q39 -17 64 -31t53.5 -37.5t42.5 -56.5t14 -76q0 -92 -63.5 -147t-173.5 -55q-59 0 -117.5 14.5 t-85.5 28.5q-3 12 -3 44q0 58 12 122l57 3q8 -72 13.5 -93t14.5 -28q17 -12 55.5 -23.5t76.5 -11.5q53 0 84 24q38 29 38 83q0 76 -86 124q-22 11 -82 37q-32 13 -51 22.5t-44.5 27t-39.5 35t-24.5 45t-10.5 60.5q0 91 67.5 144t175.5 53q82 0 154 -27zM412 749l-139 91 l-139 -91l-25 26l136 139h56l136 -139z" />
<glyph unicode="&#x15d;" horiz-adv-x="437" d="M57 15q-2 13 -2 41q0 52 9 99l52 4q7 -64 10.5 -78.5t10.5 -18.5q32 -18 84 -18q40 0 59 16q22 18 22 49q0 10 -3.5 19.5t-7.5 16.5t-13 14.5t-15.5 12t-20 11.5t-20.5 10.5t-24 10.5t-23 10q-56 25 -87 54.5t-31 79.5q0 62 51 101t133 39q62 0 122 -25q1 -8 1 -24 q0 -58 -13 -99l-46 -5q-7 78 -20 87q-18 13 -61 13q-49 0 -68 -16q-20 -16 -20 -44q0 -11 3 -20.5t12 -18t14.5 -14t21.5 -13.5t22.5 -11.5t27 -12t26.5 -11.5q60 -26 92.5 -55.5t32.5 -80.5q0 -63 -50.5 -105t-138.5 -42q-39 0 -81 8t-61 16zM262 755l118 -169l-35 -25 l-115 118l-114 -118l-35 25l118 169h63z" />
<glyph unicode="&#x15e;" horiz-adv-x="523" d="M445 675q3 -24 3 -51q0 -52 -11 -118l-58 -7q-11 113 -27 126q-24 21 -94 21q-57 0 -90 -24q-37 -27 -37 -76q0 -28 11 -50t40 -41t45.5 -27.5t60.5 -26.5q11 -5 16 -7q39 -17 64 -31t53.5 -37.5t42.5 -56.5t14 -76q0 -92 -63.5 -147t-173.5 -55q-59 0 -117.5 14.5 t-85.5 28.5q-3 12 -3 44q0 58 12 122l57 3q8 -72 13.5 -93t14.5 -28q17 -12 55.5 -23.5t76.5 -11.5q53 0 84 24q38 29 38 83q0 76 -86 124q-22 11 -82 37q-32 13 -51 22.5t-44.5 27t-39.5 35t-24.5 45t-10.5 60.5q0 91 67.5 144t175.5 53q82 0 154 -27zM201 -89l38 129 l49 -13l-32 -113zM206 -217l-4 31q44 5 69.5 20.5t25.5 37.5q0 16 -12 27t-34 11q-23 0 -41 -10l-9 11l48 37q22 7 45 7q40 0 62.5 -17t22.5 -47q0 -42 -46.5 -73t-126.5 -35z" />
<glyph unicode="&#x15f;" horiz-adv-x="437" d="M57 15q-2 13 -2 41q0 52 9 99l52 4q7 -64 10.5 -78.5t10.5 -18.5q32 -18 84 -18q40 0 59 16q22 18 22 49q0 10 -3.5 19.5t-7.5 16.5t-13 14.5t-15.5 12t-20 11.5t-20.5 10.5t-24 10.5t-23 10q-56 25 -87 54.5t-31 79.5q0 62 51 101t133 39q62 0 122 -25q1 -8 1 -24 q0 -58 -13 -99l-46 -5q-7 78 -20 87q-18 13 -61 13q-49 0 -68 -16q-20 -16 -20 -44q0 -11 3 -20.5t12 -18t14.5 -14t21.5 -13.5t22.5 -11.5t27 -12t26.5 -11.5q60 -26 92.5 -55.5t32.5 -80.5q0 -63 -50.5 -105t-138.5 -42q-39 0 -81 8t-61 16zM155 -89l38 129l49 -13 l-32 -113zM160 -217l-4 31q95 13 95 58q0 16 -12 27t-34 11q-23 0 -41 -10l-9 11l48 37q22 7 45 7q40 0 62.5 -17t22.5 -47q0 -42 -46.5 -73t-126.5 -35z" />
<glyph unicode="&#x160;" horiz-adv-x="523" d="M445 675q3 -24 3 -51q0 -52 -11 -118l-58 -7q-11 113 -27 126q-24 21 -94 21q-57 0 -90 -24q-37 -27 -37 -76q0 -28 11 -50t40 -41t45.5 -27.5t60.5 -26.5q11 -5 16 -7q39 -17 64 -31t53.5 -37.5t42.5 -56.5t14 -76q0 -92 -63.5 -147t-173.5 -55q-59 0 -117.5 14.5 t-85.5 28.5q-3 12 -3 44q0 58 12 122l57 3q8 -72 13.5 -93t14.5 -28q17 -12 55.5 -23.5t76.5 -11.5q53 0 84 24q38 29 38 83q0 76 -86 124q-22 11 -82 37q-32 13 -51 22.5t-44.5 27t-39.5 35t-24.5 45t-10.5 60.5q0 91 67.5 144t175.5 53q82 0 154 -27zM142 917l139 -91 l139 91l25 -26l-136 -139h-56l-136 139z" />
<glyph unicode="&#x161;" horiz-adv-x="437" d="M57 15q-2 13 -2 41q0 52 9 99l52 4q7 -64 10.5 -78.5t10.5 -18.5q32 -18 84 -18q40 0 59 16q22 18 22 49q0 10 -3.5 19.5t-7.5 16.5t-13 14.5t-15.5 12t-20 11.5t-20.5 10.5t-24 10.5t-23 10q-56 25 -87 54.5t-31 79.5q0 62 51 101t133 39q62 0 122 -25q1 -8 1 -24 q0 -58 -13 -99l-46 -5q-7 78 -20 87q-18 13 -61 13q-49 0 -68 -16q-20 -16 -20 -44q0 -11 3 -20.5t12 -18t14.5 -14t21.5 -13.5t22.5 -11.5t27 -12t26.5 -11.5q60 -26 92.5 -55.5t32.5 -80.5q0 -63 -50.5 -105t-138.5 -42q-39 0 -81 8t-61 16zM187 566l-118 169l35 25 l115 -118l114 118l35 -25l-118 -169h-63z" />
<glyph unicode="&#x164;" horiz-adv-x="577" d="M149 39q63 10 77 20.5t14 41.5v540q-129 -2 -141 -7q-6 -3 -10.5 -8.5t-12.5 -33t-17 -79.5l-51 4q-1 15 -1 43q0 59 9 133h545q9 -74 9 -133q0 -28 -1 -43l-51 -4q-9 52 -17 79.5t-12.5 33t-10.5 8.5q-12 5 -141 7v-564q0 -23 20 -26l77 -12l-4 -39h-275zM149 917 l139 -91l139 91l25 -26l-136 -139h-56l-136 139z" />
<glyph unicode="&#x165;" horiz-adv-x="350" d="M85 137v275h-65l-4 43l49 12q19 5 25.5 22.5t23.5 111.5l61 6v-134h139l-8 -47l-131 -15v-244q0 -104 64 -104q36 0 76 30l21 -29q-54 -73 -132 -73q-56 0 -87.5 39t-31.5 107zM317 774l12 -19q-9 -96 -65 -178l-42 14q14 53 14 103q0 31 -4 58z" />
<glyph unicode="&#x166;" horiz-adv-x="577" d="M149 39q63 10 77 20.5t14 41.5v540q-129 -2 -141 -7q-6 -3 -10.5 -8.5t-12.5 -33t-17 -79.5l-51 4q-1 15 -1 43q0 59 9 133h545q9 -74 9 -133q0 -28 -1 -43l-51 -4q-9 52 -17 79.5t-12.5 33t-10.5 8.5q-12 5 -141 7v-564q0 -23 20 -26l77 -12l-4 -39h-275zM63 344v53h451 v-53h-451z" />
<glyph unicode="&#x167;" horiz-adv-x="350" d="M85 137v275h-65l-4 43l49 12q19 5 25.5 22.5t23.5 111.5l61 6v-134h139l-8 -47l-131 -15v-244q0 -104 64 -104q36 0 76 30l21 -29q-54 -73 -132 -73q-56 0 -87.5 39t-31.5 107zM18 252v53h293v-53h-293z" />
<glyph unicode="&#x168;" horiz-adv-x="736" d="M574 573q0 44 -16.5 59t-79.5 22l6 39h235l4 -39l-62 -12q-9 -2 -14 -6.5t-5.5 -8t-0.5 -11.5v-359q0 -123 -67 -194.5t-201 -71.5q-258 0 -258 258v343q0 31 -11.5 42t-64.5 20l6 39h245l4 -39l-62 -12q-20 -4 -20 -26v-352q0 -102 42 -154t135 -52q96 0 140.5 56 t44.5 135v324zM540 891l25 -12q-21 -46 -42.5 -73.5t-49.5 -27.5q-17 0 -83.5 13.5t-90.5 13.5q-38 0 -72 -34l-23 16q32 53 55 74.5t48 21.5q21 0 85.5 -13.5t84.5 -13.5q30 0 63 35z" />
<glyph unicode="&#x169;" horiz-adv-x="577" d="M92 124v264q0 21 -16 30.5t-60 18.5l6 32q107 14 149 14l11 -10v-306q0 -104 79 -104q51 0 106 39q13 9 17 17.5t4 28.5v240q0 21 -16 30.5t-60 18.5l6 32q107 14 149 14l11 -10v-374q0 -26 12.5 -36.5t63.5 -20.5l-6 -32l-129 -14q-7 -1 -14.5 26.5t-7.5 47.5v6l-8 3 l-12 -14q-63 -74 -154 -74q-61 0 -96 32.5t-35 100.5zM444 715l25 -13q-21 -49 -42.5 -78t-49.5 -29q-17 0 -83.5 21t-90.5 21q-38 0 -72 -42l-23 17q32 56 55 79t48 23q21 0 85.5 -21t84.5 -21q29 0 63 43z" />
<glyph unicode="&#x16a;" horiz-adv-x="736" d="M574 573q0 44 -16.5 59t-79.5 22l6 39h235l4 -39l-62 -12q-9 -2 -14 -6.5t-5.5 -8t-0.5 -11.5v-359q0 -123 -67 -194.5t-201 -71.5q-258 0 -258 258v343q0 31 -11.5 42t-64.5 20l6 39h245l4 -39l-62 -12q-20 -4 -20 -26v-352q0 -102 42 -154t135 -52q96 0 140.5 56 t44.5 135v324zM251 776v60h249v-60h-249z" />
<glyph unicode="&#x16b;" horiz-adv-x="577" d="M92 124v264q0 21 -16 30.5t-60 18.5l6 32q107 14 149 14l11 -10v-306q0 -104 79 -104q51 0 106 39q13 9 17 17.5t4 28.5v240q0 21 -16 30.5t-60 18.5l6 32q107 14 149 14l11 -10v-374q0 -26 12.5 -36.5t63.5 -20.5l-6 -32l-129 -14q-7 -1 -14.5 26.5t-7.5 47.5v6l-8 3 l-12 -14q-63 -74 -154 -74q-61 0 -96 32.5t-35 100.5zM152 642v60h249v-60h-249z" />
<glyph unicode="&#x16c;" horiz-adv-x="736" d="M574 573q0 44 -16.5 59t-79.5 22l6 39h235l4 -39l-62 -12q-9 -2 -14 -6.5t-5.5 -8t-0.5 -11.5v-359q0 -123 -67 -194.5t-201 -71.5q-258 0 -258 258v343q0 31 -11.5 42t-64.5 20l6 39h245l4 -39l-62 -12q-20 -4 -20 -26v-352q0 -102 42 -154t135 -52q96 0 140.5 56 t44.5 135v324zM491 900h37q-4 -62 -41 -101t-108 -39t-108 39t-41 101h37q17 -72 112 -72t112 72z" />
<glyph unicode="&#x16d;" horiz-adv-x="577" d="M92 124v264q0 21 -16 30.5t-60 18.5l6 32q107 14 149 14l11 -10v-306q0 -104 79 -104q51 0 106 39q13 9 17 17.5t4 28.5v240q0 21 -16 30.5t-60 18.5l6 32q107 14 149 14l11 -10v-374q0 -26 12.5 -36.5t63.5 -20.5l-6 -32l-129 -14q-7 -1 -14.5 26.5t-7.5 47.5v6l-8 3 l-12 -14q-63 -74 -154 -74q-61 0 -96 32.5t-35 100.5zM390 720h37q-4 -67 -41 -110t-108 -43t-108 43t-41 110h37q17 -85 112 -85t112 85z" />
<glyph unicode="&#x16e;" horiz-adv-x="736" d="M574 573q0 44 -16.5 59t-79.5 22l6 39h235l4 -39l-62 -12q-9 -2 -14 -6.5t-5.5 -8t-0.5 -11.5v-359q0 -123 -67 -194.5t-201 -71.5q-258 0 -258 258v343q0 31 -11.5 42t-64.5 20l6 39h245l4 -39l-62 -12q-20 -4 -20 -26v-352q0 -102 42 -154t135 -52q96 0 140.5 56 t44.5 135v324zM371 739q-41 0 -68.5 23.5t-27.5 64.5t29.5 66.5t71.5 25.5q40 0 68 -24t28 -63q0 -41 -29.5 -67t-71.5 -26zM371 782q22 0 36.5 14t14.5 36q0 20 -13 32t-33 12q-52 0 -52 -49q0 -21 13 -33t34 -12z" />
<glyph unicode="&#x16f;" horiz-adv-x="577" d="M92 124v264q0 21 -16 30.5t-60 18.5l6 32q107 14 149 14l11 -10v-306q0 -104 79 -104q51 0 106 39q13 9 17 17.5t4 28.5v240q0 21 -16 30.5t-60 18.5l6 32q107 14 149 14l11 -10v-374q0 -26 12.5 -36.5t63.5 -20.5l-6 -32l-129 -14q-7 -1 -14.5 26.5t-7.5 47.5v6l-8 3 l-12 -14q-63 -74 -154 -74q-61 0 -96 32.5t-35 100.5zM263 564q-46 0 -71 24.5t-25 68.5q0 46 26.5 72t74.5 26q46 0 71 -24.5t25 -67.5q0 -45 -26.5 -72t-74.5 -27zM263 607q24 0 37.5 15.5t13.5 40.5q0 49 -46 49q-24 0 -38 -15t-14 -40q0 -50 47 -50z" />
<glyph unicode="&#x170;" horiz-adv-x="736" d="M574 573q0 44 -16.5 59t-79.5 22l6 39h235l4 -39l-62 -12q-9 -2 -14 -6.5t-5.5 -8t-0.5 -11.5v-359q0 -123 -67 -194.5t-201 -71.5q-258 0 -258 258v343q0 31 -11.5 42t-64.5 20l6 39h245l4 -39l-62 -12q-20 -4 -20 -26v-352q0 -102 42 -154t135 -52q96 0 140.5 56 t44.5 135v324zM643 885v-23l-177 -111l-35 25l117 139zM445 885v-23l-177 -111l-35 25l117 139z" />
<glyph unicode="&#x171;" horiz-adv-x="577" d="M92 124v264q0 21 -16 30.5t-60 18.5l6 32q107 14 149 14l11 -10v-306q0 -104 79 -104q51 0 106 39q13 9 17 17.5t4 28.5v240q0 21 -16 30.5t-60 18.5l6 32q107 14 149 14l11 -10v-374q0 -26 12.5 -36.5t63.5 -20.5l-6 -32l-129 -14q-7 -1 -14.5 26.5t-7.5 47.5v6l-8 3 l-12 -14q-63 -74 -154 -74q-61 0 -96 32.5t-35 100.5zM506 735v-23l-167 -151l-35 25l107 179zM308 735v-23l-167 -151l-35 25l107 179z" />
<glyph unicode="&#x172;" horiz-adv-x="736" d="M473 31l4 -26q-53 -17 -81.5 -45t-28.5 -63q0 -26 15.5 -41t39.5 -15q31 0 60 10l12 -20q-51 -46 -110 -46q-39 0 -68.5 27.5t-29.5 68.5q0 48 46 87.5t141 62.5zM574 573q0 44 -16.5 59t-79.5 22l6 39h235l4 -39l-62 -12q-9 -2 -14 -6.5t-5.5 -8t-0.5 -11.5v-359 q0 -123 -67 -194.5t-201 -71.5q-258 0 -258 258v343q0 31 -11.5 42t-64.5 20l6 39h245l4 -39l-62 -12q-20 -4 -20 -26v-352q0 -102 42 -154t135 -52q96 0 140.5 56t44.5 135v324z" />
<glyph unicode="&#x173;" horiz-adv-x="577" d="M556 -169q-51 -46 -110 -46q-39 0 -68.5 25.5t-29.5 64.5q0 61 54.5 111t144.5 50v-26q-49 -2 -83.5 -34.5t-34.5 -80.5q0 -26 15.5 -40t39.5 -14q31 0 60 10zM92 124v264q0 21 -16 30.5t-60 18.5l6 32q107 14 149 14l11 -10v-306q0 -104 79 -104q51 0 106 39 q13 9 17 17.5t4 28.5v240q0 21 -16 30.5t-60 18.5l6 32q107 14 149 14l11 -10v-374q0 -26 12.5 -36.5t63.5 -20.5l-6 -32l-129 -14q-7 -1 -14.5 26.5t-7.5 47.5v6l-8 3l-12 -14q-63 -74 -154 -74q-61 0 -96 32.5t-35 100.5z" />
<glyph unicode="&#x174;" horiz-adv-x="930" d="M591 -9l-108 364q-5 15 -5 26h-8q0 -11 -6 -26l-121 -364h-71l-209 619q-7 21 -18 27.5t-49 15.5l7 40h223l4 -41l-56 -19q-7 -1 -7 -7q0 -3 4 -15l139 -449q9 -32 9 -34h10l115 364l-35 118q-3 12 -6.5 18t-13 11t-14 6.5t-26.5 7.5l7 40h211l4 -41l-71 -19q-7 -1 -7 -7 q0 -3 4 -15l132 -449q9 -31 9 -34h10l140 441q11 37 11 49q0 22 -77 35l6 40h205l4 -42q-41 -9 -53 -19t-21 -37l-200 -604h-72zM604 749l-139 91l-139 -91l-25 26l136 139h56l136 -139z" />
<glyph unicode="&#x175;" horiz-adv-x="754" d="M207 -9l-145 407q-7 19 -14 24t-40 12l6 39h185l4 -39l-44 -14q-7 -1 -7 -7q0 -1 4 -13l92 -288q4 -10 4 -24v-4h8q0 11 8 30l91 227l-19 57q-6 18 -12.5 23.5t-31.5 12.5l6 39h164l4 -39l-44 -14q-7 -1 -7 -7q0 -1 4 -13l91 -288q4 -12 4 -24v-4h8q0 6 8 30l91 261 q6 16 6 24q0 3 -0.5 5.5t-2.5 5t-3.5 4t-5 3.5t-6 3.5t-7.5 3.5t-8.5 3t-9.5 3.5t-10 3.5l6 39h164l4 -39q-32 -8 -39 -10.5t-8 -6.5l-166 -426h-65l-82 252q-5 15 -5 27h-8q0 -11 -6 -26l-101 -253h-65zM411 755l118 -169l-35 -25l-115 118l-114 -118l-35 25l118 169h63z " />
<glyph unicode="&#x176;" horiz-adv-x="598" d="M319 361l111 215q21 40 21 48q0 10 -12.5 15.5t-47.5 13.5l6 40h198l4 -42q-44 -9 -61 -19.5t-29 -34.5l-158 -310v-210q0 -23 20 -26l77 -12l-4 -39h-275l-6 39q63 10 77 20.5t14 41.5v178l-180 331q-13 22 -23.5 28.5t-45.5 14.5l7 40h235l4 -41l-67 -18q-7 -1 -7 -7 q0 -4 7 -16l115 -221q10 -17 10 -29h10zM452 749l-139 91l-139 -91l-25 26l136 139h56l136 -139z" />
<glyph unicode="&#x177;" horiz-adv-x="500" d="M29 -117q24 -3 64 -3q45 0 67 9q28 12 63 111l-166 398q-8 19 -14.5 24t-38.5 12l6 39h206l4 -39l-61 -15q-7 -1 -7 -8q0 -1 4 -13l102 -267q5 -14 5 -31h8l106 275q6 16 6 24q0 13 -14.5 20t-51.5 15l6 39h178l4 -39q-44 -10 -47 -17l-158 -392q-20 -50 -32 -76.5 t-33 -59.5t-44 -50.5t-57.5 -33.5t-80.5 -24q-26 26 -26 82q0 6 2 20zM299 755l118 -169l-35 -25l-115 118l-114 -118l-35 25l118 169h63z" />
<glyph unicode="&#x178;" horiz-adv-x="598" d="M319 361l111 215q21 40 21 48q0 10 -12.5 15.5t-47.5 13.5l6 40h198l4 -42q-44 -9 -61 -19.5t-29 -34.5l-158 -310v-210q0 -23 20 -26l77 -12l-4 -39h-275l-6 39q63 10 77 20.5t14 41.5v178l-180 331q-13 22 -23.5 28.5t-45.5 14.5l7 40h235l4 -41l-67 -18q-7 -1 -7 -7 q0 -4 7 -16l115 -221q10 -17 10 -29h10zM414 775q-52 0 -52 56q0 22 14.5 38t37.5 16q53 0 53 -54q0 -23 -15 -39.5t-38 -16.5zM221 775q-52 0 -52 56q0 22 14.5 38t37.5 16q53 0 53 -54q0 -23 -15 -39.5t-38 -16.5z" />
<glyph unicode="&#x179;" horiz-adv-x="607" d="M120 510l-63 7q-2 42 -2 72q0 55 9 104h509v-26l-382 -586q-13 -19 -22 -23l2 -6h150q106 0 130 7q16 5 56 154l55 -5q1 -17 1 -51q0 -71 -11 -157h-517v26l381 586q13 19 22 23l-2 7h-96q-137 0 -179 -6q-15 -1 -41 -126zM455 863l-8 -21l-201 -93l-25 36l174 129z" />
<glyph unicode="&#x17a;" horiz-adv-x="443" d="M28 0v26l253 366q16 20 22 23l-2 7h-114q-39 0 -66 -3q-7 -1 -12 -14.5t-19 -69.5l-46 5q-2 32 -2 54q0 42 6 79h366v-28l-250 -364q-13 -19 -22 -23l2 -7l49 1q107 2 127 7q18 4 40 99l52 -4q-2 -80 -11 -154h-373zM374 735v-23l-152 -151l-35 25l107 179z" />
<glyph unicode="&#x17d;" horiz-adv-x="607" d="M120 510l-63 7q-2 42 -2 72q0 55 9 104h509v-26l-382 -586q-13 -19 -22 -23l2 -6h150q106 0 130 7q16 5 56 154l55 -5q1 -17 1 -51q0 -71 -11 -157h-517v26l381 586q13 19 22 23l-2 7h-96q-137 0 -179 -6q-15 -1 -41 -126zM185 917l139 -91l139 91l25 -26l-136 -139h-56 l-136 139z" />
<glyph unicode="&#x17e;" horiz-adv-x="443" d="M28 0v26l253 366q16 20 22 23l-2 7h-114q-39 0 -66 -3q-7 -1 -12 -14.5t-19 -69.5l-46 5q-2 32 -2 54q0 42 6 79h366v-28l-250 -364q-13 -19 -22 -23l2 -7l49 1q107 2 127 7q18 4 40 99l52 -4q-2 -80 -11 -154h-373zM193 566l-118 169l35 25l115 -118l114 118l35 -25 l-118 -169h-63z" />
<glyph unicode="&#x17f;" horiz-adv-x="350" d="M423 749q0 -76 -13 -121l-53 -5q-16 81 -24 86q-16 10 -42 10q-86 0 -86 -253v-394q0 -10 4 -14.5t18 -6.5l75 -12l-4 -39h-247l-6 39q49 10 59.5 20.5t10.5 36.5v309h-65l-4 43l49 12q13 3 17 11t5 24q1 22 3.5 40t8.5 55t19.5 65t33.5 56.5t52.5 44.5t74.5 16 q54 0 114 -23z" />
<glyph unicode="&#x192;" horiz-adv-x="350" d="M390 638l-53 -5q-11 49 -15 61t-9 15q-16 10 -37 10q-71 0 -71 -253h118l-8 -47l-110 -15v-285q0 -43 -3 -81.5t-13.5 -88t-28 -84.5t-51 -59.5t-78.5 -24.5q-54 0 -114 23q0 71 13 111l53 5q11 -49 15 -61t9 -15q16 -10 37 -10q71 0 71 253v318h-65l-4 43l49 12 q13 3 17 11t5 24q1 23 3 40t8 54.5t17.5 65t29.5 56.5t47.5 45t66.5 16q54 0 114 -23q0 -71 -13 -111z" />
<glyph unicode="&#x1e6;" horiz-adv-x="681" d="M587 37q-33 -17 -95.5 -31.5t-127.5 -14.5q-163 0 -246 96t-83 244q0 54 10.5 104t36.5 99.5t65 86t100 59t138 22.5q55 0 116 -10t80 -18q6 -37 6 -94q0 -24 -2 -74l-57 -8q-22 116 -39 128q-9 7 -46.5 15t-74.5 8q-110 0 -166 -81t-56 -213q0 -156 71 -232t176 -76 q55 0 97 16v139q0 31 -11.5 42t-64.5 20l6 39h234l4 -39l-51 -12q-20 -4 -20 -26v-189zM213 917l139 -91l139 91l25 -26l-136 -139h-56l-136 139z" />
<glyph unicode="&#x1e7;" horiz-adv-x="554" d="M392 422l-13 31q69 35 134 37q10 -17 10 -50q0 -14 -3 -23q-34 8 -72 8q-36 0 -56 -3zM256 162q-81 0 -131.5 40t-50.5 119q0 82 55 124.5t139 42.5q81 0 131.5 -40.5t50.5 -118.5q0 -82 -55 -124.5t-139 -42.5zM265 211q93 0 93 110q0 118 -99 118q-93 0 -93 -110 q0 -118 99 -118zM74 61q0 40 29.5 76.5t67.5 60.5l15 -14q-39 -41 -39 -79q0 -15 8 -24t26 -12t31 -4t38 -1q36 0 56.5 -0.5t52.5 -3.5t50.5 -10t38 -18t28.5 -30t9 -44q0 -72 -72 -124.5t-194 -52.5q-164 0 -164 94q0 34 19.5 58.5t56.5 51.5q-57 18 -57 76zM160 -24 q-28 -31 -28 -71q0 -32 30 -53t95 -21q80 0 120 30t40 63q0 27 -33 33.5t-104.5 7.5t-119.5 11zM218 566l-118 169l35 25l115 -118l114 118l35 -25l-118 -169h-63z" />
<glyph unicode="&#x237;" horiz-adv-x="280" d="M100 68v315q0 21 -16 30.5t-60 18.5l6 32q107 14 149 14l11 -10v-430q0 -94 -56 -175.5t-108 -81.5q-36 0 -76 7q-3 12 -3 24q0 30 17 58q40 -10 62 -10q19 0 29 7q21 14 33 71.5t12 129.5z" />
<glyph unicode="&#x2bc;" horiz-adv-x="109" d="M24 557l-24 23q33 39 33 84q0 14 -13.5 31t-13.5 30q0 19 12.5 30t29.5 11q51 0 51 -71q0 -80 -75 -138z" />
<glyph unicode="&#x2c6;" horiz-adv-x="299" d="M181 755l118 -169l-35 -25l-115 118l-114 -118l-35 25l118 169h63z" />
<glyph unicode="&#x2c7;" horiz-adv-x="299" d="M118 566l-118 169l35 25l115 -118l114 118l35 -25l-118 -169h-63z" />
<glyph unicode="&#x2d8;" horiz-adv-x="512" d="M351 720h37q-4 -67 -41 -110t-108 -43t-108 43t-41 110h37q17 -85 112 -85t112 85z" />
<glyph unicode="&#x2d9;" horiz-adv-x="312" d="M145 597q-25 0 -41.5 15t-16.5 44q0 24 15.5 40t42.5 16q57 0 57 -56q0 -25 -15.5 -42t-41.5 -17z" />
<glyph unicode="&#x2da;" horiz-adv-x="518" d="M229 564q-46 0 -71 24.5t-25 68.5q0 46 26.5 72t74.5 26q46 0 71 -24.5t25 -67.5q0 -45 -26.5 -72t-74.5 -27zM229 607q24 0 37.5 15.5t13.5 40.5q0 49 -46 49q-24 0 -38 -15t-14 -40q0 -50 47 -50z" />
<glyph unicode="&#x2db;" horiz-adv-x="620" d="M450 -169q-51 -46 -110 -46q-40 0 -69 27.5t-29 73.5q0 52 44.5 98.5t142.5 95.5l12 -22q-60 -43 -89 -79t-29 -82q0 -26 15.5 -41t39.5 -15q32 0 60 10z" />
<glyph unicode="&#x2dc;" horiz-adv-x="361" d="M336 715l25 -13q-21 -49 -42.5 -78t-49.5 -29q-17 0 -83.5 21t-90.5 21q-38 0 -72 -42l-23 17q32 56 55 79t48 23q21 0 85.5 -21t84.5 -21q29 0 63 43z" />
<glyph unicode="&#x2dd;" horiz-adv-x="396" d="M396 735v-23l-167 -151l-35 25l107 179zM198 735v-23l-167 -151l-35 25l107 179z" />
<glyph unicode="&#x307;" horiz-adv-x="312" d="M145 597q-25 0 -41.5 15t-16.5 44q0 24 15.5 40t42.5 16q57 0 57 -56q0 -25 -15.5 -42t-41.5 -17z" />
<glyph unicode="&#x308;" horiz-adv-x="230" d="M211 775q-52 0 -52 56q0 22 14.5 38t37.5 16q53 0 53 -54q0 -23 -15 -39.5t-38 -16.5zM18 775q-52 0 -52 56q0 22 14.5 38t37.5 16q53 0 53 -54q0 -23 -15 -39.5t-38 -16.5z" />
<glyph unicode="&#x387;" horiz-adv-x="232" d="M115 334q-24 0 -40.5 15t-16.5 44q0 23 16 39.5t41 16.5q58 0 58 -56q0 -24 -16 -41.5t-42 -17.5z" />
<glyph unicode="&#x3c0;" horiz-adv-x="596" d="M498 52l5 -39q-68 -22 -103 -22q-58 0 -58 71q0 91 20 334h-137q-4 -90 -18 -216t-27 -180h-116l-6 39q41 9 54 27q32 47 46 329q-54 -2 -56 -3q-8 -2 -13.5 -15.5t-17.5 -64.5l-46 5q-2 32 -2 50q0 69 6 106h376q44 0 58 4q18 6 39 78l46 -4q1 -9 1 -30q0 -69 -16 -124 h-104q-13 -128 -13 -276q0 -42 5.5 -57t25.5 -15q31 0 51 3z" />
<glyph unicode="&#x2013;" horiz-adv-x="500" d="M10 271h492l-12 -53h-492z" />
<glyph unicode="&#x2014;" horiz-adv-x="1000" d="M10 271h992l-12 -53h-992z" />
<glyph unicode="&#x2018;" horiz-adv-x="215" d="M139 766l27 -26q-47 -56 -47 -106q0 -18 16 -37.5t16 -35.5q0 -21 -15.5 -34t-36.5 -13q-25 0 -41 19.5t-16 56.5q0 44 24.5 91.5t72.5 84.5z" />
<glyph unicode="&#x2019;" horiz-adv-x="215" d="M76 514l-27 26q47 56 47 106q0 18 -16 37.5t-16 35.5q0 21 15.5 34t36.5 13q25 0 41 -19.5t16 -56.5q0 -44 -24.5 -91.5t-72.5 -84.5z" />
<glyph unicode="&#x201a;" horiz-adv-x="234" d="M82 -139l-27 26q47 56 47 106q0 18 -16 37.5t-16 35.5q0 21 15.5 34t36.5 13q25 0 41 -19.5t16 -56.5q0 -44 -24.5 -91.5t-72.5 -84.5z" />
<glyph unicode="&#x201c;" horiz-adv-x="406" d="M330 766l27 -26q-47 -56 -47 -106q0 -18 16 -37.5t16 -35.5q0 -21 -15.5 -34t-36.5 -13q-25 0 -41 19.5t-16 56.5q0 44 24.5 91.5t72.5 84.5zM139 766l27 -26q-47 -56 -47 -106q0 -18 16 -37.5t16 -35.5q0 -21 -15.5 -34t-36.5 -13q-25 0 -41 19.5t-16 56.5 q0 44 24.5 91.5t72.5 84.5z" />
<glyph unicode="&#x201d;" horiz-adv-x="406" d="M267 514l-27 26q47 56 47 106q0 18 -16 37.5t-16 35.5q0 21 15.5 34t36.5 13q25 0 41 -19.5t16 -56.5q0 -44 -24.5 -91.5t-72.5 -84.5zM76 514l-27 26q47 56 47 106q0 18 -16 37.5t-16 35.5q0 21 15.5 34t36.5 13q25 0 41 -19.5t16 -56.5q0 -44 -24.5 -91.5t-72.5 -84.5z " />
<glyph unicode="&#x201e;" horiz-adv-x="425" d="M273 -139l-27 26q47 56 47 106q0 18 -16 37.5t-16 35.5q0 21 15.5 34t36.5 13q25 0 41 -19.5t16 -56.5q0 -44 -24.5 -91.5t-72.5 -84.5zM82 -139l-27 26q47 56 47 106q0 18 -16 37.5t-16 35.5q0 21 15.5 34t36.5 13q25 0 41 -19.5t16 -56.5q0 -44 -24.5 -91.5 t-72.5 -84.5z" />
<glyph unicode="&#x2020;" horiz-adv-x="508" d="M269 -219h-40l-30 386l24 189q5 35 13 46l-9 11q-19 -9 -46 -14l-112 -20l-34 90l18 14l126 -24q40 -8 46 -13l11 9q-11 23 -14 46l-20 173l90 34l14 -18l-24 -187q-6 -37 -13 -46l11 -12q28 12 45 15l116 20l32 -90l-17 -14l-130 24q-39 8 -46 13l-12 -11q13 -31 15 -45 l20 -175z" />
<glyph unicode="&#x2021;" horiz-adv-x="508" d="M35 92l18 14l126 -24q40 -8 46 -13l11 9q-10 19 -14 46l-21 113l22 119q8 39 13 46l-9 11q-19 -9 -46 -14l-112 -20l-34 90l18 14l126 -24q40 -8 46 -13l11 9q-11 23 -14 46l-20 173l90 34l14 -18l-24 -187q-6 -37 -13 -46l11 -12q28 12 45 15l116 20l32 -90l-17 -14 l-130 24q-39 8 -46 13l-12 -11q12 -28 15 -45l22 -104l-23 -127q-6 -37 -13 -46l11 -12q28 12 45 15l116 20l32 -90l-17 -14l-130 24q-39 8 -46 13l-12 -11q13 -31 15 -45l20 -167l-90 -32l-14 17l24 181q5 35 13 46l-9 11q-19 -10 -46 -14l-112 -20z" />
<glyph unicode="&#x2022;" horiz-adv-x="343" d="M172 127q-58 0 -95 32.5t-37 96.5q0 53 35.5 90t96.5 37q57 0 94 -30.5t37 -96.5q0 -54 -36 -91.5t-95 -37.5z" />
<glyph unicode="&#x2026;" horiz-adv-x="860" d="M703 -9q-26 0 -43 15.5t-17 46.5q0 24 16.5 42t43.5 18q62 0 62 -60q0 -26 -17 -44t-45 -18zM429 -9q-26 0 -43 15.5t-17 46.5q0 24 16.5 42t43.5 18q62 0 62 -60q0 -26 -17 -44t-45 -18zM155 -9q-26 0 -43 15.5t-17 46.5q0 24 16.5 42t43.5 18q62 0 62 -60 q0 -26 -17 -44t-45 -18z" />
<glyph unicode="&#x2030;" horiz-adv-x="1187" d="M589 693h65l-446 -693h-66zM990 -9q-75 0 -118.5 58.5t-43.5 142.5q0 89 46.5 152t125.5 63q75 0 118.5 -59t43.5 -143q0 -88 -46.5 -151t-125.5 -63zM988 364q-38 0 -58 -41.5t-20 -115.5q0 -86 24.5 -129.5t66.5 -43.5q79 0 79 150q0 85 -24.5 132.5t-67.5 47.5z M611 -9q-75 0 -118.5 58.5t-43.5 142.5q0 89 46.5 152t125.5 63q75 0 118.5 -59t43.5 -143q0 -88 -46.5 -151t-125.5 -63zM609 364q-38 0 -58 -41.5t-20 -115.5q0 -86 24.5 -129.5t66.5 -43.5q79 0 79 150q0 85 -24.5 132.5t-67.5 47.5zM187 286q-75 0 -118.5 58.5 t-43.5 142.5q0 89 46.5 152t125.5 63q75 0 118.5 -59t43.5 -143q0 -88 -46.5 -151t-125.5 -63zM185 659q-38 0 -58 -41.5t-20 -115.5q0 -86 24.5 -129.5t66.5 -43.5q79 0 79 150q0 85 -24.5 132.5t-67.5 47.5z" />
<glyph unicode="&#x2039;" horiz-adv-x="284" d="M244 414l-105 -162l105 -174l-21 -16l-163 182v16l163 170z" />
<glyph unicode="&#x203a;" horiz-adv-x="284" d="M145 252l-105 162l21 16l163 -170v-16l-163 -182l-21 16z" />
<glyph unicode="&#x2042;" horiz-adv-x="771" d="M412 744l9 -12l-16 -114q-4 -24 -8 -30l7 -4q6 12 20 23l85 63l47 -40l-5 -13l-106 -44q-19 -8 -30 -8v-8q18 0 29 -5l97 -42l-11 -61l-14 -2l-91 70q-19 16 -22 22l-7 -4q9 -18 10 -29l13 -105l-59 -21l-9 11l16 114q4 24 8 30l-7 4q-6 -13 -21 -23l-84 -63l-48 40l5 13 l107 43q19 8 30 8v8q-13 0 -30 6l-97 41l11 62l14 2l91 -71q19 -16 22 -22l7 4q-8 16 -9 30l-13 105zM222 406l9 -12l-16 -114q-4 -24 -8 -30l7 -4q6 12 20 23l85 63l47 -40l-5 -13l-106 -44q-19 -8 -30 -8v-8q18 0 29 -5l97 -42l-11 -61l-14 -2l-91 70q-19 16 -22 22l-7 -4 q9 -18 10 -29l13 -105l-59 -21l-9 11l16 114q4 24 8 30l-7 4q-6 -13 -21 -23l-84 -63l-48 40l5 13l107 43q19 8 30 8v8q-13 0 -30 6l-97 41l11 62l14 2l91 -71q19 -16 22 -22l7 4q-8 16 -9 30l-13 105zM602 406l9 -12l-16 -114q-4 -24 -8 -30l7 -4q6 12 20 23l85 63l47 -40 l-5 -13l-106 -44q-19 -8 -30 -8v-8q18 0 29 -5l97 -42l-11 -61l-14 -2l-91 70q-19 16 -22 22l-7 -4q9 -18 10 -29l13 -105l-59 -21l-9 11l16 114q4 24 8 30l-7 4q-6 -13 -21 -23l-84 -63l-48 40l5 13l107 43q19 8 30 8v8q-13 0 -30 6l-97 41l11 62l14 2l91 -71 q19 -16 22 -22l7 4q-8 16 -9 30l-13 105z" />
<glyph unicode="&#x2044;" horiz-adv-x="45" d="M211 693h65l-446 -693h-66z" />
<glyph unicode="&#x20ac;" horiz-adv-x="585" d="M385 368h-375v51h74q19 122 88 202.5t195 80.5q45 0 95.5 -10t66.5 -18q6 -37 6 -94q0 -24 -2 -74l-57 -8q-22 116 -39 128q-6 7 -33.5 15t-53.5 8q-70 0 -109.5 -62t-48.5 -168h193v-51zM10 297h375v-51h-188q18 -101 66 -150t112 -49q27 0 50.5 9t29.5 16q12 9 34 128 l55 -2q0 -76 -11 -162q-26 -17 -79 -31t-108 -14q-113 0 -178.5 70t-83.5 185h-74v51z" />
<glyph unicode="&#x2116;" horiz-adv-x="974" d="M21 0l-6 39q53 9 64.5 20t11.5 42v491q0 31 -11.5 42t-64.5 20l6 39h180l227 -410q17 -32 17 -37h8v326q0 45 -16.5 60t-79.5 22l6 39h228l4 -39l-62 -12q-20 -4 -20 -26v-616l-46 -9l-291 528q-16 28 -17 37h-8v-456q0 -25 9.5 -37t34.5 -15l70 -9l-4 -39h-240zM758 286 q-78 0 -120.5 47t-42.5 130q0 86 45 136.5t126 50.5q77 0 120 -47.5t43 -129.5q0 -85 -45 -136t-126 -51zM756 604q-37 0 -53 -21q-27 -32 -27 -109q0 -63 23.5 -103t68.5 -40q36 0 54 22q25 32 25 110q0 62 -23.5 101.5t-67.5 39.5zM597 175v53h330v-53h-330z" />
<glyph unicode="&#x211e;" horiz-adv-x="652" d="M50 0l-6 39q53 9 64.5 20t11.5 42v491q0 31 -11.5 42t-64.5 20l6 39h280q209 0 209 -168q0 -52 -33.5 -106.5t-91.5 -86.5l79 -120l43 55q6 5 6 11q0 11 -31 18l4 26h126l4 -26q-32 -5 -38 -11l-91 -108l64 -97q10 -20 30.5 -29t61.5 -12l-6 -39h-156l-66 101l-38 -45 q-4 -7 -4 -12q0 -11 30 -18l-4 -26h-127l-2 26q33 6 39 10l84 98l-111 170h-13h-81v-227q0 -20 20 -26l35 -12l-4 -39h-218zM299 640h-66q-16 -2 -16 -24v-261h55q79 0 119.5 34.5t40.5 126.5q0 124 -133 124z" />
<glyph unicode="&#x2122;" horiz-adv-x="1021" d="M441 278l-4 32q35 7 42.5 11.5t8.5 22.5l17 282q1 19 -7 25t-41 12l3 32h141l101 -265q0 -1 1 -4l2 -6t1 -6h7q0 3 3 12l105 269h144l3 -32l-41 -7q-12 -2 -12 -13v-3l18 -308q2 -13 13 -15l40 -7l-3 -32h-182l-3 32q31 5 39 11.5t8 20.5v5l-7 248q0 11 2 23l-6 1 l-117 -309h-58l-108 288q-3 8 -3 17h-5l-13 -265q0 -10 1 -16t6.5 -11.5t15.5 -7.5l29 -5l-2 -32h-139zM110 310q39 6 48 12.5t9 24.5v309h-34q-31 0 -39 -3q-6 -1 -9 -8t-16 -50l-39 4q0 53 14 96h331q13 -39 15 -96l-38 -4q-15 43 -18 50t-8 8q-8 3 -39 3h-35v-324 q0 -13 13 -15l48 -7l-2 -32h-196z" />
<glyph unicode="&#x2126;" horiz-adv-x="718" d="M632 171l51 -5q-10 -91 -44 -166h-236l-10 32q72 93 111.5 179t39.5 185q0 112 -50.5 182.5t-145.5 70.5q-63 0 -105 -37t-58 -89.5t-16 -119.5q0 -38 7.5 -75.5t16 -64t28.5 -64t31 -54.5t38 -58.5t36 -54.5l-10 -32h-237q-32 75 -44 166l51 5q28 -60 37.5 -74.5 t19.5 -15.5q28 -4 64 -4h26l3 7q-16 6 -29 19q-81 81 -115 154.5t-34 154.5q0 132 81.5 211t224.5 79q138 0 214.5 -72t76.5 -195q0 -170 -146 -329q-13 -14 -31 -22l3 -7h31q36 0 64 4q10 1 19.5 16t36.5 74z" />
<glyph unicode="&#x212e;" horiz-adv-x="831" d="M811 336h-641q-5 0 -5 -5v-193q0 -12 8 -23q105 -105 242 -105q75 0 141.5 31.5t113.5 86.5h58q-53 -63 -136 -100t-178 -37q-163 0 -278.5 104t-115.5 250q0 148 115.5 252.5t278.5 104.5q165 0 281 -104.5t116 -252.5v-9zM665 362v194q0 14 -9 23q-103 101 -241 101 q-137 0 -240 -103q-10 -10 -10 -25v-190q0 -7 5 -7h491q4 0 4 7z" />
<glyph unicode="&#x2190;" horiz-adv-x="772" d="M300 88l-256 257v15l256 257l40 -40l-161 -161q-27 -27 -37 -33l1 -4h585v-53h-585l-1 -4q12 -8 37 -33l161 -161z" />
<glyph unicode="&#x2191;" horiz-adv-x="620" d="M321 693l256 -255l-41 -38l-162 161q-21 21 -28 35l-4 -1v-595h-61v595l-4 1q-10 -17 -28 -35l-162 -161l-41 38l256 255h19z" />
<glyph unicode="&#x2192;" horiz-adv-x="772" d="M728 345l-256 -257l-40 40l161 161q25 25 37 33l-1 4h-585v53h585l1 4q-10 6 -37 33l-161 161l40 40l256 -257v-15z" />
<glyph unicode="&#x2193;" horiz-adv-x="620" d="M574 255l-256 -255h-19l-256 255l41 38l162 -161q18 -18 28 -35l4 1v595h61v-595l4 -1q7 14 28 35l162 161z" />
<glyph unicode="&#x2202;" horiz-adv-x="506" d="M32 628q67 74 173 74q128 0 201.5 -100.5t73.5 -244.5q0 -90 -27.5 -171t-90 -138.5t-149.5 -57.5q-86 0 -139 53.5t-53 141.5q0 98 62.5 167t147.5 69q76 0 139 -49q0 140 -41.5 208.5t-105.5 68.5q-27 0 -51.5 -14.5t-35.5 -26.5t-30 -36q-15 4 -37.5 19.5t-36.5 36.5z M218 42q41 0 72 31t46 77.5t21.5 85.5t6.5 69q-13 28 -43.5 46t-64.5 18q-47 0 -80 -37.5t-45.5 -81.5t-12.5 -83q0 -53 27 -89t73 -36z" />
<glyph unicode="&#x2206;" horiz-adv-x="641" d="M287 702h69l235 -660v-42h-544v40zM298 587l-184 -534h362l-165 505q-6 18 -6 29h-7z" />
<glyph unicode="&#x220f;" horiz-adv-x="681" d="M217 607v-597q0 -22 20 -26l62 -12l-4 -39h-245l-6 39q53 9 64.5 20t11.5 42v558q0 31 -11.5 42t-64.5 20l6 39h589l4 -39l-62 -12q-20 -4 -20 -26v-606q0 -22 20 -26l62 -12l-4 -39h-245l-6 39q53 9 64.5 20t11.5 42v549q0 32 -12 41t-64 9h-153q-18 0 -18 -26z" />
<glyph unicode="&#x2211;" horiz-adv-x="607" d="M486 134l52 -5q2 -32 2 -50q0 -98 -16 -146h-482v33l242 319l-242 382v26h478q9 -49 9 -104q0 -30 -2 -72l-63 -7q-26 125 -41 126q-42 6 -148 6h-96l-2 -7q9 -4 22 -23l182 -287l-238 -315h218q48 0 84 4q10 1 17.5 21.5t23.5 98.5z" />
<glyph unicode="&#x2212;" horiz-adv-x="466" d="M45 244v53h376v-53h-376z" />
<glyph unicode="&#x221a;" horiz-adv-x="590" d="M379 -99l-20 -6l-236 487q-9 19 -28 21t-61 -10l-9 32q85 55 129 77l14 -5l190 -399l6 2l165 799l49 -9z" />
<glyph unicode="&#x221e;" horiz-adv-x="759" d="M535 128q-107 0 -167 96q-65 -96 -161 -96q-63 0 -109 39.5t-46 110.5q0 79 48.5 126t123.5 47q107 0 167 -96q65 96 161 96q63 0 109 -39.5t46 -110.5q0 -79 -48.5 -126t-123.5 -47zM553 186q39 0 67 30t28 76t-25.5 76.5t-71.5 30.5q-41 0 -76 -25.5t-56 -63.5 q22 -40 38 -63t41.5 -42t54.5 -19zM207 393q-39 0 -67.5 -30t-28.5 -74q0 -46 29 -77.5t76 -31.5q78 0 124 89q-22 40 -37.5 62.5t-41.5 42t-54 19.5z" />
<glyph unicode="&#x222b;" horiz-adv-x="382" d="M151 127q0 79 -5 237.5t-5 238.5q0 93 53 172t101 79q36 0 76 -7q3 -12 3 -24q0 -33 -17 -58q-39 10 -62 10q-26 0 -39 -7q-25 -30 -25 -180q0 -78 5 -236t5 -238q0 -92 -53 -171.5t-101 -79.5q-36 0 -76 7q-3 12 -3 24q0 32 17 58q39 -10 62 -10q24 0 39 7q25 27 25 178 z" />
<glyph unicode="&#x2248;" horiz-adv-x="466" d="M412 424l35 -24q-15 -23 -23.5 -35.5t-23 -30.5t-30 -26t-31.5 -8q-18 0 -44 8q-10 3 -61 22t-61 22q-24 8 -42 8q-32 0 -76 -49l-35 24q33 56 56.5 78t51.5 22q20 0 48 -9q5 -1 112 -41q28 -10 48 -10q15 0 29 7.5t22 15.5t25 26zM412 274l35 -24q-15 -23 -23.5 -35.5 t-23 -30.5t-30 -26t-31.5 -8q-18 0 -44 8q-10 3 -61 22t-61 22q-24 8 -42 8q-32 0 -76 -49l-35 24q33 56 56.5 78t51.5 22q20 0 48 -9q5 -1 112 -41q28 -10 48 -10q15 0 29 7.5t22 15.5t25 26z" />
<glyph unicode="&#x2260;" horiz-adv-x="466" d="M322 493l55 -20l-222 -430l-54 20zM45 173v53h376v-53h-376zM45 310v53h376v-53h-376z" />
<glyph unicode="&#x2264;" horiz-adv-x="466" d="M45 313v75l375 213v-69l-319 -182l319 -180v-69zM45 0v51h376v-51h-376z" />
<glyph unicode="&#x2265;" horiz-adv-x="466" d="M421 388v-75l-375 -212v69l319 180l-319 182v69zM421 51v-51h-376v51h376z" />
<glyph unicode="&#x25a0;" horiz-adv-x="1000" d="M919 838v-838h-838v838h838z" />
<glyph unicode="&#x25a1;" horiz-adv-x="1000" d="M919 838v-838h-838v838h838zM859 60v718h-718v-718h718z" />
<glyph unicode="&#x25ca;" horiz-adv-x="494" d="M202 772h86l192 -419l-192 -420h-86l-180 420zM244 -3l159 356l-159 355l-145 -355z" />
<glyph unicode="&#x25cc;" horiz-adv-x="500" d="M376 401q-49 35 -107 41v43q78 -6 138 -56zM121 401l-32 28q62 50 138 56v-43q-59 -6 -106 -41zM452 265q-4 60 -45 105l30 31q51 -59 59 -136h-44zM43 265h-43q6 75 58 136l30 -32q-37 -43 -45 -104zM496 225q-6 -83 -55 -141l-31 30q38 53 42 111h44zM55 84 q-49 58 -55 141h43q4 -60 42 -110zM410 55q-65 -53 -141 -59v43q59 4 112 45zM227 -4q-77 6 -142 59l28 29q53 -41 114 -45v-43z" />
<glyph unicode="&#xe000;" horiz-adv-x="475" d="M0 475h475v-475h-475v475z" />
<glyph horiz-adv-x="1000" d="M0 -222v1000h1000v-1000h-1000z" />
<glyph horiz-adv-x="97" d="M85 774l12 -19q-9 -96 -65 -178l-42 14q14 53 14 103q0 31 -4 58z" />
<glyph horiz-adv-x="234" d="M234 863l-8 -21l-201 -93l-25 36l174 129z" />
<glyph horiz-adv-x="230" d="M271 891l25 -12q-21 -46 -42.5 -73.5t-49.5 -27.5q-17 0 -83.5 13.5t-90.5 13.5q-38 0 -72 -34l-23 16q32 53 55 74.5t48 21.5q21 0 85.5 -13.5t84.5 -13.5q30 0 63 35z" />
<glyph horiz-adv-x="234" d="M8 842l-8 21l60 51l174 -129l-25 -36z" />
<glyph horiz-adv-x="328" d="M303 749l-139 91l-139 -91l-25 26l136 139h56l136 -139z" />
<glyph horiz-adv-x="328" d="M25 917l139 -91l139 91l25 -26l-136 -139h-56l-136 139z" />
<glyph horiz-adv-x="384" d="M187 -9q-75 0 -118.5 58.5t-43.5 142.5q0 89 46.5 152t125.5 63q75 0 118.5 -59t43.5 -143q0 -88 -46.5 -151t-125.5 -63zM185 364q-38 0 -58 -41.5t-20 -115.5q0 -86 24.5 -129.5t66.5 -43.5q79 0 79 150q0 85 -24.5 132.5t-67.5 47.5z" />
<glyph horiz-adv-x="384" d="M187 286q-75 0 -118.5 58.5t-43.5 142.5q0 89 46.5 152t125.5 63q75 0 118.5 -59t43.5 -143q0 -88 -46.5 -151t-125.5 -63zM185 659q-38 0 -58 -41.5t-20 -115.5q0 -86 24.5 -129.5t66.5 -43.5q79 0 79 150q0 85 -24.5 132.5t-67.5 47.5z" />
<glyph horiz-adv-x="477" d="M205 -89l38 129l49 -13l-32 -113zM210 -217l-4 31q44 5 69.5 20.5t25.5 37.5q0 16 -12 27t-34 11q-23 0 -41 -10l-9 11l48 37q22 7 45 7q40 0 62.5 -17t22.5 -47q0 -42 -46.5 -73t-126.5 -35z" />
<glyph horiz-adv-x="597" d="M190 39q53 9 64.5 20t11.5 42v177q-96 3 -148.5 67t-52.5 158q0 86 51.5 138t150.5 52h288l4 -39l-62 -12q-20 -4 -20 -26v-539q0 -22 20 -26l62 -12l-4 -39h-160v640h-47v-640h-152z" />
<glyph horiz-adv-x="597" d="M559 654l-62 -12q-20 -4 -20 -26v-539q0 -22 20 -26l62 -12l-4 -39h-191q-82 0 -144.5 32.5t-97.5 86.5t-52.5 117t-17.5 132q0 64 15 119.5t47.5 103t91 75t136.5 27.5h213zM348 640v-587h47v587h-47z" />
<glyph horiz-adv-x="597" d="M395 0v640h-47v-512q0 -91 -46.5 -169t-95.5 -78q-43 0 -83 8q-3 12 -3 26q0 32 19 62q47 -11 67 -11q18 0 31 8q29 20 29 184v120q-96 3 -148.5 67t-52.5 158q0 86 51.5 138t150.5 52h288l4 -39l-62 -12q-20 -4 -20 -26v-539q0 -22 20 -26l62 -12l-4 -39h-160z" />
<glyph horiz-adv-x="424" d="M375 523q1 -6 1 -23q0 -56 -10 -89l-48 -5q-13 80 -24 85q-18 7 -64 7q-47 0 -67 -30q-29 -40 -29 -121q0 -78 34.5 -114t89.5 -36q62 0 117 37l26 -30q-61 -57 -148 -64l3 -140h-65l3 141q-74 12 -112 66t-38 133q0 72 35 128t115 72l-3 128h65l-4 -122q68 0 123 -23z " />
<glyph horiz-adv-x="597" d="M348 34q-32 -6 -71 -6l-11 10v240q-111 3 -171 67t-60 158q0 86 44 138t128 52h348l4 -39l-62 -12q-20 -4 -20 -26v-488q0 -91 -47 -169t-97 -78q-43 0 -83 8q-3 12 -3 26q0 32 19 62q47 -11 67 -11q18 0 31 8q20 13 25.5 58.5t5.5 125.5v482h-47v-606zM251 640h-11 q-37 0 -65.5 -33.5t-28.5 -116.5q0 -90 35 -124.5t85 -34.5v294q0 15 -15 15z" />
<glyph horiz-adv-x="518" d="M322 739q-41 0 -68.5 23.5t-27.5 64.5t29.5 66.5t71.5 25.5q40 0 68 -24t28 -63q0 -41 -29.5 -67t-71.5 -26zM322 782q22 0 36.5 14t14.5 36q0 20 -13 32t-33 12q-52 0 -52 -49q0 -21 13 -33t34 -12z" />
<glyph horiz-adv-x="265" d="M333 885v-23l-177 -111l-35 25l117 139zM135 885v-23l-177 -111l-35 25l117 139z" />
<glyph horiz-adv-x="730" d="M479 900h37q-4 -62 -41 -101t-108 -39t-108 39t-41 101h37q17 -72 112 -72t112 72z" />
<glyph d="M253 -9q-109 0 -169 72.5t-60 199.5q0 132 63.5 210.5t177.5 78.5q109 0 169 -73t60 -200q0 -132 -63.5 -210t-177.5 -78zM269 44q58 0 86 35q18 23 30 74t12 111q0 103 -37.5 169t-110.5 66q-58 0 -86 -35q-18 -23 -30 -74t-12 -111q0 -103 37.5 -169t110.5 -66z" />
<glyph d="M104 0l-6 39q75 9 101 21t26 36v307q0 50 -4.5 60t-24.5 10q-27 0 -97 -5l-8 38q35 13 104.5 26.5t108.5 14.5l11 -10v-465q0 -7 1 -10.5t5.5 -6.5t13.5 -4l107 -12l-4 -39h-334z" />
<glyph d="M44 0v53q59 48 85.5 70t66.5 57t56.5 54.5t36 46.5t26 50t6.5 48q0 52 -30 86t-88 34q-44 0 -63 -15q-12 -10 -23 -108l-54 6q-8 36 -8 82q0 32 1 42q58 46 170 46q91 0 141.5 -43t50.5 -114q0 -76 -62 -150t-197 -167l2 -7l60 2q129 4 144 7q18 4 39 78l46 -4 q1 -9 1 -30q0 -69 -16 -124h-391z" />
<glyph d="M57 15l54 5q3 -43 6 -64t5.5 -25.5t8.5 -7.5q18 -8 51 -8q71 0 118 43t47 113q0 129 -141 129q-27 0 -52 -4l3 48q87 14 127 55.5t40 94.5q0 48 -30.5 76.5t-76.5 28.5q-49 0 -67 -13q-7 -5 -10.5 -10.5t-8.5 -29.5t-8 -70l-53 6q-9 45 -9 82q0 32 1 42q72 46 171 46 q82 0 134 -38t52 -102q0 -52 -33.5 -96t-79.5 -64l1 -8q60 -7 102.5 -49t42.5 -107q0 -88 -79 -156.5t-205 -68.5q-80 0 -128 21q6 83 17 131z" />
<glyph d="M28 45l-23 61l317 428q56 13 86 13l11 -10v-434l102 -2l-9 -57h-93v-166q-32 -6 -79 -6l-11 10v162h-300zM76 115l4 -7l249 -4v313q0 21 2 30l-6 3l-231 -313q-8 -12 -18 -22z" />
<glyph d="M40 -116q0 69 20 144l53 3q6 -68 9.5 -86t10.5 -22q17 -8 61 -8q70 0 117 47.5t47 128.5q0 61 -36 100.5t-105 39.5q-62 0 -124 -23l-22 26l22 303h256q5 0 8 3.5t8 20t11 49.5l51 -7q-4 -94 -14 -147h-260l-12 -179q50 17 111 17q99 0 154.5 -49t55.5 -134 q0 -110 -83.5 -179t-203.5 -69q-84 0 -135 21z" />
<glyph d="M483 213q0 -94 -61 -158t-160 -64q-100 0 -157 69t-57 186q0 162 103 280t249 154l20 -41q-220 -92 -263 -281l8 -3q51 66 133 66q75 0 130 -58.5t55 -149.5zM388 195q0 72 -29 114.5t-73 42.5q-21 0 -54.5 -7t-55.5 -22q-23 -16 -29 -38q-4 -16 -4 -31q0 -214 139 -214 q42 0 68 28q38 41 38 127z" />
<glyph d="M132 -121q16 99 94 272t174 305l-2 7l-177 -3q-67 -2 -90 -4q-8 -1 -13.5 -14.5t-17.5 -65.5l-46 5q-2 32 -2 50q0 69 6 106h411v-60q-213 -332 -232 -611q-10 -3 -29 -3q-51 0 -76 16z" />
<glyph d="M57 495q0 80 57 131t146 51q29 0 59.5 -7t64.5 -22.5t56 -48.5t22 -79q0 -90 -78 -148q-23 -16 -37 -16v-9q6 0 16 -5q60 -31 92 -69t32 -95q0 -83 -64.5 -135t-168.5 -52q-34 0 -67 6t-70.5 21t-61 49t-23.5 82q0 97 97 162q27 16 38 16v9q-6 0 -16 5q-94 57 -94 154z M144 517q0 -28 11.5 -49.5t37 -39.5t45 -28.5t56.5 -26.5q84 57 84 138q0 56 -34.5 86t-89.5 30q-56 0 -83 -34t-27 -76zM393 156q0 29 -13 52t-41 41t-48.5 28t-58.5 25q-7 3 -10 4q-6 -2 -20.5 -11.5t-35 -27t-35.5 -46.5t-15 -61q0 -55 40 -84.5t104 -29.5q69 0 101 33.5 t32 76.5z" />
<glyph d="M36 332q0 93 61.5 156.5t158.5 63.5q99 0 157 -70.5t58 -186.5q0 -68 -21 -137t-63 -133t-117 -108.5t-172 -53.5l-7 45q116 27 180 91.5t91 180.5l-8 3q-47 -58 -129 -58q-77 0 -133 59t-56 148zM131 353q0 -77 36.5 -118t80.5 -41q53 0 94 22q24 13 29 37q6 24 6 59 q0 86 -33.5 138.5t-102.5 52.5q-44 0 -71 -28q-39 -41 -39 -122z" />
<glyph d="M429 524q1 -9 1 -27q0 -62 -14 -112l-50 -6q-7 92 -24 104q-19 12 -59 14v-176q38 -16 60 -27.5t49.5 -31.5t40.5 -46.5t13 -59.5q0 -60 -43.5 -104.5t-119.5 -56.5v-123h-57v119q-95 2 -154 27q-2 15 -2 46q0 47 9 112l57 5q9 -77 13 -93.5t13 -21.5q21 -13 64 -19v186 q-36 15 -57 26.5t-46.5 31t-38 45t-12.5 58.5q0 59 41.5 100t112.5 53v121h57v-116q75 -1 146 -28zM152 429q0 -49 74 -83v150q-33 -3 -50 -16q-24 -18 -24 -51zM359 119q0 50 -76 89v-162q33 3 50 17q26 20 26 56z" />
<glyph d="M231 668h57v-122q68 0 123 -23q1 -6 1 -23q0 -56 -10 -89l-43 -5q-10 54 -14 68.5t-10 16.5q-14 4 -47 6v-300h6q62 0 117 37l26 -30q-65 -58 -149 -65v-139h-57v141q-79 12 -120 66t-41 133q0 72 37.5 128.5t123.5 72.5v127zM160 347q0 -101 71 -135v281q-20 -4 -34 -21 q-37 -45 -37 -125z" />
<glyph d="M251 -9q-109 0 -172.5 96.5t-63.5 235.5q0 146 68.5 250t184.5 104q109 0 173 -97.5t64 -235.5q0 -146 -69 -249.5t-185 -103.5zM248 624q-63 0 -95.5 -73t-32.5 -204q0 -150 40.5 -226.5t109.5 -76.5q130 0 130 265q0 150 -40.5 232.5t-111.5 82.5z" />
<glyph d="M91 0l-6 39q75 9 101 21t26 36v433q0 50 -4.5 60t-24.5 10q-27 0 -97 -5l-8 38q35 13 104.5 26.5t108.5 14.5l11 -10v-591q0 -7 1 -10t5.5 -6t13.5 -5l107 -12l-4 -39h-334z" />
<glyph d="M35 0v53q65 66 89 90.5t70 74.5t63 74.5t40 62.5t30.5 68.5t7.5 63.5q0 62 -31.5 99t-92.5 37q-54 0 -78 -20q-11 -9 -23 -123l-59 6q-8 36 -8 82q0 38 1 52q31 27 84 41.5t106 14.5q98 0 151.5 -46t53.5 -129q0 -92 -69 -186.5t-223 -234.5l2 -7l80 3q146 5 148 6 q5 1 9 10t12 38q5 18 8 30l46 -4q1 -10 1 -34q0 -79 -10 -122h-408z" />
<glyph d="M59 143l54 5q3 -41 6 -62t6 -26t8 -7q32 -10 81 -10q58 0 96.5 38t38.5 100q0 144 -141 144q-27 0 -52 -4l3 48q87 14 127 55.5t40 94.5q0 48 -30.5 76.5t-76.5 28.5q-49 0 -67 -13q-7 -5 -10.5 -10.5t-8.5 -29.5t-8 -70l-53 6q-9 45 -9 82q0 32 1 42q72 46 171 46 q82 0 134 -38t52 -102q0 -52 -33.5 -96t-79.5 -64l1 -8q60 -9 102.5 -54t42.5 -117q0 -81 -70.5 -144t-183.5 -63q-46 0 -93 7t-65 14q6 83 17 131z" />
<glyph d="M241 0l-6 39q57 9 77 21t20 36v74h-300l-1 1l-23 61l317 428q56 13 86 13l11 -10v-434l102 -2l-9 -57h-93v-98q0 -7 1 -10t5.5 -6t13.5 -5l57 -12l-4 -39h-254zM79 241l4 -7l249 -4v313q0 21 2 30l-6 3l-231 -313q-8 -12 -18 -22z" />
<glyph d="M158 588l-12 -179q50 17 111 17q99 0 154.5 -51.5t55.5 -141.5q0 -107 -80.5 -174.5t-196.5 -67.5q-89 0 -145 25q0 69 20 144l53 3q6 -68 9.5 -86t10.5 -22q19 -12 71 -12q63 0 108 48.5t45 121.5q0 65 -36 107.5t-104 42.5q-62 0 -124 -23l-22 26l22 303h326l10 -11 q0 -38 -16 -70h-260z" />
<glyph d="M478 213q0 -94 -61 -158t-160 -64q-100 0 -157 69t-57 186q0 162 103 280t249 154l20 -41q-220 -92 -263 -281l8 -3q51 66 133 66q75 0 130 -58.5t55 -149.5zM383 195q0 72 -29 114.5t-73 42.5q-21 0 -54.5 -7t-55.5 -22q-23 -16 -29 -38q-4 -16 -4 -31q0 -214 139 -214 q42 0 68 28q38 41 38 127z" />
<glyph d="M143 7q16 99 94 273.5t174 307.5l-2 7l-177 -3q-67 -2 -90 -4q-8 -1 -13.5 -14.5t-17.5 -65.5l-46 5q-2 32 -2 50q0 69 6 106h411v-60q-213 -335 -232 -615q-11 -3 -29 -3q-51 0 -76 16z" />
<glyph d="M57 495q0 80 57 131t146 51q29 0 59.5 -7t64.5 -22.5t56 -48.5t22 -79q0 -90 -78 -148q-23 -16 -37 -16v-9q6 0 16 -5q60 -31 92 -69t32 -95q0 -83 -64.5 -135t-168.5 -52q-34 0 -67 6t-70.5 21t-61 49t-23.5 82q0 97 97 162q27 16 38 16v9q-6 0 -16 5q-94 57 -94 154z M144 517q0 -28 11.5 -49.5t37 -39.5t45 -28.5t56.5 -26.5q84 57 84 138q0 56 -34.5 86t-89.5 30q-56 0 -83 -34t-27 -76zM393 156q0 29 -13 52t-41 41t-48.5 28t-58.5 25q-7 3 -10 4q-6 -2 -20.5 -11.5t-35 -27t-35.5 -46.5t-15 -61q0 -55 40 -84.5t104 -29.5q69 0 101 33.5 t32 76.5z" />
<glyph d="M41 457q0 93 61.5 156.5t158.5 63.5q99 0 157 -70.5t58 -186.5q0 -68 -21 -137t-63 -133t-117 -108.5t-172 -53.5l-7 45q116 27 180 91.5t91 180.5l-8 3q-47 -58 -129 -58q-77 0 -133 59t-56 148zM136 478q0 -77 36.5 -118t80.5 -41q53 0 94 22q24 13 29 37q6 24 6 59 q0 86 -33.5 138.5t-102.5 52.5q-44 0 -71 -28q-39 -41 -39 -122z" />
<glyph d="M241 772h57v-852h-57v852zM452 649q3 -24 3 -51q0 -52 -11 -118l-58 -7q-11 113 -27 126q-24 21 -94 21q-56 0 -90 -23q-37 -25 -37 -72q0 -34 19 -59.5t49.5 -41.5t68 -30.5t74.5 -31t67.5 -37.5t49.5 -57t19 -83q0 -88 -64 -141t-172 -53q-59 0 -118 14.5t-86 28.5 q-3 12 -3 44q0 58 12 122l57 3q8 -72 13.5 -93t14.5 -28q18 -12 56 -23.5t77 -11.5q52 0 83 23q38 28 38 78q0 49 -35 81.5t-84.5 52t-99 41t-84.5 62t-35 100.5q0 89 67.5 140t175.5 51q82 0 154 -27z" />
<glyph d="M241 668h57v-122q68 0 123 -23q1 -6 1 -23q0 -56 -10 -89l-43 -5q-10 54 -14 68.5t-10 16.5q-14 4 -47 6v-300h6q61 0 117 37l26 -30q-65 -58 -149 -65v-139h-57v141q-79 12 -120 66t-41 133q0 72 37.5 128.5t123.5 72.5v127zM170 347q0 -101 71 -135v281q-20 -4 -34 -21 q-37 -45 -37 -125z" />
<glyph horiz-adv-x="554" d="M268 -9q-109 0 -172.5 96.5t-63.5 235.5q0 146 68.5 250t184.5 104q109 0 173 -97.5t64 -235.5q0 -146 -69 -249.5t-185 -103.5zM265 624q-63 0 -95.5 -73t-32.5 -204q0 -150 40.5 -226.5t109.5 -76.5q130 0 130 265q0 150 -40.5 232.5t-111.5 82.5z" />
<glyph horiz-adv-x="414" d="M81 0l-6 39q57 9 77 21t20 36v433q0 50 -4.5 60t-24.5 10q-25 0 -87 -5l-8 38q33 13 99.5 26.5t103.5 14.5l11 -10v-591q0 -7 1 -10t5.5 -6t13.5 -5l77 -12l-4 -39h-274z" />
<glyph horiz-adv-x="495" d="M24 0v53q65 66 89 90.5t70 74.5t63 74.5t40 62.5t30.5 68.5t7.5 63.5q0 62 -31.5 99t-92.5 37q-54 0 -78 -20q-11 -9 -23 -123l-59 6q-8 36 -8 82q0 38 1 52q31 27 84 41.5t106 14.5q98 0 151.5 -46t53.5 -129q0 -92 -69 -186.5t-223 -234.5l2 -7l80 3q146 5 148 6 q5 1 9 10t12 38q5 18 8 30l46 -4q1 -10 1 -34q0 -79 -10 -122h-408z" />
<glyph horiz-adv-x="469" d="M29 143l54 5q3 -41 6 -62t6 -26t8 -7q32 -10 81 -10q58 0 96.5 38t38.5 100q0 144 -141 144q-27 0 -52 -4l3 48q87 14 127 55.5t40 94.5q0 48 -30.5 76.5t-76.5 28.5q-49 0 -67 -13q-7 -5 -10.5 -10.5t-8.5 -29.5t-8 -70l-53 6q-9 45 -9 82q0 32 1 42q72 46 171 46 q82 0 134 -38t52 -102q0 -52 -33.5 -96t-79.5 -64l1 -8q60 -9 102.5 -54t42.5 -117q0 -81 -70.5 -144t-183.5 -63q-46 0 -93 7t-65 14q6 83 17 131z" />
<glyph horiz-adv-x="534" d="M241 0l-6 39q57 9 77 21t20 36v74h-300l-1 1l-23 61l317 428q56 13 86 13l11 -10v-434l102 -2l-9 -57h-93v-98q0 -7 1 -10t5.5 -6t13.5 -5l57 -12l-4 -39h-254zM79 241l4 -7l249 -4v313q0 21 2 30l-6 3l-231 -313q-8 -12 -18 -22z" />
<glyph horiz-adv-x="499" d="M145 588l-12 -179q50 17 111 17q99 0 154.5 -51.5t55.5 -141.5q0 -107 -80.5 -174.5t-196.5 -67.5q-89 0 -145 25q0 69 20 144l53 3q6 -68 9.5 -86t10.5 -22q19 -12 71 -12q63 0 108 48.5t45 121.5q0 65 -36 107.5t-104 42.5q-62 0 -124 -23l-22 26l22 303h326l10 -11 q0 -38 -16 -70h-260z" />
<glyph horiz-adv-x="515" d="M483 213q0 -94 -61 -158t-160 -64q-100 0 -157 69t-57 186q0 162 103 280t249 154l20 -41q-220 -92 -263 -281l8 -3q51 66 133 66q75 0 130 -58.5t55 -149.5zM388 195q0 72 -29 114.5t-73 42.5q-21 0 -54.5 -7t-55.5 -22q-23 -16 -29 -38q-4 -16 -4 -31q0 -214 139 -214 q42 0 68 28q38 41 38 127z" />
<glyph horiz-adv-x="450" d="M103 7q16 99 94 273.5t174 307.5l-2 7l-177 -3q-67 -2 -90 -4q-8 -1 -13.5 -14.5t-17.5 -65.5l-46 5q-2 32 -2 50q0 69 6 106h411v-60q-213 -335 -232 -615q-11 -3 -29 -3q-51 0 -76 16z" />
<glyph d="M57 495q0 80 57 131t146 51q29 0 59.5 -7t64.5 -22.5t56 -48.5t22 -79q0 -90 -78 -148q-23 -16 -37 -16v-9q6 0 16 -5q60 -31 92 -69t32 -95q0 -83 -64.5 -135t-168.5 -52q-34 0 -67 6t-70.5 21t-61 49t-23.5 82q0 97 97 162q27 16 38 16v9q-6 0 -16 5q-94 57 -94 154z M144 517q0 -28 11.5 -49.5t37 -39.5t45 -28.5t56.5 -26.5q84 57 84 138q0 56 -34.5 86t-89.5 30q-56 0 -83 -34t-27 -76zM393 156q0 29 -13 52t-41 41t-48.5 28t-58.5 25q-7 3 -10 4q-6 -2 -20.5 -11.5t-35 -27t-35.5 -46.5t-15 -61q0 -55 40 -84.5t104 -29.5q69 0 101 33.5 t32 76.5z" />
<glyph horiz-adv-x="516" d="M36 457q0 93 61.5 156.5t158.5 63.5q99 0 157 -70.5t58 -186.5q0 -68 -21 -137t-63 -133t-117 -108.5t-172 -53.5l-7 45q116 27 180 91.5t91 180.5l-8 3q-47 -58 -129 -58q-77 0 -133 59t-56 148zM131 478q0 -77 36.5 -118t80.5 -41q53 0 94 22q24 13 29 37q6 24 6 59 q0 86 -33.5 138.5t-102.5 52.5q-44 0 -71 -28q-39 -41 -39 -122z" />
<glyph horiz-adv-x="430" d="M201 668h57v-122q68 0 123 -23q1 -6 1 -23q0 -56 -10 -89l-43 -5q-10 54 -14 68.5t-10 16.5q-14 4 -47 6v-300h6q62 0 117 37l26 -30q-65 -58 -149 -65v-139h-57v141q-79 12 -120 66t-41 133q0 72 37.5 128.5t123.5 72.5v127zM130 347q0 -101 71 -135v281q-20 -4 -34 -21 q-37 -45 -37 -125z" />
<glyph horiz-adv-x="547" d="M249 772h57v-852h-57v852zM460 649q3 -24 3 -51q0 -52 -11 -118l-58 -7q-11 113 -27 126q-25 21 -94 21q-56 0 -90 -23q-37 -25 -37 -72q0 -34 19 -59.5t49.5 -41.5t68 -30.5t74.5 -31t67.5 -37.5t49.5 -57t19 -83q0 -88 -64 -141t-172 -53q-59 0 -118 14.5t-86 28.5 q-3 12 -3 44q0 58 12 122l57 3q8 -72 13.5 -93t14.5 -28q18 -12 56 -23.5t77 -11.5q52 0 83 23q38 28 38 78q0 49 -35 81.5t-84.5 52t-99 41t-84.5 62t-35 100.5q0 89 67.5 140t175.5 51q82 0 154 -27z" />
<glyph d="M38 314v53h74q-5 32 -5 62q0 133 65 203t171 70q54 0 122 -25q1 -8 1 -24q0 -67 -13 -99l-46 -5q-4 47 -7 62.5t-10 21.5q-14 16 -65 16q-61 0 -84 -48t-23 -162q0 -36 3 -72h173v-53h-170q1 -12 1 -34q0 -112 -55 -179l3 -5q29 20 71 20q32 0 87.5 -18t71.5 -18 q6 0 12 1t12 4t9.5 4.5t10.5 7t9 7t10.5 9t9.5 8.5l35 -23q-14 -26 -21.5 -38.5t-24 -32t-37.5 -28t-48 -8.5q-30 0 -90 21.5t-102 21.5q-24 0 -45.5 -7t-32.5 -13.5t-34 -23.5l-25 33q36 40 55 75t22.5 55t3.5 48q0 43 -11 113h-83z" />
<glyph d="M332 349h-145l-142 261q-13 22 -23.5 28.5t-45.5 14.5l7 40h235l4 -41l-67 -18q-7 -1 -7 -7q0 -4 7 -16l104 -201q10 -17 10 -29h10l101 195q21 40 21 48q0 10 -12.5 15.5t-47.5 13.5l6 40h198l4 -42q-44 -9 -61 -19.5t-29 -34.5zM214 215l97 2v-140q0 -23 20 -26l77 -12 l-4 -39h-275l-6 39q63 10 77 20.5t14 41.5v114zM76 314v53h376v-53h-376zM76 192v53h376v-53h-376z" />
<glyph d="M343 368h-326v51h45q8 57 26.5 105.5t50 89.5t81 64.5t112.5 23.5q44 0 92 -10t63 -18q6 -37 6 -94q0 -24 -2 -74l-57 -8q-22 116 -39 128q-5 7 -30.5 15t-49.5 8q-64 0 -100.5 -62t-45.5 -168h174v-51zM17 297h326v-51h-168q16 -101 61 -150t104 -49q25 0 46.5 9 t26.5 16q12 9 34 128l55 -2q0 -76 -11 -162q-25 -17 -76 -31t-104 -14q-107 0 -169.5 70t-79.5 185h-45v51z" />
<glyph horiz-adv-x="534" d="M261 -9q-109 0 -169 72.5t-60 199.5q0 132 63.5 210.5t177.5 78.5q109 0 169 -73t60 -200q0 -132 -63.5 -210t-177.5 -78zM277 44q58 0 86 35q18 23 30 74t12 111q0 103 -37.5 169t-110.5 66q-58 0 -86 -35q-18 -23 -30 -74t-12 -111q0 -103 37.5 -169t110.5 -66z M265 204q-28 0 -46 16.5t-18 49.5q0 26 18 45t46 19q29 0 47.5 -15.5t18.5 -48.5q0 -27 -18.5 -46.5t-47.5 -19.5z" />
<glyph d="M253 -9q-109 0 -169 72.5t-60 199.5q0 132 63.5 210.5t177.5 78.5q109 0 169 -73t60 -200q0 -132 -63.5 -210t-177.5 -78zM269 44q58 0 86 35q18 23 30 74t12 111q0 103 -37.5 169t-110.5 66q-58 0 -86 -35q-18 -23 -30 -74t-12 -111q0 -103 37.5 -169t110.5 -66z M257 207q-28 0 -46 16.5t-18 49.5q0 26 18 45t46 19q29 0 47.5 -15.5t18.5 -48.5q0 -27 -18.5 -46.5t-47.5 -19.5z" />
<glyph d="M251 -9q-109 0 -172.5 96.5t-63.5 235.5q0 146 68.5 250t184.5 104q109 0 173 -97.5t64 -235.5q0 -146 -69 -249.5t-185 -103.5zM248 624q-63 0 -95.5 -73t-32.5 -204q0 -150 40.5 -226.5t109.5 -76.5q130 0 130 265q0 150 -40.5 232.5t-111.5 82.5zM257 270 q-28 0 -46 16.5t-18 49.5q0 26 18 45t46 19q29 0 47.5 -15.5t18.5 -48.5q0 -27 -18.5 -46.5t-47.5 -19.5z" />
<glyph horiz-adv-x="554" d="M268 -9q-109 0 -172.5 96.5t-63.5 235.5q0 146 68.5 250t184.5 104q109 0 173 -97.5t64 -235.5q0 -146 -69 -249.5t-185 -103.5zM265 624q-63 0 -95.5 -73t-32.5 -204q0 -150 40.5 -226.5t109.5 -76.5q130 0 130 265q0 150 -40.5 232.5t-111.5 82.5zM274 270 q-28 0 -46 16.5t-18 49.5q0 26 18 45t46 19q29 0 47.5 -15.5t18.5 -48.5q0 -27 -18.5 -46.5t-47.5 -19.5z" />
<glyph horiz-adv-x="382" d="M185 -6q-75 0 -121 60.5t-46 145.5q0 90 49 155.5t129 65.5q75 0 121.5 -61t46.5 -147q0 -89 -49.5 -154t-129.5 -65zM183 382q-76 0 -76 -167q0 -89 24.5 -135t65.5 -46q78 0 78 158q0 90 -24.5 140t-67.5 50z" />
<glyph horiz-adv-x="267" d="M41 0l-4 31q38 6 51 13.5t13 21.5v258q0 31 -3 37t-16 6q-26 0 -44 -3l-5 31q75 26 133 26l8 -7v-362v-4.5t0.5 -3t2 -2.5t4 -1.5t6.5 -1.5l50 -8l-3 -31h-193z" />
<glyph horiz-adv-x="330" d="M8 0v42q103 82 153.5 145t50.5 115q0 33 -21 55.5t-64 22.5q-36 0 -50 -16q-11 -11 -15 -68l-44 4q-6 29 -6 55q0 24 1 31q21 16 59 25.5t70 9.5q78 0 119.5 -33.5t41.5 -86.5q0 -59 -50 -115t-167 -139l1 -5l61 2q82 2 86 4q12 2 26 61l40 -2v-19q0 -54 -10 -88h-282z " />
<glyph horiz-adv-x="313" d="M12 96l44 3q3 -56 13 -59q18 -6 51 -6q35 0 58.5 21.5t23.5 56.5q0 86 -86 86q-10 0 -34 -2l2 36q54 8 79 33.5t25 56.5q0 27 -18.5 43.5t-46.5 16.5q-32 0 -44 -8q-12 -9 -17 -69l-43 4q-6 32 -6 51q0 25 1 33q50 28 119 28q61 0 99 -23.5t38 -64.5q0 -32 -23 -59.5 t-54 -39.5l1 -5q40 -6 69 -34t29 -72q0 -50 -50.5 -89.5t-130.5 -39.5q-68 0 -110 13q7 64 11 89z" />
<glyph horiz-adv-x="355" d="M152 0l-4 31q38 6 50.5 13t12.5 22v43h-191l-15 46l202 258q46 8 70 8l7 -6v-255l67 -1l-6 -50h-61v-57q0 -11 13 -13l37 -8l-2 -31h-180zM64 167l2 -4l145 -3v170q0 13 2 19l-4 2l-134 -170q-2 -3 -6 -8t-5 -6z" />
<glyph horiz-adv-x="333" d="M99 358l-8 -104q37 10 80 10q64 0 102.5 -32.5t38.5 -87.5q0 -66 -54.5 -108t-132.5 -42q-65 0 -107 16q2 43 12 90l42 3q6 -59 13 -62q10 -7 43 -7q42 0 68.5 27.5t26.5 70.5q0 37 -21 61.5t-63 24.5q-41 0 -80 -15l-24 24l14 188h234l7 -7q0 -28 -11 -50h-180z" />
<glyph horiz-adv-x="343" d="M330 132q0 -59 -43.5 -98.5t-113.5 -39.5q-71 0 -111.5 43t-40.5 116q0 103 74.5 175.5t181.5 94.5l14 -34q-151 -52 -178 -153l5 -2q32 27 80 27q54 0 93 -35.5t39 -93.5zM247 124q0 43 -16.5 68t-43.5 25q-38 0 -65 -16q-14 -7 -16 -24q-3 -10 -3 -18q0 -127 82 -127 q24 0 40 16q22 25 22 76z" />
<glyph horiz-adv-x="300" d="M59 4q11 61 63.5 166.5t117.5 187.5l-1 4l-114 -2q-46 -2 -52 -2q-5 -1 -8.5 -9t-11.5 -41l-40 3q-1 10 -1 31q0 50 4 73h283v-44q-139 -206 -151 -375q-10 -2 -25 -2q-37 0 -64 10z" />
<glyph horiz-adv-x="343" d="M30 303q0 53 41.5 85.5t103.5 32.5q31 0 60.5 -7.5t55 -31t25.5 -60.5q0 -55 -51 -87q-9 -9 -22 -12v-5q1 0 4 -1t7 -3q78 -39 78 -102q0 -52 -45 -85t-119 -33q-24 0 -47 3.5t-49 13t-42 30t-16 50.5q0 62 67 102q12 6 19 6v7q-5 0 -10 2q-60 32 -60 95zM104 323 q0 -30 22.5 -47t71.5 -37q46 31 46 79q0 31 -20 48.5t-53 17.5t-50 -18t-17 -43zM254 96q0 8 -1.5 15t-6.5 13.5t-8.5 11t-12 9.5t-13.5 8.5t-16.5 8t-16 6.5t-18.5 7t-18 7q-5 -3 -12.5 -8t-18.5 -15.5t-18.5 -26t-7.5 -33.5q0 -31 24 -48.5t63 -17.5q42 0 61.5 19t19.5 44 z" />
<glyph horiz-adv-x="344" d="M14 285q0 57 43 96.5t109 39.5q73 0 115.5 -43.5t42.5 -115.5q0 -34 -9 -68t-29.5 -68.5t-50.5 -62t-76.5 -47t-102.5 -23.5l-5 34q144 30 178 148l-5 2q-30 -22 -78 -22q-54 0 -93 37t-39 93zM97 295q0 -47 21.5 -71.5t47.5 -24.5q31 0 55 13q14 9 17 24q4 14 4 35 q0 51 -19.5 82t-60.5 31q-26 0 -42 -17q-23 -23 -23 -72z" />
<glyph horiz-adv-x="521" d="M11 0l-5 37q30 7 36.5 11.5t12.5 21.5l172 474h64l178 -487q4 -12 46 -19l-3 -38h-198l-5 37q55 11 55 25q0 6 -3 16l-31 90h-186l-35 -99q-3 -8 -3 -12t4 -5l56 -15l-3 -37h-152zM159 215h156l-68 203q-5 15 -5 22h-5z" />
<glyph horiz-adv-x="520" d="M53 0l-5 36q41 7 50 15.5t9 32.5v369q0 24 -9 32.5t-50 15.5l5 36h215q89 0 136.5 -34t47.5 -94q0 -48 -26.5 -81t-55.5 -42v-5q50 -10 83.5 -47.5t33.5 -83.5q0 -59 -48.5 -104.5t-148.5 -45.5h-237zM200 300h40q112 0 112 100q0 90 -104 90h-48v-190zM270 253h-70v-172 q0 -21 11 -27q8 -8 44 -8q129 0 129 97q0 60 -34.5 85t-79.5 25z" />
<glyph horiz-adv-x="512" d="M38 276q0 45 15 90t45.5 86t85 66.5t124.5 25.5q87 0 167 -40q1 -9 1 -31q0 -69 -12 -114l-60 -7q-9 82 -12.5 99.5t-9.5 21.5q-28 24 -76 24q-81 0 -123 -61t-42 -160q0 -117 56 -176.5t129 -59.5q22 0 42.5 5.5t24.5 11.5q15 27 24 100l54 -3q9 -43 9 -96q0 -18 -2 -36 q-19 -10 -72 -19.5t-86 -9.5q-78 0 -134.5 22.5t-88 63t-45.5 89t-14 108.5z" />
<glyph horiz-adv-x="592" d="M53 0l-5 36q41 7 50 15.5t9 32.5v369q0 24 -9 32.5t-50 15.5l5 36h253q69 0 120 -21.5t79 -58.5t41 -79.5t13 -92.5q0 -42 -9 -81.5t-29.5 -77t-51 -65t-77.5 -44.5t-104 -17h-235zM200 78q0 -17 17 -21q43 -10 74 -10q82 0 124 59.5t42 159.5q0 62 -16 108t-42.5 70 t-54 35t-56.5 11h-88v-412z" />
<glyph horiz-adv-x="477" d="M53 0l-5 36q41 7 50 15.5t9 32.5v369q0 24 -9 32.5t-50 15.5l5 36h359q5 -32 5 -67q0 -25 -2 -59l-50 -6q-11 54 -15.5 67.5t-10.5 14.5q-31 2 -48 3l-91 2v-200h93q10 0 25 55l30 -2q0 -79 11 -159l-34 -5q-12 42 -16.5 53t-9.5 11h-99v-200l59 1q80 1 106 5q14 6 39 96 l43 -5q1 -12 1 -40q0 -67 -13 -102h-382z" />
<glyph horiz-adv-x="442" d="M53 0l-5 36q41 7 50 15.5t9 32.5v369q0 24 -9 32.5t-50 15.5l5 36h359q5 -32 5 -67q0 -25 -2 -59l-50 -6q-11 54 -15.5 67.5t-10.5 14.5q-31 2 -48 3l-91 2v-207h93q10 0 25 55l30 -2q0 -79 11 -159l-34 -5q-12 42 -16.5 53t-9.5 11h-99v-173q0 -18 16 -20l79 -9l-3 -36 h-239z" />
<glyph horiz-adv-x="560" d="M480 15q-101 -22 -180 -22q-138 0 -202.5 79t-64.5 204q0 45 16 90.5t47 86t85.5 66t124.5 25.5q79 0 170 -32v-22q0 -75 -11 -116l-60 -7q-1 10 -3 28q-10 77 -15 84q-1 1 -3 2q-20 16 -80 16q-82 0 -125 -59.5t-43 -161.5q0 -120 56.5 -178t124.5 -58q43 0 70 9v108 q0 24 -9 32.5t-50 15.5l5 30h200l3 -30l-40 -10q-16 -3 -16 -20v-160z" />
<glyph horiz-adv-x="631" d="M53 0l-5 36q41 7 50 15.5t9 32.5v375q0 23 -8 29t-51 13l5 36h208l3 -36l-48 -9q-16 -3 -16 -20v-161h231v148q0 23 -8 29t-51 13l5 36h208l3 -36l-48 -9q-16 -3 -16 -20v-407q0 -17 16 -20l48 -9l-3 -36h-208l-5 36q41 7 50 15.5t9 32.5v175h-231v-194q0 -17 16 -20 l48 -9l-3 -36h-208z" />
<glyph horiz-adv-x="307" d="M53 0l-5 36q41 7 50 15.5t9 32.5v369q0 24 -9 32.5t-50 15.5l5 36h208l3 -36l-48 -9q-16 -3 -16 -20v-407q0 -17 16 -20l48 -9l-3 -36h-208z" />
<glyph horiz-adv-x="309" d="M201 477v-378q0 -74 -44 -137.5t-90 -63.5q-42 0 -71 7q-2 6 -2 22q0 30 16 55q35 -9 51 -9q15 0 24 6q23 16 23 147v328q0 23 -12 32t-55 16l5 35h224l3 -35l-56 -10q-16 -3 -16 -15z" />
<glyph horiz-adv-x="546" d="M200 472v-192l175 185q12 12 12 18q0 15 -60 18l5 36h175l3 -38q-37 -2 -61 -26l-151 -160l170 -245q11 -16 26 -23t46 -9l-5 -36h-138l-165 245l-32 -34v-146q0 -17 16 -20l43 -9l-3 -36h-203l-5 36q41 7 50 15.5t9 32.5v369q0 24 -9 32.5t-50 15.5l5 36h208l3 -36 l-48 -9q-16 -3 -16 -20z" />
<glyph horiz-adv-x="456" d="M53 0l-5 36q41 7 50 15.5t9 32.5v369q0 24 -9 32.5t-50 15.5l5 36h208l3 -36l-48 -9q-16 -3 -16 -20v-427l62 1q82 1 95 6q14 4 36 119l48 -4q1 -13 1 -45q0 -42 -8 -122h-381z" />
<glyph horiz-adv-x="717" d="M30 0l-4 36q42 8 51.5 14.5t10.5 29.5l23 373q1 25 -9 32.5t-50 15.5l4 36h162l130 -366q2 -5 6 -19h8q2 11 4 15l135 370h164l3 -36l-48 -9q-16 -2 -16 -18v-4l25 -405q0 -17 15 -20l49 -9l-3 -36h-214l-5 36q38 6 49 14.5t11 27.5v6l-12 329q0 17 3 29l-7 2l-148 -408 h-66l-137 381q-3 12 -3 22h-7l-16 -351q0 -20 5 -31t23 -14l36 -7l-3 -36h-169z" />
<glyph horiz-adv-x="577" d="M36 0l-5 36q41 7 50 15.5t9 32.5v369q0 24 -9 32.5t-50 15.5l5 36h155l233 -349q11 -16 13 -28h6v278q0 35 -13 46.5t-62 16.5l5 36h181l3 -36l-48 -9q-15 -3 -15 -20v-472l-53 -4l-281 416q-12 18 -13 29h-6v-358q0 -20 7 -29t27 -11l54 -7l-3 -36h-190z" />
<glyph horiz-adv-x="582" d="M33 262q0 128 70 205t194 77q120 0 186 -71t66 -191q0 -132 -70 -210.5t-194 -78.5q-120 0 -186 72.5t-66 196.5zM298 34q77 0 112.5 67t35.5 168q0 104 -41.5 169t-119.5 65q-77 0 -113 -65.5t-36 -162.5q0 -107 41.5 -174t120.5 -67z" />
<glyph horiz-adv-x="491" d="M48 501l5 36h234q88 0 132 -39.5t44 -106.5q0 -80 -55.5 -133t-159.5 -53h-48v-140q0 -18 16 -20l79 -9l-3 -36h-239l-5 36q41 7 50 15.5t9 32.5v369q0 24 -9 32.5t-50 15.5zM264 490h-48q-16 0 -16 -18v-220h34q51 0 89 28.5t38 100.5q0 109 -97 109z" />
<glyph horiz-adv-x="582" d="M33 262q0 128 70 205t194 77q120 0 186 -71t66 -191q0 -125 -63 -202t-169 -82l-1 -4q110 -48 145 -48q24 0 57 36l26 -19q-27 -46 -46 -63.5t-41 -17.5q-17 0 -52 13l-123 44q-22 8 -37 8q-11 0 -22.5 -6.5t-17.5 -12t-19 -19.5l-26 18q26 43 51 74q-82 18 -130 86.5 t-48 174.5zM298 34q77 0 112.5 67t35.5 168q0 104 -41.5 169t-119.5 65q-77 0 -113 -65.5t-36 -162.5q0 -107 41.5 -174t120.5 -67z" />
<glyph horiz-adv-x="530" d="M53 0l-5 36q41 7 50 15.5t9 32.5v369q0 24 -9 32.5t-50 15.5l5 36h232q166 0 166 -130q0 -41 -29 -85.5t-78 -67.5v-4q6 -1 13 -13l100 -169q11 -16 24.5 -23t42.5 -9l-5 -36h-131l-140 233h-48v-168q0 -17 16 -20l43 -9l-3 -36h-203zM200 278h34q58 0 88 25.5t30 94.5 q0 92 -98 92h-40q-12 0 -14 -16v-196z" />
<glyph horiz-adv-x="428" d="M366 514q1 -6 1 -18q0 -55 -13 -98l-52 -5q-5 74 -20 86q-18 16 -67 16q-39 0 -62 -18q-26 -18 -26 -52q0 -31 27.5 -55t66.5 -42.5t77.5 -39.5t66 -57.5t27.5 -84.5q0 -70 -52 -111.5t-146 -41.5q-88 0 -151 23q-2 10 -2 37q0 63 9 105l59 5q6 -64 10 -81t11 -21 q30 -19 84 -19q40 0 62 17q25 21 25 60q0 34 -26.5 59.5t-64.5 44t-76 38.5t-64.5 54t-26.5 80q0 68 53.5 108.5t140.5 40.5q77 0 129 -30z" />
<glyph horiz-adv-x="467" d="M116 36q49 8 60 16t11 32v408h-49q-30 0 -48 -3q-7 -1 -11 -10.5t-20 -65.5l-45 5q0 66 19 119h401q15 -43 19 -119l-45 -5q-16 56 -20 65.5t-12 10.5q-18 3 -47 3h-49v-427q0 -17 15 -20l61 -9l-4 -36h-231z" />
<glyph horiz-adv-x="603" d="M452 439q0 34 -13 45.5t-62 16.5l5 36h183l3 -36l-48 -9q-16 -3 -16 -20v-281q0 -91 -52 -144.5t-145 -53.5q-102 0 -152.5 47t-50.5 145v268q0 24 -9 32.5t-50 15.5l5 36h208l3 -36l-48 -9q-16 -3 -16 -20v-278q0 -76 28.5 -112.5t95.5 -36.5q65 0 98 40.5t33 96.5v257z " />
<glyph horiz-adv-x="524" d="M230 -7l-172 474q-6 17 -14.5 22t-37.5 12l5 36h203l3 -37l-55 -15q-6 -1 -6 -5q0 -2 4 -12l113 -330q7 -19 7 -27h8l115 324q11 33 11 40q0 15 -57 26l4 36h157l3 -38q-32 -6 -42 -14t-17 -29l-169 -463h-63z" />
<glyph horiz-adv-x="750" d="M465 -7l-78 264q-3 15 -3 16h-5q0 -3 -4 -15l-92 -265h-67l-159 474q-6 16 -15 21.5t-39 12.5l5 36h194l3 -37l-42 -14q-6 -2 -6 -6l1 -2q0 -2 1 -4.5t1 -4.5l102 -334l7 -26h7l83 245l-33 113q-1 5 -3 8.5t-3 6t-4 5t-4.5 3.5t-6.5 3t-7 2.5t-9.5 2.5t-10.5 3l6 36h184 l3 -37l-54 -14q-6 -2 -6 -6l1 -2q0 -2 1 -4.5t1 -4.5l96 -334q7 -19 7 -26h8l103 326q8 26 8 38q0 18 -58 28l5 36h164l3 -38q-33 -7 -43.5 -15t-17.5 -28l-158 -463h-66z" />
<glyph horiz-adv-x="517" d="M15 0l-5 37q28 7 36.5 12.5t19.5 20.5l138 192l-138 205q-11 17 -19 22.5t-34 11.5l6 36h207l3 -37l-52 -14q-6 -2 -6 -6t6 -12l81 -120q8 -11 8 -24h7l82 117q20 28 20 36t-10.5 12.5t-40.5 11.5l5 36h159l3 -38q-7 -1 -13 -2.5t-11.5 -3.5t-8.5 -3.5t-7 -4.5t-5.5 -4 t-5 -5t-4.5 -5.5t-4.5 -6.5t-4.5 -7l-124 -167l157 -232q9 -13 47 -20l-3 -38h-203l-5 37q40 7 45 17q2 3 2 6q0 6 -6 15l-86 128q-8 12 -8 23h-8l-110 -155q-6 -11 -6 -14q0 -5 7 -8l44 -12l-3 -37h-152z" />
<glyph horiz-adv-x="511" d="M281 287l92 154q16 26 16 37q0 8 -9.5 12t-37.5 11l5 36h159l3 -38q-34 -7 -48 -15.5t-25 -26.5l-130 -222v-170q0 -18 16 -20l60 -9l-3 -36h-233l-4 36q49 8 60 16t11 32v141l-153 242q-10 17 -18.5 22t-35.5 12l5 36h207l3 -37l-53 -14q-5 -2 -5 -6q0 -2 5 -12l98 -154 q7 -11 7 -27h8z" />
<glyph horiz-adv-x="493" d="M123 390l-55 5q-2 32 -2 56q0 42 7 86h381l-1 -26l-276 -443q-10 -14 -17 -17l1 -6l36 1q149 3 169 6q14 4 34 101l56 -4q1 -8 1 -26q0 -75 -13 -123h-411v26l276 443q10 14 17 18l-2 5h-60q-82 0 -109 -5q-12 0 -32 -97z" />
<glyph horiz-adv-x="382" d="M185 272q-75 0 -121 60.5t-46 145.5q0 90 49 155.5t129 65.5q75 0 121.5 -61t46.5 -147q0 -89 -49.5 -154t-129.5 -65zM183 660q-76 0 -76 -167q0 -89 24.5 -135t65.5 -46q78 0 78 158q0 90 -24.5 140t-67.5 50z" />
<glyph horiz-adv-x="267" d="M41 278l-4 31q38 6 51 13.5t13 21.5v258q0 31 -3 37t-16 6q-26 0 -44 -3l-5 31q75 26 133 26l8 -7v-362v-4.5t0.5 -3t2 -2.5t4 -1.5t6.5 -1.5l50 -8l-3 -31h-193z" />
<glyph horiz-adv-x="330" d="M8 278v42q103 82 153.5 145t50.5 115q0 33 -21 55.5t-64 22.5q-36 0 -50 -16q-11 -11 -15 -68l-44 4q-6 28 -6 55q0 24 1 31q21 16 59 25.5t70 9.5q78 0 119.5 -33.5t41.5 -86.5q0 -59 -50 -115t-167 -139l1 -5l61 2q82 2 86 4q12 2 26 61l40 -2v-19q0 -54 -10 -88h-282z " />
<glyph horiz-adv-x="313" d="M12 374l44 3q3 -56 13 -59q18 -6 51 -6q35 0 58.5 21.5t23.5 56.5q0 86 -86 86q-10 0 -34 -2l2 36q54 8 79 33.5t25 56.5q0 27 -18.5 43.5t-46.5 16.5q-32 0 -44 -8q-12 -9 -17 -69l-43 4q-6 32 -6 51q0 25 1 33q50 28 119 28q61 0 99 -23.5t38 -64.5q0 -32 -23 -59.5 t-54 -39.5l1 -5q40 -6 69 -34t29 -72q0 -50 -50.5 -89.5t-130.5 -39.5q-68 0 -110 13q7 64 11 89z" />
<glyph horiz-adv-x="355" d="M152 278l-4 31q38 6 50.5 13t12.5 22v43h-191l-15 46l202 258q46 8 70 8l7 -6v-255l67 -1l-6 -50h-61v-57q0 -11 13 -13l37 -8l-2 -31h-180zM64 445l2 -4l145 -3v170q0 13 2 19l-4 2l-134 -170q-2 -3 -6 -8t-5 -6z" />
<glyph horiz-adv-x="333" d="M99 636l-8 -104q37 10 80 10q64 0 102.5 -32.5t38.5 -87.5q0 -66 -54.5 -108t-132.5 -42q-65 0 -107 16q2 43 12 90l42 3q6 -59 13 -62q10 -7 43 -7q42 0 68.5 27.5t26.5 70.5q0 37 -21 61.5t-63 24.5q-41 0 -80 -15l-24 24l14 188h234l7 -7q0 -28 -11 -50h-180z" />
<glyph horiz-adv-x="343" d="M330 410q0 -59 -43.5 -98.5t-113.5 -39.5q-71 0 -111.5 43t-40.5 116q0 103 74.5 175.5t181.5 94.5l14 -34q-151 -52 -178 -153l5 -2q32 27 80 27q54 0 93 -35.5t39 -93.5zM247 402q0 43 -16.5 68t-43.5 25q-38 0 -65 -16q-14 -7 -16 -24q-3 -10 -3 -18q0 -127 82 -127 q24 0 40 16q22 25 22 76z" />
<glyph horiz-adv-x="300" d="M59 282q11 61 63.5 166.5t117.5 187.5l-1 4l-114 -2q-46 -2 -52 -2q-5 -1 -8.5 -9t-11.5 -41l-40 3q-1 10 -1 31q0 50 4 73h283v-44q-139 -206 -151 -375q-10 -2 -25 -2q-37 0 -64 10z" />
<glyph horiz-adv-x="343" d="M30 581q0 53 41.5 85.5t103.5 32.5q31 0 60.5 -7.5t55 -31t25.5 -60.5q0 -55 -51 -87q-9 -9 -22 -12v-5q1 0 4 -1t7 -3q78 -39 78 -102q0 -52 -45 -85t-119 -33q-24 0 -47 3.5t-49 13t-42 30t-16 50.5q0 62 67 102q12 6 19 6v7q-5 0 -10 2q-60 32 -60 95zM104 601 q0 -30 22.5 -47t71.5 -37q46 31 46 79q0 31 -20 48.5t-53 17.5t-50 -18t-17 -43zM254 374q0 8 -1.5 15t-6.5 13.5t-8.5 11t-12 9.5t-13.5 8.5t-16.5 8t-16 6.5t-18.5 7t-18 7q-5 -3 -12.5 -8t-18.5 -15.5t-18.5 -26t-7.5 -33.5q0 -31 24 -48.5t63 -17.5q42 0 61.5 19 t19.5 44z" />
<glyph horiz-adv-x="344" d="M14 563q0 57 43 96.5t109 39.5q73 0 115.5 -43.5t42.5 -115.5q0 -34 -9 -68t-29.5 -68.5t-50.5 -62t-76.5 -47t-102.5 -23.5l-5 34q144 30 178 148l-5 2q-30 -22 -78 -22q-54 0 -93 37t-39 93zM97 573q0 -47 21.5 -71.5t47.5 -24.5q31 0 55 13q14 9 17 24q4 14 4 35 q0 51 -19.5 82t-60.5 31q-26 0 -42 -17q-23 -23 -23 -72z" />
<glyph horiz-adv-x="521" d="M11 0l-5 37q30 7 36.5 11.5t12.5 21.5l172 474h64l178 -487q4 -12 46 -19l-3 -38h-198l-5 37q55 11 55 25q0 6 -3 16l-31 90h-186l-35 -99q-3 -8 -3 -12t4 -5l56 -15l-3 -37h-152zM159 215h156l-68 203q-5 15 -5 22h-5zM96 693l-8 21l60 51l174 -129l-25 -36z" />
<glyph horiz-adv-x="521" d="M11 0l-5 37q30 7 36.5 11.5t12.5 21.5l172 474h64l178 -487q4 -12 46 -19l-3 -38h-198l-5 37q55 11 55 25q0 6 -3 16l-31 90h-186l-35 -99q-3 -8 -3 -12t4 -5l56 -15l-3 -37h-152zM159 215h156l-68 203q-5 15 -5 22h-5zM394 714l-8 -21l-201 -93l-25 36l174 129z" />
<glyph horiz-adv-x="521" d="M11 0l-5 37q30 7 36.5 11.5t12.5 21.5l172 474h64l178 -487q4 -12 46 -19l-3 -38h-198l-5 37q55 11 55 25q0 6 -3 16l-31 90h-186l-35 -99q-3 -8 -3 -12t4 -5l56 -15l-3 -37h-152zM159 215h156l-68 203q-5 15 -5 22h-5zM402 600l-139 91l-139 -91l-25 26l136 139h56 l136 -139z" />
<glyph horiz-adv-x="521" d="M11 0l-5 37q30 7 36.5 11.5t12.5 21.5l172 474h64l178 -487q4 -12 46 -19l-3 -38h-198l-5 37q55 11 55 25q0 6 -3 16l-31 90h-186l-35 -99q-3 -8 -3 -12t4 -5l56 -15l-3 -37h-152zM159 215h156l-68 203q-5 15 -5 22h-5zM421 742l25 -12q-21 -46 -42.5 -73.5t-49.5 -27.5 q-17 0 -83.5 13.5t-90.5 13.5q-38 0 -72 -34l-23 16q32 53 55 74.5t48 21.5q21 0 85.5 -13.5t84.5 -13.5q30 0 63 35z" />
<glyph horiz-adv-x="521" d="M11 0l-5 37q30 7 36.5 11.5t12.5 21.5l172 474h64l178 -487q4 -12 46 -19l-3 -38h-198l-5 37q55 11 55 25q0 6 -3 16l-31 90h-186l-35 -99q-3 -8 -3 -12t4 -5l56 -15l-3 -37h-152zM159 215h156l-68 203q-5 15 -5 22h-5zM359 626q-52 0 -52 56q0 22 14.5 38t37.5 16 q53 0 53 -54q0 -23 -15 -39.5t-38 -16.5zM166 626q-52 0 -52 56q0 22 14.5 38t37.5 16q53 0 53 -54q0 -23 -15 -39.5t-38 -16.5z" />
<glyph horiz-adv-x="521" d="M11 0l-5 37q30 7 36.5 11.5t12.5 21.5l172 474h64l178 -487q4 -12 46 -19l-3 -38h-198l-5 37q55 11 55 25q0 6 -3 16l-31 90h-186l-35 -99q-3 -8 -3 -12t4 -5l56 -15l-3 -37h-152zM159 215h156l-68 203q-5 15 -5 22h-5zM258 590q-41 0 -68.5 23.5t-27.5 64.5t29.5 66.5 t71.5 25.5q40 0 68 -24t28 -63q0 -41 -29.5 -67t-71.5 -26zM258 633q22 0 36.5 14t14.5 36q0 20 -13 32t-33 12q-52 0 -52 -49q0 -21 13 -33t34 -12z" />
<glyph horiz-adv-x="512" d="M38 276q0 45 15 90t45.5 86t85 66.5t124.5 25.5q87 0 167 -40q1 -9 1 -31q0 -69 -12 -114l-60 -7q-9 82 -12.5 99.5t-9.5 21.5q-28 24 -76 24q-81 0 -123 -61t-42 -160q0 -117 56 -176.5t129 -59.5q22 0 42.5 5.5t24.5 11.5q15 27 24 100l54 -3q9 -43 9 -96q0 -18 -2 -36 q-19 -10 -72 -19.5t-86 -9.5q-78 0 -134.5 22.5t-88 63t-45.5 89t-14 108.5zM230 -89l38 129l49 -13l-32 -113zM235 -217l-4 31q95 13 95 58q0 16 -12 27t-34 11q-23 0 -41 -10l-9 11l48 37q22 7 45 7q40 0 62.5 -17t22.5 -47q0 -42 -46.5 -73t-126.5 -35z" />
<glyph horiz-adv-x="477" d="M53 0l-5 36q41 7 50 15.5t9 32.5v369q0 24 -9 32.5t-50 15.5l5 36h359q5 -32 5 -67q0 -25 -2 -59l-50 -6q-11 54 -15.5 67.5t-10.5 14.5q-31 2 -48 3l-91 2v-200h93q10 0 25 55l30 -2q0 -79 11 -159l-34 -5q-12 42 -16.5 53t-9.5 11h-99v-200l59 1q80 1 106 5q14 6 39 96 l43 -5q1 -12 1 -40q0 -67 -13 -102h-382zM87 693l-8 21l60 51l174 -129l-25 -36z" />
<glyph horiz-adv-x="477" d="M53 0l-5 36q41 7 50 15.5t9 32.5v369q0 24 -9 32.5t-50 15.5l5 36h359q5 -32 5 -67q0 -25 -2 -59l-50 -6q-11 54 -15.5 67.5t-10.5 14.5q-31 2 -48 3l-91 2v-200h93q10 0 25 55l30 -2q0 -79 11 -159l-34 -5q-12 42 -16.5 53t-9.5 11h-99v-200l59 1q80 1 106 5q14 6 39 96 l43 -5q1 -12 1 -40q0 -67 -13 -102h-382zM385 714l-8 -21l-201 -93l-25 36l174 129z" />
<glyph horiz-adv-x="477" d="M53 0l-5 36q41 7 50 15.5t9 32.5v369q0 24 -9 32.5t-50 15.5l5 36h359q5 -32 5 -67q0 -25 -2 -59l-50 -6q-11 54 -15.5 67.5t-10.5 14.5q-31 2 -48 3l-91 2v-200h93q10 0 25 55l30 -2q0 -79 11 -159l-34 -5q-12 42 -16.5 53t-9.5 11h-99v-200l59 1q80 1 106 5q14 6 39 96 l43 -5q1 -12 1 -40q0 -67 -13 -102h-382zM379 600l-139 91l-139 -91l-25 26l136 139h56l136 -139z" />
<glyph horiz-adv-x="477" d="M53 0l-5 36q41 7 50 15.5t9 32.5v369q0 24 -9 32.5t-50 15.5l5 36h359q5 -32 5 -67q0 -25 -2 -59l-50 -6q-11 54 -15.5 67.5t-10.5 14.5q-31 2 -48 3l-91 2v-200h93q10 0 25 55l30 -2q0 -79 11 -159l-34 -5q-12 42 -16.5 53t-9.5 11h-99v-200l59 1q80 1 106 5q14 6 39 96 l43 -5q1 -12 1 -40q0 -67 -13 -102h-382zM336 626q-52 0 -52 56q0 22 14.5 38t37.5 16q53 0 53 -54q0 -23 -15 -39.5t-38 -16.5zM143 626q-52 0 -52 56q0 22 14.5 38t37.5 16q53 0 53 -54q0 -23 -15 -39.5t-38 -16.5z" />
<glyph horiz-adv-x="307" d="M53 0l-5 36q41 7 50 15.5t9 32.5v369q0 24 -9 32.5t-50 15.5l5 36h208l3 -36l-48 -9q-16 -3 -16 -20v-407q0 -17 16 -20l48 -9l-3 -36h-208zM8 693l-8 21l60 51l174 -129l-25 -36z" />
<glyph horiz-adv-x="307" d="M53 0l-5 36q41 7 50 15.5t9 32.5v369q0 24 -9 32.5t-50 15.5l5 36h208l3 -36l-48 -9q-16 -3 -16 -20v-407q0 -17 16 -20l48 -9l-3 -36h-208zM291 714l-8 -21l-201 -93l-25 36l174 129z" />
<glyph horiz-adv-x="307" d="M53 0l-5 36q41 7 50 15.5t9 32.5v369q0 24 -9 32.5t-50 15.5l5 36h208l3 -36l-48 -9q-16 -3 -16 -20v-407q0 -17 16 -20l48 -9l-3 -36h-208zM297 600l-139 91l-139 -91l-25 26l136 139h56l136 -139z" />
<glyph horiz-adv-x="307" d="M53 0l-5 36q41 7 50 15.5t9 32.5v369q0 24 -9 32.5t-50 15.5l5 36h208l3 -36l-48 -9q-16 -3 -16 -20v-407q0 -17 16 -20l48 -9l-3 -36h-208zM253 626q-52 0 -52 56q0 22 14.5 38t37.5 16q53 0 53 -54q0 -23 -15 -39.5t-38 -16.5zM60 626q-52 0 -52 56q0 22 14.5 38 t37.5 16q53 0 53 -54q0 -23 -15 -39.5t-38 -16.5z" />
<glyph horiz-adv-x="577" d="M36 0l-5 36q41 7 50 15.5t9 32.5v369q0 24 -9 32.5t-50 15.5l5 36h155l233 -349q11 -16 13 -28h6v278q0 35 -13 46.5t-62 16.5l5 36h181l3 -36l-48 -9q-15 -3 -15 -20v-472l-53 -4l-281 416q-12 18 -13 29h-6v-358q0 -20 7 -29t27 -11l54 -7l-3 -36h-190zM436 742l25 -12 q-21 -46 -42.5 -73.5t-49.5 -27.5q-17 0 -83.5 13.5t-90.5 13.5q-38 0 -72 -34l-23 16q32 53 55 74.5t48 21.5q21 0 85.5 -13.5t84.5 -13.5q30 0 63 35z" />
<glyph horiz-adv-x="582" d="M33 262q0 128 70 205t194 77q120 0 186 -71t66 -191q0 -132 -70 -210.5t-194 -78.5q-120 0 -186 72.5t-66 196.5zM298 34q77 0 112.5 67t35.5 168q0 104 -41.5 169t-119.5 65q-77 0 -113 -65.5t-36 -162.5q0 -107 41.5 -174t120.5 -67zM141 693l-8 21l60 51l174 -129 l-25 -36z" />
<glyph horiz-adv-x="582" d="M33 262q0 128 70 205t194 77q120 0 186 -71t66 -191q0 -132 -70 -210.5t-194 -78.5q-120 0 -186 72.5t-66 196.5zM298 34q77 0 112.5 67t35.5 168q0 104 -41.5 169t-119.5 65q-77 0 -113 -65.5t-36 -162.5q0 -107 41.5 -174t120.5 -67zM426 714l-8 -21l-201 -93l-25 36 l174 129z" />
<glyph horiz-adv-x="582" d="M33 262q0 128 70 205t194 77q120 0 186 -71t66 -191q0 -132 -70 -210.5t-194 -78.5q-120 0 -186 72.5t-66 196.5zM298 34q77 0 112.5 67t35.5 168q0 104 -41.5 169t-119.5 65q-77 0 -113 -65.5t-36 -162.5q0 -107 41.5 -174t120.5 -67zM427 600l-139 91l-139 -91l-25 26 l136 139h56l136 -139z" />
<glyph horiz-adv-x="582" d="M33 262q0 128 70 205t194 77q120 0 186 -71t66 -191q0 -132 -70 -210.5t-194 -78.5q-120 0 -186 72.5t-66 196.5zM298 34q77 0 112.5 67t35.5 168q0 104 -41.5 169t-119.5 65q-77 0 -113 -65.5t-36 -162.5q0 -107 41.5 -174t120.5 -67zM453 742l25 -12 q-21 -46 -42.5 -73.5t-49.5 -27.5q-17 0 -83.5 13.5t-90.5 13.5q-38 0 -72 -34l-23 16q32 53 55 74.5t48 21.5q21 0 85.5 -13.5t84.5 -13.5q30 0 63 35z" />
<glyph horiz-adv-x="582" d="M33 262q0 128 70 205t194 77q120 0 186 -71t66 -191q0 -132 -70 -210.5t-194 -78.5q-120 0 -186 72.5t-66 196.5zM298 34q77 0 112.5 67t35.5 168q0 104 -41.5 169t-119.5 65q-77 0 -113 -65.5t-36 -162.5q0 -107 41.5 -174t120.5 -67zM389 626q-52 0 -52 56 q0 22 14.5 38t37.5 16q53 0 53 -54q0 -23 -15 -39.5t-38 -16.5zM196 626q-52 0 -52 56q0 22 14.5 38t37.5 16q53 0 53 -54q0 -23 -15 -39.5t-38 -16.5z" />
<glyph horiz-adv-x="582" d="M436 607l55 -20l-335 -653l-54 20zM33 262q0 128 70 205t194 77q120 0 186 -71t66 -191q0 -132 -70 -210.5t-194 -78.5q-120 0 -186 72.5t-66 196.5zM298 34q77 0 112.5 67t35.5 168q0 104 -41.5 169t-119.5 65q-77 0 -113 -65.5t-36 -162.5q0 -107 41.5 -174t120.5 -67z " />
<glyph horiz-adv-x="603" d="M452 439q0 34 -13 45.5t-62 16.5l5 36h183l3 -36l-48 -9q-16 -3 -16 -20v-281q0 -91 -52 -144.5t-145 -53.5q-102 0 -152.5 47t-50.5 145v268q0 24 -9 32.5t-50 15.5l5 36h208l3 -36l-48 -9q-16 -3 -16 -20v-278q0 -76 28.5 -112.5t95.5 -36.5q65 0 98 40.5t33 96.5v257z M156 693l-8 21l60 51l174 -129l-25 -36z" />
<glyph horiz-adv-x="603" d="M452 439q0 34 -13 45.5t-62 16.5l5 36h183l3 -36l-48 -9q-16 -3 -16 -20v-281q0 -91 -52 -144.5t-145 -53.5q-102 0 -152.5 47t-50.5 145v268q0 24 -9 32.5t-50 15.5l5 36h208l3 -36l-48 -9q-16 -3 -16 -20v-278q0 -76 28.5 -112.5t95.5 -36.5q65 0 98 40.5t33 96.5v257z M445 714l-8 -21l-201 -93l-25 36l174 129z" />
<glyph horiz-adv-x="603" d="M452 439q0 34 -13 45.5t-62 16.5l5 36h183l3 -36l-48 -9q-16 -3 -16 -20v-281q0 -91 -52 -144.5t-145 -53.5q-102 0 -152.5 47t-50.5 145v268q0 24 -9 32.5t-50 15.5l5 36h208l3 -36l-48 -9q-16 -3 -16 -20v-278q0 -76 28.5 -112.5t95.5 -36.5q65 0 98 40.5t33 96.5v257z M445 600l-139 91l-139 -91l-25 26l136 139h56l136 -139z" />
<glyph horiz-adv-x="603" d="M452 439q0 34 -13 45.5t-62 16.5l5 36h183l3 -36l-48 -9q-16 -3 -16 -20v-281q0 -91 -52 -144.5t-145 -53.5q-102 0 -152.5 47t-50.5 145v268q0 24 -9 32.5t-50 15.5l5 36h208l3 -36l-48 -9q-16 -3 -16 -20v-278q0 -76 28.5 -112.5t95.5 -36.5q65 0 98 40.5t33 96.5v257z M411 626q-52 0 -52 56q0 22 14.5 38t37.5 16q53 0 53 -54q0 -23 -15 -39.5t-38 -16.5zM218 626q-52 0 -52 56q0 22 14.5 38t37.5 16q53 0 53 -54q0 -23 -15 -39.5t-38 -16.5z" />
<glyph horiz-adv-x="511" d="M281 287l92 154q16 26 16 37q0 8 -9.5 12t-37.5 11l5 36h159l3 -38q-34 -7 -48 -15.5t-25 -26.5l-130 -222v-170q0 -18 16 -20l60 -9l-3 -36h-233l-4 36q49 8 60 16t11 32v141l-153 242q-10 17 -18.5 22t-35.5 12l5 36h207l3 -37l-53 -14q-5 -2 -5 -6q0 -2 5 -12l98 -154 q7 -11 7 -27h8zM418 714l-8 -21l-201 -93l-25 36l174 129z" />
<glyph horiz-adv-x="511" d="M281 287l92 154q16 26 16 37q0 8 -9.5 12t-37.5 11l5 36h159l3 -38q-34 -7 -48 -15.5t-25 -26.5l-130 -222v-170q0 -18 16 -20l60 -9l-3 -36h-233l-4 36q49 8 60 16t11 32v141l-153 242q-10 17 -18.5 22t-35.5 12l5 36h207l3 -37l-53 -14q-5 -2 -5 -6q0 -2 5 -12l98 -154 q7 -11 7 -27h8zM366 626q-52 0 -52 56q0 22 14.5 38t37.5 16q53 0 53 -54q0 -23 -15 -39.5t-38 -16.5zM173 626q-52 0 -52 56q0 22 14.5 38t37.5 16q53 0 53 -54q0 -23 -15 -39.5t-38 -16.5z" />
<glyph horiz-adv-x="521" d="M11 0l-5 37q30 7 36.5 11.5t12.5 21.5l172 474h64l178 -487q4 -12 46 -19l-3 -38h-198l-5 37q55 11 55 25q0 6 -3 16l-31 90h-186l-35 -99q-3 -8 -3 -12t4 -5l56 -15l-3 -37h-152zM159 215h156l-68 203q-5 15 -5 22h-5zM143 650v60h249v-60h-249z" />
<glyph horiz-adv-x="521" d="M11 0l-5 37q30 7 36.5 11.5t12.5 21.5l172 474h64l178 -487q4 -12 46 -19l-3 -38h-198l-5 37q55 11 55 25q0 6 -3 16l-31 90h-186l-35 -99q-3 -8 -3 -12t4 -5l56 -15l-3 -37h-152zM159 215h156l-68 203q-5 15 -5 22h-5zM378 751h37q-4 -62 -41 -101t-108 -39t-108 39 t-41 101h37q17 -72 112 -72t112 72z" />
<glyph horiz-adv-x="521" d="M11 0l-5 37q30 7 36.5 11.5t12.5 21.5l172 474h64l178 -487q4 -12 46 -19l-3 -38h-198l-5 37q55 11 55 25q0 6 -3 16l-31 90h-186l-35 -99q-3 -8 -3 -12t4 -5l56 -15l-3 -37h-152zM159 215h156l-68 203q-5 15 -5 22h-5zM450 -171q-45 -41 -95 -41q-36 0 -61 24.5 t-25 66.5q0 44 41 86.5t121 67.5l11 -20q-106 -52 -106 -124q0 -23 14 -37t35 -14q29 0 54 9z" />
<glyph horiz-adv-x="512" d="M38 276q0 45 15 90t45.5 86t85 66.5t124.5 25.5q87 0 167 -40q1 -9 1 -31q0 -69 -12 -114l-60 -7q-9 82 -12.5 99.5t-9.5 21.5q-28 24 -76 24q-81 0 -123 -61t-42 -160q0 -117 56 -176.5t129 -59.5q22 0 42.5 5.5t24.5 11.5q15 27 24 100l54 -3q9 -43 9 -96q0 -18 -2 -36 q-19 -10 -72 -19.5t-86 -9.5q-78 0 -134.5 22.5t-88 63t-45.5 89t-14 108.5zM425 714l-8 -21l-201 -93l-25 36l174 129z" />
<glyph horiz-adv-x="512" d="M38 276q0 45 15 90t45.5 86t85 66.5t124.5 25.5q87 0 167 -40q1 -9 1 -31q0 -69 -12 -114l-60 -7q-9 82 -12.5 99.5t-9.5 21.5q-28 24 -76 24q-81 0 -123 -61t-42 -160q0 -117 56 -176.5t129 -59.5q22 0 42.5 5.5t24.5 11.5q15 27 24 100l54 -3q9 -43 9 -96q0 -18 -2 -36 q-19 -10 -72 -19.5t-86 -9.5q-78 0 -134.5 22.5t-88 63t-45.5 89t-14 108.5zM422 600l-139 91l-139 -91l-25 26l136 139h56l136 -139z" />
<glyph horiz-adv-x="512" d="M38 276q0 45 15 90t45.5 86t85 66.5t124.5 25.5q87 0 167 -40q1 -9 1 -31q0 -69 -12 -114l-60 -7q-9 82 -12.5 99.5t-9.5 21.5q-28 24 -76 24q-81 0 -123 -61t-42 -160q0 -117 56 -176.5t129 -59.5q22 0 42.5 5.5t24.5 11.5q15 27 24 100l54 -3q9 -43 9 -96q0 -18 -2 -36 q-19 -10 -72 -19.5t-86 -9.5q-78 0 -134.5 22.5t-88 63t-45.5 89t-14 108.5zM130 768l139 -91l139 91l25 -26l-136 -139h-56l-136 139z" />
<glyph horiz-adv-x="592" d="M53 0l-5 36q41 7 50 15.5t9 32.5v369q0 24 -9 32.5t-50 15.5l5 36h253q69 0 120 -21.5t79 -58.5t41 -79.5t13 -92.5q0 -42 -9 -81.5t-29.5 -77t-51 -65t-77.5 -44.5t-104 -17h-235zM200 78q0 -17 17 -21q43 -10 74 -10q82 0 124 59.5t42 159.5q0 62 -16 108t-42.5 70 t-54 35t-56.5 11h-88v-412zM119 768l139 -91l139 91l25 -26l-136 -139h-56l-136 139z" />
<glyph horiz-adv-x="477" d="M53 0l-5 36q41 7 50 15.5t9 32.5v369q0 24 -9 32.5t-50 15.5l5 36h359q5 -32 5 -67q0 -25 -2 -59l-50 -6q-11 54 -15.5 67.5t-10.5 14.5q-31 2 -48 3l-91 2v-200h93q10 0 25 55l30 -2q0 -79 11 -159l-34 -5q-12 42 -16.5 53t-9.5 11h-99v-200l59 1q80 1 106 5q14 6 39 96 l43 -5q1 -12 1 -40q0 -67 -13 -102h-382zM115 650v60h249v-60h-249z" />
<glyph horiz-adv-x="477" d="M53 0l-5 36q41 7 50 15.5t9 32.5v369q0 24 -9 32.5t-50 15.5l5 36h359q5 -32 5 -67q0 -25 -2 -59l-50 -6q-11 54 -15.5 67.5t-10.5 14.5q-31 2 -48 3l-91 2v-200h93q10 0 25 55l30 -2q0 -79 11 -159l-34 -5q-12 42 -16.5 53t-9.5 11h-99v-200l59 1q80 1 106 5q14 6 39 96 l43 -5q1 -12 1 -40q0 -67 -13 -102h-382zM351 751h37q-4 -62 -41 -101t-108 -39t-108 39t-41 101h37q17 -72 112 -72t112 72z" />
<glyph horiz-adv-x="477" d="M53 0l-5 36q41 7 50 15.5t9 32.5v369q0 24 -9 32.5t-50 15.5l5 36h359q5 -32 5 -67q0 -25 -2 -59l-50 -6q-11 54 -15.5 67.5t-10.5 14.5q-31 2 -48 3l-91 2v-200h93q10 0 25 55l30 -2q0 -79 11 -159l-34 -5q-12 42 -16.5 53t-9.5 11h-99v-200l59 1q80 1 106 5q14 6 39 96 l43 -5q1 -12 1 -40q0 -67 -13 -102h-382zM426 -171q-45 -41 -95 -41q-36 0 -61 24.5t-25 66.5q0 44 41 86.5t121 67.5l11 -20q-106 -52 -106 -124q0 -23 14 -37t35 -14q29 0 54 9z" />
<glyph horiz-adv-x="477" d="M53 0l-5 36q41 7 50 15.5t9 32.5v369q0 24 -9 32.5t-50 15.5l5 36h359q5 -32 5 -67q0 -25 -2 -59l-50 -6q-11 54 -15.5 67.5t-10.5 14.5q-31 2 -48 3l-91 2v-200h93q10 0 25 55l30 -2q0 -79 11 -159l-34 -5q-12 42 -16.5 53t-9.5 11h-99v-200l59 1q80 1 106 5q14 6 39 96 l43 -5q1 -12 1 -40q0 -67 -13 -102h-382zM110 768l139 -91l139 91l25 -26l-136 -139h-56l-136 139z" />
<glyph horiz-adv-x="560" d="M480 15q-101 -22 -180 -22q-138 0 -202.5 79t-64.5 204q0 45 16 90.5t47 86t85.5 66t124.5 25.5q79 0 170 -32v-22q0 -75 -11 -116l-60 -7q-1 10 -3 28q-10 77 -15 84q-1 1 -3 2q-20 16 -80 16q-82 0 -125 -59.5t-43 -161.5q0 -120 56.5 -178t124.5 -58q43 0 70 9v108 q0 24 -9 32.5t-50 15.5l5 30h200l3 -30l-40 -10q-16 -3 -16 -20v-160zM417 600l-139 91l-139 -91l-25 26l136 139h56l136 -139z" />
<glyph horiz-adv-x="560" d="M480 15q-101 -22 -180 -22q-138 0 -202.5 79t-64.5 204q0 45 16 90.5t47 86t85.5 66t124.5 25.5q79 0 170 -32v-22q0 -75 -11 -116l-60 -7q-1 10 -3 28q-10 77 -15 84q-1 1 -3 2q-20 16 -80 16q-82 0 -125 -59.5t-43 -161.5q0 -120 56.5 -178t124.5 -58q43 0 70 9v108 q0 24 -9 32.5t-50 15.5l5 30h200l3 -30l-40 -10q-16 -3 -16 -20v-160zM390 751h37q-4 -62 -41 -101t-108 -39t-108 39t-41 101h37q17 -72 112 -72t112 72z" />
<glyph horiz-adv-x="631" d="M53 0l-5 36q41 7 50 15.5t9 32.5v375q0 23 -8 29t-51 13l5 36h208l3 -36l-48 -9q-16 -3 -16 -20v-161h231v148q0 23 -8 29t-51 13l5 36h208l3 -36l-48 -9q-16 -3 -16 -20v-407q0 -17 16 -20l48 -9l-3 -36h-208l-5 36q41 7 50 15.5t9 32.5v175h-231v-194q0 -17 16 -20 l48 -9l-3 -36h-208zM447 600l-139 91l-139 -91l-25 26l136 139h56l136 -139z" />
<glyph horiz-adv-x="631" d="M53 0l-5 36q41 7 50 15.5t9 32.5v375q0 23 -8 29t-51 13l5 36h208l3 -36l-48 -9q-16 -3 -16 -20v-161h231v148q0 23 -8 29t-51 13l5 36h208l3 -36l-48 -9q-16 -3 -16 -20v-407q0 -17 16 -20l48 -9l-3 -36h-208l-5 36q41 7 50 15.5t9 32.5v175h-231v-194q0 -17 16 -20 l48 -9l-3 -36h-208zM54 365v53h522v-53h-522z" />
<glyph horiz-adv-x="307" d="M53 0l-5 36q41 7 50 15.5t9 32.5v369q0 24 -9 32.5t-50 15.5l5 36h208l3 -36l-48 -9q-16 -3 -16 -20v-407q0 -17 16 -20l48 -9l-3 -36h-208zM309 742l25 -12q-21 -46 -42.5 -73.5t-49.5 -27.5q-17 0 -83.5 13.5t-90.5 13.5q-38 0 -72 -34l-23 16q32 53 55 74.5t48 21.5 q21 0 85.5 -13.5t84.5 -13.5q30 0 63 35z" />
<glyph horiz-adv-x="307" d="M53 0l-5 36q41 7 50 15.5t9 32.5v369q0 24 -9 32.5t-50 15.5l5 36h208l3 -36l-48 -9q-16 -3 -16 -20v-407q0 -17 16 -20l48 -9l-3 -36h-208zM32 650v60h249v-60h-249z" />
<glyph horiz-adv-x="307" d="M53 0l-5 36q41 7 50 15.5t9 32.5v369q0 24 -9 32.5t-50 15.5l5 36h208l3 -36l-48 -9q-16 -3 -16 -20v-407q0 -17 16 -20l48 -9l-3 -36h-208zM264 751h37q-4 -62 -41 -101t-108 -39t-108 39t-41 101h37q17 -72 112 -72t112 72z" />
<glyph horiz-adv-x="307" d="M53 0l-5 36q41 7 50 15.5t9 32.5v369q0 24 -9 32.5t-50 15.5l5 36h208l3 -36l-48 -9q-16 -3 -16 -20v-407q0 -17 16 -20l48 -9l-3 -36h-208zM223 -171q-45 -41 -95 -41q-36 0 -61 24.5t-25 66.5q0 44 41 86.5t121 67.5l11 -20q-106 -52 -106 -124q0 -23 13.5 -37 t35.5 -14q29 0 54 9z" />
<glyph horiz-adv-x="456" d="M53 0l-5 36q41 7 50 15.5t9 32.5v369q0 24 -9 32.5t-50 15.5l5 36h208l3 -36l-48 -9q-16 -3 -16 -20v-427l62 1q82 1 95 6q14 4 36 119l48 -4q1 -13 1 -45q0 -42 -8 -122h-381zM303 714l-8 -21l-201 -93l-25 36l174 129z" />
<glyph horiz-adv-x="456" d="M53 0l-5 36q41 7 50 15.5t9 32.5v369q0 24 -9 32.5t-50 15.5l5 36h208l3 -36l-48 -9q-16 -3 -16 -20v-427l62 1q82 1 95 6q14 4 36 119l48 -4q1 -13 1 -45q0 -42 -8 -122h-381zM49 768l139 -91l139 91l25 -26l-136 -139h-56l-136 139z" />
<glyph horiz-adv-x="456" d="M53 0l-5 36q41 7 50 15.5t9 32.5v369q0 24 -9 32.5t-50 15.5l5 36h208l3 -36l-48 -9q-16 -3 -16 -20v-427l62 1q82 1 95 6q14 4 36 119l48 -4q1 -13 1 -45q0 -42 -8 -122h-381zM345 264q-25 0 -41.5 15t-16.5 44q0 24 15.5 40t42.5 16q57 0 57 -56q0 -25 -15.5 -42 t-41.5 -17z" />
<glyph horiz-adv-x="456" d="M52 165l-28 43l303 200l28 -43zM53 0l-5 36q41 7 50 15.5t9 32.5v369q0 24 -9 32.5t-50 15.5l5 36h208l3 -36l-48 -9q-16 -3 -16 -20v-427l62 1q82 1 95 6q14 4 36 119l48 -4q1 -13 1 -45q0 -42 -8 -122h-381z" />
<glyph horiz-adv-x="577" d="M36 0l-5 36q41 7 50 15.5t9 32.5v369q0 24 -9 32.5t-50 15.5l5 36h155l233 -349q11 -16 13 -28h6v278q0 35 -13 46.5t-62 16.5l5 36h181l3 -36l-48 -9q-15 -3 -15 -20v-472l-53 -4l-281 416q-12 18 -13 29h-6v-358q0 -20 7 -29t27 -11l54 -7l-3 -36h-190zM421 714l-8 -21 l-201 -93l-25 36l174 129z" />
<glyph horiz-adv-x="577" d="M36 0l-5 36q41 7 50 15.5t9 32.5v369q0 24 -9 32.5t-50 15.5l5 36h155l233 -349q11 -16 13 -28h6v278q0 35 -13 46.5t-62 16.5l5 36h181l3 -36l-48 -9q-15 -3 -15 -20v-472l-53 -4l-281 416q-12 18 -13 29h-6v-358q0 -20 7 -29t27 -11l54 -7l-3 -36h-190zM140 768 l139 -91l139 91l25 -26l-136 -139h-56l-136 139z" />
<glyph horiz-adv-x="582" d="M33 262q0 128 70 205t194 77q120 0 186 -71t66 -191q0 -132 -70 -210.5t-194 -78.5q-120 0 -186 72.5t-66 196.5zM298 34q77 0 112.5 67t35.5 168q0 104 -41.5 169t-119.5 65q-77 0 -113 -65.5t-36 -162.5q0 -107 41.5 -174t120.5 -67zM159 650v60h249v-60h-249z" />
<glyph horiz-adv-x="582" d="M33 262q0 128 70 205t194 77q120 0 186 -71t66 -191q0 -132 -70 -210.5t-194 -78.5q-120 0 -186 72.5t-66 196.5zM298 34q77 0 112.5 67t35.5 168q0 104 -41.5 169t-119.5 65q-77 0 -113 -65.5t-36 -162.5q0 -107 41.5 -174t120.5 -67zM401 751h37q-4 -62 -41 -101 t-108 -39t-108 39t-41 101h37q17 -72 112 -72t112 72z" />
<glyph horiz-adv-x="582" d="M33 262q0 128 70 205t194 77q120 0 186 -71t66 -191q0 -132 -70 -210.5t-194 -78.5q-120 0 -186 72.5t-66 196.5zM298 34q77 0 112.5 67t35.5 168q0 104 -41.5 169t-119.5 65q-77 0 -113 -65.5t-36 -162.5q0 -107 41.5 -174t120.5 -67zM481 736v-23l-177 -111l-35 25 l117 139zM283 736v-23l-177 -111l-35 25l117 139z" />
<glyph horiz-adv-x="530" d="M53 0l-5 36q41 7 50 15.5t9 32.5v369q0 24 -9 32.5t-50 15.5l5 36h232q166 0 166 -130q0 -41 -29 -85.5t-78 -67.5v-4q6 -1 13 -13l100 -169q11 -16 24.5 -23t42.5 -9l-5 -36h-131l-140 233h-48v-168q0 -17 16 -20l43 -9l-3 -36h-203zM200 278h34q58 0 88 25.5t30 94.5 q0 92 -98 92h-40q-12 0 -14 -16v-196zM407 714l-8 -21l-201 -93l-25 36l174 129z" />
<glyph horiz-adv-x="530" d="M53 0l-5 36q41 7 50 15.5t9 32.5v369q0 24 -9 32.5t-50 15.5l5 36h232q166 0 166 -130q0 -41 -29 -85.5t-78 -67.5v-4q6 -1 13 -13l100 -169q11 -16 24.5 -23t42.5 -9l-5 -36h-131l-140 233h-48v-168q0 -17 16 -20l43 -9l-3 -36h-203zM200 278h34q58 0 88 25.5t30 94.5 q0 92 -98 92h-40q-12 0 -14 -16v-196zM108 768l139 -91l139 91l25 -26l-136 -139h-56l-136 139z" />
<glyph horiz-adv-x="428" d="M366 514q1 -6 1 -18q0 -55 -13 -98l-52 -5q-5 74 -20 86q-18 16 -67 16q-39 0 -62 -18q-26 -18 -26 -52q0 -31 27.5 -55t66.5 -42.5t77.5 -39.5t66 -57.5t27.5 -84.5q0 -70 -52 -111.5t-146 -41.5q-88 0 -151 23q-2 10 -2 37q0 63 9 105l59 5q6 -64 10 -81t11 -21 q30 -19 84 -19q40 0 62 17q25 21 25 60q0 34 -26.5 59.5t-64.5 44t-76 38.5t-64.5 54t-26.5 80q0 68 53.5 108.5t140.5 40.5q77 0 129 -30zM342 714l-8 -21l-201 -93l-25 36l174 129z" />
<glyph horiz-adv-x="428" d="M366 514q1 -6 1 -18q0 -55 -13 -98l-52 -5q-5 74 -20 86q-18 16 -67 16q-39 0 -62 -18q-26 -18 -26 -52q0 -31 27.5 -55t66.5 -42.5t77.5 -39.5t66 -57.5t27.5 -84.5q0 -70 -52 -111.5t-146 -41.5q-88 0 -151 23q-2 10 -2 37q0 63 9 105l59 5q6 -64 10 -81t11 -21 q30 -19 84 -19q40 0 62 17q25 21 25 60q0 34 -26.5 59.5t-64.5 44t-76 38.5t-64.5 54t-26.5 80q0 68 53.5 108.5t140.5 40.5q77 0 129 -30zM351 600l-139 91l-139 -91l-25 26l136 139h56l136 -139z" />
<glyph horiz-adv-x="428" d="M366 514q1 -6 1 -18q0 -55 -13 -98l-52 -5q-5 74 -20 86q-18 16 -67 16q-39 0 -62 -18q-26 -18 -26 -52q0 -31 27.5 -55t66.5 -42.5t77.5 -39.5t66 -57.5t27.5 -84.5q0 -70 -52 -111.5t-146 -41.5q-88 0 -151 23q-2 10 -2 37q0 63 9 105l59 5q6 -64 10 -81t11 -21 q30 -19 84 -19q40 0 62 17q25 21 25 60q0 34 -26.5 59.5t-64.5 44t-76 38.5t-64.5 54t-26.5 80q0 68 53.5 108.5t140.5 40.5q77 0 129 -30zM148 -89l38 129l49 -13l-32 -113zM153 -217l-4 31q95 13 95 58q0 16 -12 27t-34 11q-23 0 -41 -10l-9 11l48 37q22 7 45 7 q40 0 62.5 -17t22.5 -47q0 -42 -46.5 -73t-126.5 -35z" />
<glyph horiz-adv-x="428" d="M366 514q1 -6 1 -18q0 -55 -13 -98l-52 -5q-5 74 -20 86q-18 16 -67 16q-39 0 -62 -18q-26 -18 -26 -52q0 -31 27.5 -55t66.5 -42.5t77.5 -39.5t66 -57.5t27.5 -84.5q0 -70 -52 -111.5t-146 -41.5q-88 0 -151 23q-2 10 -2 37q0 63 9 105l59 5q6 -64 10 -81t11 -21 q30 -19 84 -19q40 0 62 17q25 21 25 60q0 34 -26.5 59.5t-64.5 44t-76 38.5t-64.5 54t-26.5 80q0 68 53.5 108.5t140.5 40.5q77 0 129 -30zM73 768l139 -91l139 91l25 -26l-136 -139h-56l-136 139z" />
<glyph horiz-adv-x="467" d="M116 36q49 8 60 16t11 32v408h-49q-30 0 -48 -3q-7 -1 -11 -10.5t-20 -65.5l-45 5q0 66 19 119h401q15 -43 19 -119l-45 -5q-16 56 -20 65.5t-12 10.5q-18 3 -47 3h-49v-427q0 -17 15 -20l61 -9l-4 -36h-231zM94 768l139 -91l139 91l25 -26l-136 -139h-56l-136 139z" />
<glyph horiz-adv-x="467" d="M116 36q49 8 60 16t11 32v408h-49q-30 0 -48 -3q-7 -1 -11 -10.5t-20 -65.5l-45 5q0 66 19 119h401q15 -43 19 -119l-45 -5q-16 56 -20 65.5t-12 10.5q-18 3 -47 3h-49v-427q0 -17 15 -20l61 -9l-4 -36h-231zM24 237v53h414v-53h-414z" />
<glyph horiz-adv-x="603" d="M452 439q0 34 -13 45.5t-62 16.5l5 36h183l3 -36l-48 -9q-16 -3 -16 -20v-281q0 -91 -52 -144.5t-145 -53.5q-102 0 -152.5 47t-50.5 145v268q0 24 -9 32.5t-50 15.5l5 36h208l3 -36l-48 -9q-16 -3 -16 -20v-278q0 -76 28.5 -112.5t95.5 -36.5q65 0 98 40.5t33 96.5v257z M459 742l25 -12q-21 -46 -42.5 -73.5t-49.5 -27.5q-17 0 -83.5 13.5t-90.5 13.5q-38 0 -72 -34l-23 16q32 53 55 74.5t48 21.5q21 0 85.5 -13.5t84.5 -13.5q30 0 63 35z" />
<glyph horiz-adv-x="603" d="M452 439q0 34 -13 45.5t-62 16.5l5 36h183l3 -36l-48 -9q-16 -3 -16 -20v-281q0 -91 -52 -144.5t-145 -53.5q-102 0 -152.5 47t-50.5 145v268q0 24 -9 32.5t-50 15.5l5 36h208l3 -36l-48 -9q-16 -3 -16 -20v-278q0 -76 28.5 -112.5t95.5 -36.5q65 0 98 40.5t33 96.5v257z M182 650v60h249v-60h-249z" />
<glyph horiz-adv-x="603" d="M452 439q0 34 -13 45.5t-62 16.5l5 36h183l3 -36l-48 -9q-16 -3 -16 -20v-281q0 -91 -52 -144.5t-145 -53.5q-102 0 -152.5 47t-50.5 145v268q0 24 -9 32.5t-50 15.5l5 36h208l3 -36l-48 -9q-16 -3 -16 -20v-278q0 -76 28.5 -112.5t95.5 -36.5q65 0 98 40.5t33 96.5v257z M408 751h37q-4 -62 -41 -101t-108 -39t-108 39t-41 101h37q17 -72 112 -72t112 72z" />
<glyph horiz-adv-x="603" d="M452 439q0 34 -13 45.5t-62 16.5l5 36h183l3 -36l-48 -9q-16 -3 -16 -20v-281q0 -91 -52 -144.5t-145 -53.5q-102 0 -152.5 47t-50.5 145v268q0 24 -9 32.5t-50 15.5l5 36h208l3 -36l-48 -9q-16 -3 -16 -20v-278q0 -76 28.5 -112.5t95.5 -36.5q65 0 98 40.5t33 96.5v257z M311 590q-41 0 -68.5 23.5t-27.5 64.5t29.5 66.5t71.5 25.5q40 0 68 -24t28 -63q0 -41 -29.5 -67t-71.5 -26zM311 633q22 0 36.5 14t14.5 36q0 20 -13 32t-33 12q-52 0 -52 -49q0 -21 13 -33t34 -12z" />
<glyph horiz-adv-x="603" d="M452 439q0 34 -13 45.5t-62 16.5l5 36h183l3 -36l-48 -9q-16 -3 -16 -20v-281q0 -91 -52 -144.5t-145 -53.5q-102 0 -152.5 47t-50.5 145v268q0 24 -9 32.5t-50 15.5l5 36h208l3 -36l-48 -9q-16 -3 -16 -20v-278q0 -76 28.5 -112.5t95.5 -36.5q65 0 98 40.5t33 96.5v257z M517 736v-23l-177 -111l-35 25l117 139zM319 736v-23l-177 -111l-35 25l117 139z" />
<glyph horiz-adv-x="603" d="M452 439q0 34 -13 45.5t-62 16.5l5 36h183l3 -36l-48 -9q-16 -3 -16 -20v-281q0 -91 -52 -144.5t-145 -53.5q-102 0 -152.5 47t-50.5 145v268q0 24 -9 32.5t-50 15.5l5 36h208l3 -36l-48 -9q-16 -3 -16 -20v-278q0 -76 28.5 -112.5t95.5 -36.5q65 0 98 40.5t33 96.5v257z M413 -171q-45 -41 -95 -41q-36 0 -61 24.5t-25 66.5q0 44 41 86.5t121 67.5l11 -20q-106 -52 -106 -124q0 -23 13.5 -37t35.5 -14q29 0 54 9z" />
<glyph horiz-adv-x="750" d="M465 -7l-78 264q-3 15 -3 16h-5q0 -3 -4 -15l-92 -265h-67l-159 474q-6 16 -15 21.5t-39 12.5l5 36h194l3 -37l-42 -14q-6 -2 -6 -6l1 -2q0 -2 1 -4.5t1 -4.5l102 -334l7 -26h7l83 245l-33 113q-1 5 -3 8.5t-3 6t-4 5t-4.5 3.5t-6.5 3t-7 2.5t-9.5 2.5t-10.5 3l6 36h184 l3 -37l-54 -14q-6 -2 -6 -6l1 -2q0 -2 1 -4.5t1 -4.5l96 -334q7 -19 7 -26h8l103 326q8 26 8 38q0 18 -58 28l5 36h164l3 -38q-33 -7 -43.5 -15t-17.5 -28l-158 -463h-66zM510 600l-139 91l-139 -91l-25 26l136 139h56l136 -139z" />
<glyph horiz-adv-x="511" d="M281 287l92 154q16 26 16 37q0 8 -9.5 12t-37.5 11l5 36h159l3 -38q-34 -7 -48 -15.5t-25 -26.5l-130 -222v-170q0 -18 16 -20l60 -9l-3 -36h-233l-4 36q49 8 60 16t11 32v141l-153 242q-10 17 -18.5 22t-35.5 12l5 36h207l3 -37l-53 -14q-5 -2 -5 -6q0 -2 5 -12l98 -154 q7 -11 7 -27h8zM399 600l-139 91l-139 -91l-25 26l136 139h56l136 -139z" />
<glyph horiz-adv-x="493" d="M123 390l-55 5q-2 32 -2 56q0 42 7 86h381l-1 -26l-276 -443q-10 -14 -17 -17l1 -6l36 1q149 3 169 6q14 4 34 101l56 -4q1 -8 1 -26q0 -75 -13 -123h-411v26l276 443q10 14 17 18l-2 5h-60q-82 0 -109 -5q-12 0 -32 -97zM406 714l-8 -21l-201 -93l-25 36l174 129z" />
<glyph horiz-adv-x="493" d="M123 390l-55 5q-2 32 -2 56q0 42 7 86h381l-1 -26l-276 -443q-10 -14 -17 -17l1 -6l36 1q149 3 169 6q14 4 34 101l56 -4q1 -8 1 -26q0 -75 -13 -123h-411v26l276 443q10 14 17 18l-2 5h-60q-82 0 -109 -5q-12 0 -32 -97zM112 768l139 -91l139 91l25 -26l-136 -139h-56 l-136 139z" />
<glyph horiz-adv-x="620" d="M450 -171q-45 -41 -95 -41q-36 0 -61 24.5t-25 66.5q0 44 41 86.5t121 67.5l11 -20q-106 -52 -106 -124q0 -23 14 -37t35 -14q29 0 54 9z" />
<glyph horiz-adv-x="382" d="M185 429q-75 0 -121 60.5t-46 145.5q0 90 49 155.5t129 65.5q75 0 121.5 -61t46.5 -147q0 -89 -49.5 -154t-129.5 -65zM183 817q-76 0 -76 -167q0 -89 24.5 -135t65.5 -46q78 0 78 158q0 90 -24.5 140t-67.5 50z" />
<glyph horiz-adv-x="355" d="M152 435l-4 31q38 6 50.5 13t12.5 22v43h-191l-15 46l202 258q46 8 70 8l7 -6v-255l67 -1l-6 -50h-61v-57q0 -11 13 -13l37 -8l-2 -31h-180zM64 602l2 -4l145 -3v170q0 13 2 19l-4 2l-134 -170q-2 -3 -6 -8t-5 -6z" />
<glyph horiz-adv-x="333" d="M99 793l-8 -104q37 10 80 10q64 0 102.5 -32.5t38.5 -87.5q0 -66 -54.5 -108t-132.5 -42q-65 0 -107 16q2 43 12 90l42 3q6 -59 13 -62q10 -7 43 -7q42 0 68.5 27.5t26.5 70.5q0 37 -21 61.5t-63 24.5q-41 0 -80 -15l-24 24l14 188h234l7 -7q0 -28 -11 -50h-180z" />
<glyph horiz-adv-x="343" d="M330 567q0 -59 -43.5 -98.5t-113.5 -39.5q-71 0 -111.5 43t-40.5 116q0 103 74.5 175.5t181.5 94.5l14 -34q-151 -52 -178 -153l5 -2q32 27 80 27q54 0 93 -35.5t39 -93.5zM247 559q0 43 -16.5 68t-43.5 25q-38 0 -65 -16q-14 -7 -16 -24q-3 -10 -3 -18q0 -127 82 -127 q24 0 40 16q22 25 22 76z" />
<glyph horiz-adv-x="300" d="M59 439q11 61 63.5 166.5t117.5 187.5l-1 4l-114 -2q-46 -2 -52 -2q-5 -1 -8.5 -9t-11.5 -41l-40 3q-1 10 -1 31q0 50 4 73h283v-44q-139 -206 -151 -375q-10 -2 -25 -2q-37 0 -64 10z" />
<glyph horiz-adv-x="343" d="M30 738q0 53 41.5 85.5t103.5 32.5q31 0 60.5 -7.5t55 -31t25.5 -60.5q0 -55 -51 -87q-9 -9 -22 -12v-5q1 0 4 -1t7 -3q78 -39 78 -102q0 -52 -45 -85t-119 -33q-24 0 -47 3.5t-49 13t-42 30t-16 50.5q0 62 67 102q12 6 19 6v7q-5 0 -10 2q-60 32 -60 95zM104 758 q0 -30 22.5 -47t71.5 -37q46 31 46 79q0 31 -20 48.5t-53 17.5t-50 -18t-17 -43zM254 531q0 8 -1.5 15t-6.5 13.5t-8.5 11t-12 9.5t-13.5 8.5t-16.5 8t-16 6.5t-18.5 7t-18 7q-5 -3 -12.5 -8t-18.5 -15.5t-18.5 -26t-7.5 -33.5q0 -31 24 -48.5t63 -17.5q42 0 61.5 19 t19.5 44z" />
<glyph horiz-adv-x="344" d="M14 720q0 57 43 96.5t109 39.5q73 0 115.5 -43.5t42.5 -115.5q0 -34 -9 -68t-29.5 -68.5t-50.5 -62t-76.5 -47t-102.5 -23.5l-5 34q144 30 178 148l-5 2q-30 -22 -78 -22q-54 0 -93 37t-39 93zM97 730q0 -47 21.5 -71.5t47.5 -24.5q31 0 55 13q14 9 17 24q4 14 4 35 q0 51 -19.5 82t-60.5 31q-26 0 -42 -17q-23 -23 -23 -72z" />
<glyph horiz-adv-x="382" d="M185 -169q-75 0 -121 60.5t-46 145.5q0 90 49 155.5t129 65.5q75 0 121.5 -61t46.5 -147q0 -89 -49.5 -154t-129.5 -65zM183 219q-76 0 -76 -167q0 -89 24.5 -135t65.5 -46q78 0 78 158q0 90 -24.5 140t-67.5 50z" />
<glyph horiz-adv-x="267" d="M41 -163l-4 31q38 6 51 13.5t13 21.5v258q0 31 -3 37t-16 6q-26 0 -44 -3l-5 31q75 26 133 26l8 -7v-362v-4.5t0.5 -3t2 -2.5t4 -1.5t6.5 -1.5l50 -8l-3 -31h-193z" />
<glyph horiz-adv-x="330" d="M8 -163v42q103 82 153.5 145t50.5 115q0 33 -21 55.5t-64 22.5q-36 0 -50 -16q-11 -11 -15 -68l-44 4q-6 29 -6 55q0 24 1 31q21 16 59 25.5t70 9.5q78 0 119.5 -33.5t41.5 -86.5q0 -59 -50 -115t-167 -139l1 -5l61 2q82 2 86 4q12 2 26 61l40 -2v-19q0 -54 -10 -88h-282 z" />
<glyph horiz-adv-x="313" d="M12 -67l44 3q3 -56 13 -59q18 -6 51 -6q35 0 58.5 21.5t23.5 56.5q0 86 -86 86q-10 0 -34 -2l2 36q54 8 79 33.5t25 56.5q0 27 -18.5 43.5t-46.5 16.5q-32 0 -44 -8q-12 -9 -17 -69l-43 4q-6 32 -6 51q0 25 1 33q50 28 119 28q61 0 99 -23.5t38 -64.5q0 -32 -23 -59.5 t-54 -39.5l1 -5q40 -6 69 -34t29 -72q0 -50 -50.5 -89.5t-130.5 -39.5q-68 0 -110 13q7 64 11 89z" />
<glyph horiz-adv-x="355" d="M152 -163l-4 31q38 6 50.5 13t12.5 22v43h-191l-15 46l202 258q46 8 70 8l7 -6v-255l67 -1l-6 -50h-61v-57q0 -11 13 -13l37 -8l-2 -31h-180zM64 4l2 -4l145 -3v170q0 13 2 19l-4 2l-134 -170q-2 -3 -6 -8t-5 -6z" />
<glyph horiz-adv-x="333" d="M99 195l-8 -104q37 10 80 10q64 0 102.5 -32.5t38.5 -87.5q0 -66 -54.5 -108t-132.5 -42q-65 0 -107 16q2 43 12 90l42 3q6 -59 13 -62q10 -7 43 -7q42 0 68.5 27.5t26.5 70.5q0 37 -21 61.5t-63 24.5q-41 0 -80 -15l-24 24l14 188h234l7 -7q0 -28 -11 -50h-180z" />
<glyph horiz-adv-x="343" d="M330 -31q0 -59 -43.5 -98.5t-113.5 -39.5q-71 0 -111.5 43t-40.5 116q0 103 74.5 175.5t181.5 94.5l14 -34q-151 -52 -178 -153l5 -2q32 27 80 27q54 0 93 -35.5t39 -93.5zM247 -39q0 43 -16.5 68t-43.5 25q-38 0 -65 -16q-14 -7 -16 -24q-3 -10 -3 -18q0 -127 82 -127 q24 0 40 16q22 25 22 76z" />
<glyph horiz-adv-x="300" d="M59 -159q11 61 63.5 166.5t117.5 187.5l-1 4l-114 -2q-46 -2 -52 -2q-5 -1 -8.5 -9t-11.5 -41l-40 3q-1 10 -1 31q0 50 4 73h283v-44q-139 -206 -151 -375q-10 -2 -25 -2q-37 0 -64 10z" />
<glyph horiz-adv-x="343" d="M30 140q0 53 41.5 85.5t103.5 32.5q31 0 60.5 -7.5t55 -31t25.5 -60.5q0 -55 -51 -87q-9 -9 -22 -12v-5q1 0 4 -1t7 -3q78 -39 78 -102q0 -52 -45 -85t-119 -33q-24 0 -47 3.5t-49 13t-42 30t-16 50.5q0 62 67 102q12 6 19 6v7q-5 0 -10 2q-60 32 -60 95zM104 160 q0 -30 22.5 -47t71.5 -37q46 31 46 79q0 31 -20 48.5t-53 17.5t-50 -18t-17 -43zM254 -67q0 8 -1.5 15t-6.5 13.5t-8.5 11t-12 9.5t-13.5 8.5t-16.5 8t-16 6.5t-18.5 7t-18 7q-5 -3 -12.5 -8t-18.5 -15.5t-18.5 -26t-7.5 -33.5q0 -31 24 -48.5t63 -17.5q42 0 61.5 19 t19.5 44z" />
<glyph horiz-adv-x="344" d="M14 122q0 57 43 96.5t109 39.5q73 0 115.5 -43.5t42.5 -115.5q0 -34 -9 -68t-29.5 -68.5t-50.5 -62t-76.5 -47t-102.5 -23.5l-5 34q144 30 178 148l-5 2q-30 -22 -78 -22q-54 0 -93 37t-39 93zM97 132q0 -47 21.5 -71.5t47.5 -24.5q31 0 55 13q14 9 17 24q4 14 4 35 q0 51 -19.5 82t-60.5 31q-26 0 -42 -17q-23 -23 -23 -72z" />
<glyph horiz-adv-x="574" d="M283 271q-109 0 -168.5 56.5t-59.5 153.5q0 100 63 160.5t174 60.5q108 0 167.5 -55.5t59.5 -149.5q0 -103 -63 -164.5t-173 -61.5zM292 303q87 0 128 52t41 131q0 81 -46.5 132.5t-132.5 51.5q-87 0 -127.5 -51.5t-40.5 -126.5q0 -84 46 -136.5t132 -52.5zM147 496 q0 53 38 97t112 44q38 0 93 -22v-22q0 -36 -6 -60l-35 -4q-8 62 -12 64q-17 12 -41 12q-43 0 -65.5 -30.5t-22.5 -78.5q0 -59 30 -88.5t69 -29.5q31 0 36 9l1 2l2.5 5t3 8.5t3.5 15t3 22.5l32 -2q5 -33 5 -51q0 -11 -2 -25q-10 -6 -39.5 -11t-47.5 -5q-84 0 -120.5 41.5 t-36.5 108.5z" />
<glyph horiz-adv-x="620" d="M450 -169q-51 -46 -110 -46q-39 0 -68.5 25.5t-29.5 64.5q0 58 61 104.5t162 46.5v-26q-60 -2 -101 -31.5t-41 -73.5q0 -26 15.5 -40t39.5 -14q31 0 60 10z" />
<glyph horiz-adv-x="245" />
<glyph horiz-adv-x="300" d="M118 -210l-26 25q45 31 45 59q0 16 -11.5 32.5t-11.5 30.5q0 19 13.5 30.5t32.5 11.5q22 0 36.5 -16.5t14.5 -47.5q0 -30 -23.5 -65t-69.5 -60z" />
<glyph horiz-adv-x="232" d="M113 331q-25 0 -42 16t-17 46q0 24 16.5 41.5t42.5 17.5t43 -14.5t17 -44.5q0 -26 -16.5 -44t-43.5 -18z" />
</font>
</defs>
</svg>
